<svg clip-rule="evenodd" fill-rule="evenodd" stroke-linejoin="round" stroke-miterlimit="2" viewBox="0 0 560 400" xmlns="http://www.w3.org/2000/svg"><g transform="matrix(.820046 0 0 .820046 187.335 20)"><path d="m109.887 0v8.59h-8.59v6.212h8.59v8.603h6.212v-8.603h8.604v-6.212h-8.604v-8.59z" fill="#b59c56" fill-rule="nonzero"/><path d="m74.397 77.433h77.207v6.212h-77.207z" fill="#b59c56"/><path d="m74.397 64.952h77.207v6.212h-77.207z" fill="#b59c56"/><path d="m109.887 29.603h6.212v29.108h-6.212z" fill="#b59c56"/><g fill-rule="nonzero"><path d="m77.765 56.603c-2.335-4.358-4.741-8.872-4.741-12.353.321-4.68 4.26-8.359 8.951-8.359.904 0 1.803.137 2.667.406.71-1.978 1.712-3.838 2.971-5.519-1.805-.733-3.735-1.11-5.683-1.11-8.09 0-14.819 6.496-15.104 14.582 0 4.768 2.491 9.693 5.023 14.476h7.076z" fill="#b59c56"/><path d="m99.995 58.712c-.198-.51-.41-1.019-.636-1.543-1.684-4.104-3.779-9.198-3.779-12.651 0-5.165 2.831-7.783 5.335-8.49.923-.277 1.907-.277 2.83 0v-6.311c-1.474-.182-2.969-.071-4.401.325-6.014 1.656-9.905 7.33-9.905 14.448 0 4.429 2.009 9.566 3.92 14.151z" fill="#b59c56"/><path d="m144.797 29.717c-2.191-.11-4.379.262-6.41 1.089 1.264 1.681 2.27 3.541 2.985 5.519.863-.269 1.762-.406 2.667-.406 4.688 0 8.624 3.681 8.937 8.359 0 3.481-2.406 7.995-4.726 12.353-.382.708-.75 1.416-1.118 2.123h7.075c2.547-4.783 5.038-9.707 5.038-14.476-.141-7.892-6.558-14.359-14.448-14.561" fill="#b59c56"/><path d="m122.325 29.717v6.368c.901-.263 1.859-.263 2.76 0 2.49.707 5.32 3.268 5.32 8.433 0 3.453-2.094 8.491-3.778 12.651l-.637 1.543h6.722c1.896-4.628 3.906-9.764 3.906-14.151 0-7.076-3.892-12.736-9.906-14.448-1.422-.418-2.913-.553-4.387-.396" fill="#b59c56"/><path d="m205.56 397.439c-10.301 0-20.221 7.5-20.221 7.5h40.443s-9.906-7.5-20.222-7.5" fill="#b59c56"/><path d="m182.495 409.397c-10.316 0-20.222 7.499-20.222 7.499h40.443s-9.906-7.499-20.221-7.499" fill="#b59c56"/><path d="m167.198 423.264c-9.227-4.599-21.439-2.306-21.439-2.306l36.198 18.042s-5.519-11.137-14.759-15.736" fill="#b59c56"/><path d="m137.283 423.264c-9.227-4.599-21.453-2.306-21.453-2.306l36.198 18.042s-5.519-11.137-14.745-15.736" fill="#b59c56"/><path d="m213.994 382.552c6.566-7.952 7.076-20.377 7.076-20.377l-25.727 31.217s12.099-2.83 18.651-10.84" fill="#b59c56"/><path d="m189.145 393.392c5.661-8.604 4.911-21 4.911-21l-22.316 33.736s11.717-4.118 17.405-12.736" fill="#b59c56"/><path d="m154.066 414.873c9.226-4.599 14.745-15.736 14.745-15.736l-36.198 18.057s12.226 2.292 21.453-2.321" fill="#b59c56"/><path d="m20.44 397.439c10.316 0 20.221 7.5 20.221 7.5h-40.443s9.906-7.5 20.222-7.5" fill="#b59c56"/><path d="m43.505 409.397c10.316 0 20.222 7.499 20.222 7.499h-40.443s9.906-7.499 20.221-7.499" fill="#b59c56"/><path d="m58.746 423.264c9.226-4.599 21.452-2.306 21.452-2.306l-36.197 18.042s5.519-11.137 14.745-15.736" fill="#b59c56"/><path d="m88.731 423.264c9.227-4.599 21.439-2.306 21.439-2.306l-36.198 18.042s5.533-11.137 14.759-15.736" fill="#b59c56"/><path d="m12.006 382.552c-6.566-7.952-7.076-20.377-7.076-20.377l25.727 31.217s-12.043-2.83-18.651-10.84" fill="#b59c56"/><path d="m36.855 393.392c-5.661-8.604-4.911-21-4.911-21l22.33 33.736s-11.731-4.118-17.419-12.736" fill="#b59c56"/><path d="m71.949 414.887c-9.241-4.613-14.76-15.75-14.76-15.75l36.198 18.057s-12.212 2.292-21.438-2.307" fill="#b59c56"/><path d="m41.949 368.288c10.377 9.264 22.468 16.408 35.589 21.029v-290.092h-35.462z" fill="#ffd500"/><path d="m77.538 389.317c14.533 6.056 35.547 6.056 35.547 6.056l-.085-296.19h-35.462z" fill="#e30613"/><path d="m42.076 99.183-.127 269.105c-22.785-20.26-35.824-49.348-35.787-79.838v-189.267z" fill="#1d1d1b"/><path d="m113.085 181.526c58.656 0 106.923 48.267 106.923 106.924 0 58.656-48.267 106.923-106.923 106.923z" fill="#1d1d1b"/><path d="m3.048 96.084v192.366c0 60.364 49.673 110.036 110.037 110.036s110.036-49.672 110.036-110.036v-192.366zm106.853 296.105c-9.946-.297-19.797-2.028-29.25-5.137v-284.756h29.25zm-64.726-289.893h29.25v282.478c-10.671-4.305-20.555-10.35-29.25-17.886zm-35.914 186.154v-186.154h29.716v258.747c-19.042-19.352-29.722-45.443-29.716-72.593zm207.634 0c-.073 55.774-45.033 102.053-100.782 103.739v-207.479c55.752 1.679 100.716 47.963 100.782 103.74z" fill="#b59c56"/><path d="m135.967 160.201h.509l1.656 6.778h-3.878zm-7.302 14.929h3.509l1.26-4.981h5.462l1.231 4.981h3.934v-2.391l-4.557-16.26h-6.268l-4.557 16.26zm-12.424 0h4.344v-7.783h6.269v-3.198h-6.269v-4.429h6.58v-3.212h-10.91z" fill="#1d1d1b"/><path d="m202.051 150.281h4.047v-11.32h.481l5.363 11.32h4.911v-18.679h-4.062v11.321h-.509l-5.321-11.321h-4.91zm-10.797-14.929h.509l1.656 6.722h-3.877zm-7.359 14.929h3.524l1.245-4.981h5.491l1.231 4.981h3.948v-2.405l-4.571-16.274h-6.339l-4.529 16.274zm-7.075 0h4.344v-18.679h-4.344zm-9.905-7.273h2.674v2.83c-.234.417-.57.767-.976 1.019-.552.326-1.186.483-1.826.453-.648.03-1.289-.138-1.839-.481-.427-.263-.771-.64-.991-1.09v-9.608c.22-.453.557-.839.976-1.118 1.096-.64 2.456-.64 3.552 0 .427.266.763.656.963 1.118v1.91h4.245v-3.057c-.232-.428-.502-.836-.807-1.217-.407-.475-.884-.885-1.415-1.217-.626-.402-1.301-.72-2.009-.948-.89-.27-1.816-.399-2.746-.382-.958-.024-1.914.11-2.83.397-.731.239-1.426.577-2.066 1.004-.539.36-1.017.805-1.415 1.316-.325.443-.604.917-.835 1.415v11.321c.231.498.51.972.835 1.415.398.512.876.956 1.415 1.316.637.432 1.333.771 2.066 1.005.916.286 1.872.42 2.83.396.93.017 1.856-.112 2.746-.382.713-.22 1.39-.544 2.009-.962.528-.336 1.004-.746 1.415-1.217.297-.376.567-.774.807-1.189v-7.075h-6.722zm-19.529 7.273h10.132v-3.226h-5.886v-15.453h-4.246zm-14.448 0h11.321v-3.226h-7.075v-4.684h6.368v-3.226h-6.368v-4.246h6.849v-3.297h-11.151zm-12.353-3.113v-4.91h2.745c.493-.005.979.111 1.415.34.392.186.718.487.934.863v2.42c-.198.379-.496.698-.863.919-.489.267-1.043.394-1.599.368zm0-7.924v-4.472h2.632c.493-.012.981.105 1.415.34.384.21.691.537.877.934v1.953c-.232.356-.541.656-.905.877-.384.231-.826.349-1.274.339zm-4.33 11.037h7.924c.671.012 1.34-.083 1.981-.283.551-.17 1.076-.417 1.557-.735.446-.282.851-.625 1.203-1.019.311-.349.586-.728.82-1.132v-4.529c-.262-.432-.597-.815-.99-1.132-.375-.295-.772-.56-1.189-.792.425-.245.819-.539 1.175-.877.323-.304.608-.646.849-1.019v-3.963c-.231-.407-.501-.791-.807-1.146-.343-.387-.732-.729-1.16-1.019-.47-.312-.979-.559-1.514-.735-.621-.206-1.271-.307-1.925-.298h-7.924z" fill="#1d1d1b"/><path d="m181.051 125.433h10.118v-3.227h-5.774v-15.438h-4.344zm-10.854-14.929h.51l1.641 6.721h-3.863zm-7.245 14.929h3.51l1.259-4.981h5.491l1.231 4.981h3.934v-2.406l-4.557-16.259h-6.311l-4.557 16.259zm-9.311 0h4.344v-7.33l4.967-8.93v-2.405h-3.58l-3.071 6.438h-.509l-2.972-6.396h-3.919v2.406l4.683 8.49zm-20.957-3.736c.23.501.515.976.849 1.415.397.512.875.957 1.415 1.316.64.427 1.335.765 2.066 1.005 1.811.528 3.736.528 5.547 0 .732-.237 1.427-.576 2.066-1.005.539-.36 1.017-.805 1.415-1.316.336-.436.616-.911.835-1.415v-11.321c-.219-.504-.499-.979-.835-1.415-.398-.511-.876-.956-1.415-1.316-.639-.429-1.334-.768-2.066-1.005-1.811-.528-3.736-.528-5.547 0-.731.24-1.426.578-2.066 1.005-.54.359-1.018.804-1.415 1.316-.334.439-.619.914-.849 1.415zm4.344-10.472c.218-.458.555-.849.976-1.132 1.096-.639 2.456-.639 3.552 0 .421.28.755.672.963 1.132v9.637c-.219.446-.551.827-.963 1.104-1.096.639-2.456.639-3.552 0-.413-.28-.748-.66-.976-1.104zm-16.443 4.245v-5.476h2.589c.493-.003.978.114 1.415.34.415.204.752.537.963.948v3c-.206.41-.538.743-.948.948-.437.227-.923.344-1.415.34zm5.943 9.906h3.382v-2.406l-3.226-4.924c.649-.256 1.248-.625 1.769-1.09.5-.473.929-1.016 1.273-1.613v-5.406c-.531-1.005-1.342-1.836-2.335-2.391-.997-.559-2.125-.847-3.268-.835h-7.868v18.722h4.344v-6.849h1.811z" fill="#1d1d1b"/><path d="m150.217 167.078c.147.312.383.573.679.75.423.264.917.393 1.415.368.499.03.994-.099 1.415-.368.296-.177.532-.438.679-.75v-2.023c-.155-.307-.389-.566-.679-.75-.424-.262-.917-.391-1.415-.368-.498-.018-.99.11-1.415.368-.29.184-.525.443-.679.75z" fill="#1d1d1b"/><path d="m204.188 172.47c.216.324.463.627.736.905.371.392.795.73 1.259 1.005.579.354 1.203.63 1.854.821.809.233 1.648.343 2.49.325.843.015 1.683-.1 2.491-.339.652-.201 1.279-.476 1.868-.821.8-.462 1.476-1.113 1.967-1.896v-6.538c-.187-.364-.415-.706-.68-1.019-.308-.36-.671-.671-1.075-.919-.439-.282-.916-.501-1.415-.651-.583-.177-1.189-.263-1.797-.255-.705-.013-1.407.087-2.08.297-.558.197-1.079.484-1.543.849v-4.33h8.491v-3.354h-12.396v10.599h3.877c.231-.258.509-.47.821-.622.435-.23.922-.347 1.415-.34.549-.01 1.091.126 1.57.396.385.189.695.504.878.892v3.651c-.177.399-.487.724-.878.919-.48.266-1.022.398-1.57.382-.555.02-1.105-.118-1.585-.396-.381-.206-.691-.522-.892-.905v-1.416h-3.863z" fill="#1d1d1b"/><path d="m200.48 158.489c-.416-.446-.893-.831-1.415-1.146-.61-.381-1.266-.68-1.953-.892-.819-.255-1.674-.379-2.533-.368-.848-.015-1.693.105-2.504.354-.659.202-1.291.482-1.882.835-.465.281-.888.624-1.26 1.019-.259.264-.491.553-.693.863v6.523c.168.384.398.737.679 1.048.313.352.675.657 1.075.905.444.274.919.493 1.416.651.597.177 1.217.263 1.839.255.72.014 1.437-.091 2.123-.311.58-.186 1.126-.469 1.613-.835v3.679c-.19.386-.497.703-.877.906-.995.527-2.19.527-3.184 0-.381-.203-.688-.52-.878-.906v-1.26h-3.764v2.689c.216.316.458.615.722.892.376.386.799.724 1.259 1.004.589.345 1.216.621 1.868.821.809.238 1.648.353 2.491.34.856.013 1.71-.102 2.533-.34.688-.201 1.345-.496 1.953-.877.526-.315 1.003-.706 1.415-1.161.313-.364.583-.763.806-1.188v-12.368c-.227-.416-.513-.797-.849-1.132zm-3.396 6.339c-.347.247-.723.451-1.118.609-.413.15-.849.226-1.288.226-.574.015-1.141-.127-1.641-.41-.387-.198-.7-.515-.892-.906v-3.778c.19-.386.498-.703.878-.906.99-.545 2.194-.545 3.184 0 .38.203.687.52.877.906z" fill="#1d1d1b"/><path d="m184.447 166.739c-.464-.498-1.01-.914-1.613-1.231.513-.285.988-.632 1.415-1.033.263-.263.509-.542.736-.835v-4.684c-.208-.271-.43-.531-.665-.778-.363-.368-.772-.687-1.217-.949-.578-.342-1.196-.613-1.84-.806-.815-.252-1.665-.372-2.518-.354-.843-.014-1.683.1-2.491.34-.644.186-1.262.452-1.84.792-.449.267-.863.59-1.231.962-.244.249-.471.514-.679.793v4.684c.207.318.454.609.736.863.418.405.895.743 1.415 1.005-.599.328-1.139.754-1.599 1.259-.351.378-.655.796-.906 1.245v3.948c.203.423.465.813.779 1.161.412.454.889.845 1.415 1.16 2.132 1.263 4.696 1.586 7.075.892.681-.215 1.333-.514 1.939-.892.526-.315 1.003-.706 1.415-1.16.317-.348.584-.738.792-1.161v-3.948c-.313-.473-.689-.901-1.118-1.273zm-8.122-6.382c.227-.303.517-.554.849-.736.959-.508 2.111-.508 3.071 0 .334.178.625.43.849.736v2.703c-.222.315-.512.577-.849.764-.96.507-2.112.507-3.071 0-.334-.192-.624-.452-.849-.764zm4.854 10.698c-.191.386-.498.703-.878.905-.486.277-1.04.414-1.599.397-.55.017-1.094-.12-1.571-.397-.383-.202-.695-.518-.891-.905v-2.83c.194-.392.506-.713.891-.92.479-.27 1.022-.407 1.571-.396.559-.011 1.11.126 1.599.396.381.207.688.529.878.92z" fill="#1d1d1b"/><path d="m159.599 175.13h9.537v-2.745h-2.632v-15.906h-3.495l-3.439 1.161v2.505l2.774-.284v12.524h-2.745z" fill="#1d1d1b"/></g></g></svg>