<svg clip-rule="evenodd" fill-rule="evenodd" stroke-linejoin="round" stroke-miterlimit="2" viewBox="0 0 560 400" xmlns="http://www.w3.org/2000/svg"><g transform="matrix(1.34722 0 0 1.34225 180 74.5)"><path d="m66.675 170.28 8.135-.395-.575 6.585z" fill="#ba9869" fill-rule="nonzero"/><path d="m74.5 173.5-3.635.18-7.63-6.265c-.174-.21-.368-.403-.58-.575l12.46-.61z" fill="#ba9869" fill-rule="nonzero"/><path d="m74.81 169.885-8.135.395-3.455-2.845c-1.3-1.33-2.595-2.665-3.89-4.03l16.09-.795z" fill="#bc9969" fill-rule="nonzero"/><path d="m75.1 166.25-12.46.61c-2.195-2.27-4.355-4.57-6.44-6.95l19.545-.91z" fill="#bc9969" fill-rule="nonzero"/><path d="m75.42 162.61-16.09.795c-2.09-2.27-4.105-4.575-6.085-6.95l22.79-1.08z" fill="#bc9969" fill-rule="nonzero"/><path d="m75.745 159-19.545.935c-1.945-2.23-3.89-4.57-5.725-6.945l25.885-1.225z" fill="#bc9969" fill-rule="nonzero"/><path d="m76.035 155.375-22.79 1.08c-1.87-2.265-3.67-4.605-5.435-7l28.87-1.365z" fill="#bd9b6c" fill-rule="nonzero"/><path d="m76.36 151.74-25.86 1.225c-1.8-2.27-3.53-4.61-5.185-7l31.68-1.5z" fill="#bd9b6c" fill-rule="nonzero"/><path d="m76.68 148.105-28.87 1.365c-1.69-2.265-3.35-4.605-4.93-7l34.415-1.66z" fill="#bd9b6c" fill-rule="nonzero"/><path d="m76.97 144.47-31.68 1.5c-1.62-2.27-3.205-4.61-4.715-7l37-1.765z" fill="#bf9d6c" fill-rule="nonzero"/><path d="m77.295 140.83-34.415 1.67c-1.55-2.305-3.06-4.645-4.5-7l39.5-1.875z" fill="#c19e6d" fill-rule="nonzero"/><path d="m77.58 137.23-37 1.765c-1.5-2.305-2.915-4.645-4.285-7l41.905-2z" fill="#c19e6d" fill-rule="nonzero"/><path d="m77.87 133.595-39.5 1.875c-1.407-2.307-2.775-4.64-4.105-7l44.235-2.145z" fill="#c19e6f" fill-rule="nonzero"/><path d="m78.195 129.96-41.905 2c-1.37-2.34-2.665-4.68-3.96-7.055l46.5-2.23z" fill="#c3a070" fill-rule="nonzero"/><path d="m78.5 126.325-44.225 2.125c-1.295-2.305-2.555-4.68-3.78-7.06l48.635-2.3z" fill="#c3a070" fill-rule="nonzero"/><path d="m78.805 122.69-46.5 2.23c-1.225-2.305-2.45-4.68-3.635-7.055l50.76-2.415z" fill="#c3a070" fill-rule="nonzero"/><path d="m79.13 119.09-48.63 2.3c-1.19-2.3-2.375-4.68-3.5-7.055l52.74-2.5z" fill="#c3a070" fill-rule="nonzero"/><path d="m79.455 115.45-50.76 2.415c-1.155-2.34-2.27-4.68-3.35-7.055l54.72-2.63z" fill="#c7a271" fill-rule="nonzero"/><path d="m79.74 111.815-52.74 2.52c-1.115-2.34-2.195-4.68-3.24-7.09l56.63-2.7z" fill="#c7a271" fill-rule="nonzero"/><path d="m80.065 108.18-54.72 2.63c-1.045-2.34-2.085-4.72-3.095-7.095l58.43-2.77z" fill="#c7a271" fill-rule="nonzero"/><path d="m80.39 104.545-56.63 2.7c-1-2.305-2-4.68-3-7.095l60.24-2.84z" fill="#caa472" fill-rule="nonzero"/><path d="m80.68 100.945-58.43 2.77c-1-2.34-2-4.715-2.915-7.09l62-2.915z" fill="#caa674" fill-rule="nonzero"/><path d="m81 97.31-60.225 2.84c-.975-2.3-1.91-4.68-2.81-7.055l63.65-3.025z" fill="#caa674" fill-rule="nonzero"/><path d="m81.325 93.71-62 2.915c-.9-2.34-1.8-4.68-2.7-7.055l65.305-3.135z" fill="#caa674" fill-rule="nonzero"/><path d="m81.615 90.07-63.65 3.025c-.9-2.34-1.765-4.68-2.59-7.09l66.885-3.17z" fill="#cda873" fill-rule="nonzero"/><path d="m81.94 86.435-65.305 3.135c-.865-2.34-1.695-4.72-2.5-7.13l68.415-3.24z" fill="#cda873" fill-rule="nonzero"/><path d="m82.26 82.835-66.885 3.165c-.83-2.34-1.655-4.715-2.45-7.095l69.95-3.345z" fill="#cfa973" fill-rule="nonzero"/><path d="m82.55 79.2-68.435 3.24c-.795-2.34-1.585-4.715-2.375-7.09l71.46-3.42z" fill="#cfa973" fill-rule="nonzero"/><path d="m82.875 75.565-69.95 3.345c-.79-2.375-1.545-4.75-2.305-7.125l72.865-3.5z" fill="#cfaa74" fill-rule="nonzero"/><path d="m83.2 71.93-71.46 3.42c-.76-2.38-1.5-4.755-2.2-7.13l74.27-3.53z" fill="#cfaa74" fill-rule="nonzero"/><path d="m83.5 68.29-72.865 3.5-2.16-7.13 75.64-3.6z" fill="#d1ab74" fill-rule="nonzero"/><path d="m83.81 64.69-74.27 3.53c-.72-2.375-1.44-4.75-2.12-7.13l77-3.67z" fill="#d1ad73" fill-rule="nonzero"/><path d="m84.1 61.055-75.64 3.6-2.05-7.125 78.335-3.745z" fill="#d3ad72" fill-rule="nonzero"/><path d="m84.42 57.42-77 3.67c-.65-2.375-1.335-4.75-2-7.125l79.595-3.815z" fill="#d3ad72" fill-rule="nonzero"/><path d="m84.745 53.785-78.335 3.745c-.65-2.38-1.295-4.755-1.91-7.165l80.86-3.865z" fill="#d3ad72" fill-rule="nonzero"/><path d="m85.035 50.15-79.595 3.815c-.615-2.375-1.26-4.755-1.875-7.165l82.115-3.89z" fill="#d5b073" fill-rule="nonzero"/><path d="m85.36 46.5-80.86 3.865c-.61-2.333-1.222-4.71-1.835-7.13l83.305-3.96z" fill="#d6b071" fill-rule="nonzero"/><path d="m85.68 42.91-82.115 3.89c-.565-2.34-1.185-4.715-1.765-7.13l84.5-4.03z" fill="#d6b071" fill-rule="nonzero"/><path d="m85.97 39.275-83.305 3.96-1.725-7.125 85.68-4.11z" fill="#d8b271" fill-rule="nonzero"/><path d="m86.295 35.64-84.495 4.03c-.54-2.17-1.04-4.355-1.545-6.55-.084-.199-.144-.407-.18-.62l86.83-4.14z" fill="#d8b271" fill-rule="nonzero"/><path d="m86.62 32-85.68 4.11c-.22-1-.47-2-.685-3-.36-.97-.47-2.16.575-2.27 5.923-.344 11.796-1.283 17.53-2.805l68.87-3.275z" fill="#d8b271" fill-rule="nonzero"/><path d="m86.905 28.37-86.83 4.13c-.18-.785-.075-1.575.755-1.65 11.34-.79 20.81-3.06 28.295-6.945l58.43-2.775z" fill="#dab271" fill-rule="nonzero"/><path d="m87.23 24.77-68.87 3.275c6.7-1.835 12.385-4.5 17-8.03l52.5-2.5z" fill="#dab472" fill-rule="nonzero"/><path d="m87.555 21.13-58.43 2.775c3.908-1.96 7.458-4.565 10.5-7.705l48.565-2.34z" fill="#dab470" fill-rule="nonzero"/><path d="m87.84 17.5-52.5 2.5c2.812-2.139 5.28-4.695 7.32-7.58l44.21-2.09 1.5 1.225z" fill="#dab470" fill-rule="nonzero"/><path d="m88.165 13.86-48.565 2.34c2.097-2.257 3.888-4.778 5.33-7.5l37.73-1.8 5.72 4.645z" fill="#dcb770" fill-rule="nonzero"/><path d="m86.87 10.33-44.21 2.09c1.617-2.303 2.947-4.795 3.96-7.42l31.88-1.5z" fill="#dcb770" fill-rule="nonzero"/><path d="m82.66 6.91-37.73 1.8c1.24-2.349 2.229-4.823 2.95-7.38l26.425-1.26z" fill="#dfb770" fill-rule="nonzero"/><path d="m78.5 3.5-31.88 1.5c.66-1.625 1.201-3.296 1.62-5h26z" fill="#dfb770" fill-rule="nonzero"/><path d="m74.305.07-26.425 1.26c.11-.43.255-.9.36-1.33h26z" fill="#e1ba6f" fill-rule="nonzero"/><path d="m70.13 169.415h4.575l-.47 3.385z" fill-rule="nonzero"/><path d="m66.025 166.07h9.18l-.97 6.73z" fill-rule="nonzero"/><path d="m74.705 169.415h-4.575l-4.97-4.065-1.44-1.48v-1.185h11.99z" fill-rule="nonzero"/><path d="m75.205 166.07h-9.18l-.865-.72-1.44-1.48v-4.535h12.46z" fill-rule="nonzero"/><path d="m75.71 162.685h-11.99v-6.735h12.965z" fill-rule="nonzero"/><path d="m76.18 159.335h-12.46v-6.73h13.43z" fill-rule="nonzero"/><path d="m76.685 155.95h-12.965v-6.73h13.9z" fill-rule="nonzero"/><path d="m77.15 152.605h-13.43v-6.735h14.365z" fill-rule="nonzero"/><path d="m77.62 149.22h-13.9v-6.695h14.87z" fill="#072967" fill-rule="nonzero"/><path d="m78.085 145.87h-14.365v-6.73h15.375z" fill="#052f6d" fill-rule="nonzero"/><path d="m78.59 142.525h-14.87v-3.96h.325l-.325-2.52v-.255h15.845z" fill="#073272" fill-rule="nonzero"/><path d="m79.095 139.14h-15.375v-.575h.325l-.325-2.52v-.29h-.035l-.36-2.95-.035-.395h16.775z" fill="#093878" fill-rule="nonzero"/><path d="m79.565 135.79h-15.845v-.035h-.035l-.36-2.95-.43-3.745h17.64z" fill="#083c7e" fill-rule="nonzero"/><path d="m80.065 132.41h-16.775l-.47-3.82-.32-2.915h18.54z" fill="#0d4183" fill-rule="nonzero"/><path d="m80.535 129.06h-17.64l-.075-.47-.5-4.175-.22-2.085h19.405z" fill="#0b4589" fill-rule="nonzero"/><path d="m81.04 125.675h-18.54l-.18-1.26-.47-4.175-.145-1.295h20.305z" fill="#07498e" fill-rule="nonzero"/><path d="m81.505 122.33h-19.405l-.25-2.09-.505-4.175-.035-.47h21.205z" fill="#044d94" fill-rule="nonzero"/><path d="m82.01 118.945h-20.305l-.36-2.88-.43-3.855h22.07z" fill="#095199" fill-rule="nonzero"/><path d="m82.515 115.595h-21.205l-.43-3.745-.36-2.985h22.965z" fill="#0456a0" fill-rule="nonzero"/><path d="m82.985 112.21h-22.07l-.035-.36-.505-4.175-.215-2.195h23.795z" fill="#0456a0" fill-rule="nonzero"/><path d="m83.485 108.865h-22.965l-.145-1.19-.47-4.21-.14-1.335h24.695z" fill="#0456a0" fill-rule="nonzero"/><path d="m83.955 105.48h-23.795l-.255-2.015-.465-4.175-.075-.505h25.6z" fill="#0456a0" fill-rule="nonzero"/><path d="m84.46 102.13h-24.695l-.325-2.84-.435-3.89h26.425z" fill="#0456a0" fill-rule="nonzero"/><path d="m84.965 98.785h-25.6l-.395-3.71-.325-2.985h27.29z" fill="#0456a0" fill-rule="nonzero"/><path d="m85.43 95.4h-26.425l-.035-.325-.47-4.175-.25-2.195h28.155z" fill="#0456a0" fill-rule="nonzero"/><path d="m85.935 92.09h-27.29l-.145-1.19-.465-4.175-.145-1.37h29.015z" fill="#0456a0" fill-rule="nonzero"/><path d="m86.405 88.705h-28.155l-.215-1.98-.435-4.215-.07-.54h29.845z" fill="#0456a0" fill-rule="nonzero"/><path d="m86.905 85.355h-29.015l-.29-2.845-.43-3.885h30.71z" fill="#0456a0" fill-rule="nonzero"/><path d="m87.375 81.97h-29.845l-.395-3.67-.325-3.06h31.57z" fill="#0456a0" fill-rule="nonzero"/><path d="m87.88 78.625h-30.71l-.035-.325-.43-4.21-.255-2.2h32.4z" fill="#0456a0" fill-rule="nonzero"/><path d="m88.38 75.24h-31.57l-.105-1.15-.47-4.25-.11-1.33h33.23z" fill="#0456a0" fill-rule="nonzero"/><path d="m88.85 71.89h-32.4l-.215-2.05-.43-4.21-.04-.47h34.06z" fill="#0456a0" fill-rule="nonzero"/><path d="m89.355 68.51h-33.23l-.32-2.88-.4-3.855h34.92z" fill="#0456a0" fill-rule="nonzero"/><path d="m89.825 65.16h-34.06l-.395-3.745-.285-2.985h35.71z" fill="#0456a0" fill-rule="nonzero"/><path d="m90.325 61.775h-34.92l-.035-.36-.43-4.245-.22-2.09h36.58z" fill="#0456a0" fill-rule="nonzero"/><path d="m90.795 58.43h-35.71l-.145-1.26-.435-4.215-.105-1.26h37.4z" fill="#0456a0" fill-rule="nonzero"/><path d="m91.3 55.08h-36.58l-.215-2.125-.395-4.245-.035-.36h38.195z" fill="#0456a0" fill-rule="nonzero"/><path d="m91.8 51.695h-37.4l-.29-2.985-.36-3.745h39.025z" fill="#0456a0" fill-rule="nonzero"/><path d="m92.27 48.35h-38.195l-.395-3.855-.255-2.88h38.735l.615 3.35z" fill="#0456a0" fill-rule="nonzero"/><path d="m92.775 44.965h-39.025l-.07-.47-.4-4.245-.18-2.02h38.45z" fill="#0456a0" fill-rule="nonzero"/><path d="m92.16 41.615h-38.735l-.145-1.365-.395-4.25-.105-1.115h38.16z" fill="#0457a2" fill-rule="nonzero"/><path d="m91.55 38.23h-38.45l-.215-2.23-.43-4.25v-.25h37.87z" fill="#0457a2" fill-rule="nonzero"/><path d="m90.94 34.885h-38.16l-.325-3.135-.325-3.6h37.62z" fill="#0457a2" fill-rule="nonzero"/><path d="m90.325 31.5h-37.87l-.36-3.995-.25-2.735h37.295z" fill="#0457a2" fill-rule="nonzero"/><path d="m89.75 28.15h-37.62l-.035-.645-.395-4.25-.18-1.835h37.005z" fill="#0457a2" fill-rule="nonzero"/><path d="m89.14 24.77h-37.295l-.145-1.515-.395-4.245-.075-.975h36.685z" fill="#0457a2" fill-rule="nonzero"/><path d="m88.525 21.42h-37.005l-.215-2.41-.4-4.25v-.07h36.395z" fill="#0457a2" fill-rule="nonzero"/><path d="m87.915 18.035h-36.685l-.325-3.275-.285-3.42h36.07z" fill="#0457a2" fill-rule="nonzero"/><path d="m87.3 14.69h-36.395l-.36-4.215-.215-2.52h35.785z" fill="#0457a2" fill-rule="nonzero"/><path d="m86.69 11.34h-36.07l-.075-.865-.36-4.245-.145-1.62h24.195l11.555 1.725z" fill="#0457a2" fill-rule="nonzero"/><path d="m86.115 7.955h-35.785l-.145-1.725-.145-1.62h24.195l11.555 1.725z" fill="#0058a3" fill-rule="nonzero"/><path d="m74.235 4.61h-24.195z" fill="#0058a3" fill-rule="nonzero"/><path d="m62.14 162.215-.9-.97.755-.36-2.23-5.435-1.695-4.215-1.655-4.21-1.62-4.25-1.55-4.245-1.545-4.25-.755-2.195.79.105 1.905.22 1.91.18 3.89.36 1.08.07v.11l.645 5.435h.975z" fill="#e6e7e8" fill-rule="nonzero"/><path d="m77.905 173.41 37.405-47.05c-8.46 15.5-18.36 29.305-30.13 41.075z" fill="#c8a473" fill-rule="nonzero"/><path d="m74.235 172.69 48.42-60.945c-9.975 21.565-22.155 40.355-37.475 55.69l-10.945 9.035z" fill="#c8a473" fill-rule="nonzero"/><path d="m115.31 126.36-37.405 47.05-3.67 3.06v-9.18l53.53-67.39c-3.658 9.044-7.816 17.878-12.455 26.46z" fill="#caa472" fill-rule="nonzero"/><path d="m122.655 111.745-48.42 60.945v-10.8l57.6-72.465c-2.843 7.717-5.903 15.157-9.18 22.32z" fill="#caa472" fill-rule="nonzero"/><path d="m127.765 99.9-53.53 67.39v-10.79l61-76.715c-2.355 6.905-4.805 13.635-7.47 20.115z" fill="#caa472" fill-rule="nonzero"/><path d="m131.835 89.425-57.6 72.465v-10.8l63.9-80.42c-1.98 6.44-4.07 12.67-6.3 18.755z" fill="#caa472" fill-rule="nonzero"/><path d="m135.22 79.775-60.985 76.725v-10.8l66.5-83.66c-1.733 6.04-3.572 11.952-5.515 17.735z" fill="#caa674" fill-rule="nonzero"/><path d="m138.135 70.67-63.9 80.42v-10.8l68.795-86.54c-1.55 5.76-3.182 11.4-4.895 16.92z" fill="#caa877" fill-rule="nonzero"/><path d="m140.725 62.03-66.5 83.66v-10.8l70.895-89.205c-1.405 5.58-2.845 11.015-4.395 16.345z" fill="#cdaa77" fill-rule="nonzero"/><path d="m143.03 53.75-68.795 86.54v-10.79l72.825-91.63c-1.295 5.4-2.625 10.66-4.03 15.88z" fill="#cfac7b" fill-rule="nonzero"/><path d="m145.12 45.685-70.885 89.205v-10.76l73.945-93c.395.395.25 1.26 0 2-.975 4.24-2.02 8.45-3.06 12.555z" fill="#cfae7b" fill-rule="nonzero"/><path d="m147.06 37.87-72.825 91.63v-10.77l70.055-88.165c1.08.105 2.195.215 3.31.285s.94 1.3.58 2.27c-.36 1.62-.76 3.205-1.12 4.75z" fill="#d1b17f" fill-rule="nonzero"/><path d="m148.18 31.105-73.945 93v-10.8l66.13-83.175c2.305.29 4.715.54 7.235.72.216.02.419.109.58.255z" fill="#d3b37f" fill-rule="nonzero"/><path d="m144.29 30.565-70.055 88.165v-10.8l62.315-78.43c2.45.45 5.04.81 7.74 1.065z" fill="#d3b581" fill-rule="nonzero"/><path d="m140.365 30.13-66.13 83.2v-10.8l58.645-73.8c2.375.575 4.86 1.005 7.485 1.4z" fill="#d5b784" fill-rule="nonzero"/><path d="m136.55 29.5-62.315 78.43v-10.8l55.08-69.3c2.265.67 4.715 1.22 7.235 1.67z" fill="#d8ba86" fill-rule="nonzero"/><path d="m132.88 28.73-58.645 73.8v-10.765l51.66-65c2.288.792 4.62 1.448 6.985 1.965z" fill="#d8bb88" fill-rule="nonzero"/><path d="m129.315 27.83-55.08 69.3v-10.765l48.385-60.915c2.179.934 4.415 1.729 6.695 2.38z" fill="#dabe8a" fill-rule="nonzero"/><path d="m125.895 26.75-51.66 65v-10.8l45.265-56.95c2.072 1.05 4.208 1.969 6.395 2.75z" fill="#dac08c" fill-rule="nonzero"/><path d="m122.62 25.45-48.385 60.915v-10.8l42.265-53.21c1.952 1.198 3.998 2.233 6.12 3.095z" fill="#dcc28f" fill-rule="nonzero"/><path d="m119.5 24-45.25 56.955v-10.8l39.44-49.655c1.843 1.315 3.786 2.485 5.81 3.5z" fill="#dfc591" fill-rule="nonzero"/><path d="m116.5 22.355-42.265 53.21v-10.8l36.865-46.405c1.682 1.485 3.488 2.821 5.4 3.995z" fill="#dfc793" fill-rule="nonzero"/><path d="m113.69 20.5-39.455 49.68v-10.8l34.415-43.38c1.542 1.648 3.228 3.154 5.04 4.5z" fill="#e1c995" fill-rule="nonzero"/><path d="m111.1 18.36-36.865 46.405v-10.8l32.22-40.575c1.375 1.811 2.931 3.476 4.645 4.97z" fill="#e3cc98" fill-rule="nonzero"/><path d="m108.65 16-34.415 43.345v-10.78l30.265-38.065c1.219 1.951 2.608 3.792 4.15 5.5z" fill="#e3ce9a" fill-rule="nonzero"/><path d="m106.455 13.39-32.22 40.575v-10.8l28.5-35.93c1.028 2.173 2.274 4.235 3.72 6.155z" fill="#e6d09d" fill-rule="nonzero"/><path d="m104.5 10.5-30.265 38.065v-10.8l27.07-34.095c.813 2.386 1.885 4.676 3.195 6.83z" fill="#e8d39f" fill-rule="nonzero"/><path d="m102.745 7.235-28.5 35.93v-10.765l25.695-32.4h.25c.617 2.488 1.473 4.911 2.555 7.235z" fill="#e8d5a2" fill-rule="nonzero"/><path d="m101.305 3.67-27.07 34.095v-10.765l21.42-27h4.535c.31 1.26.685 2.5 1.115 3.67z" fill="#ebd8a4" fill-rule="nonzero"/><path d="m99.94 0-25.705 32.4v-10.8l17.135-21.6z" fill="#eddaa7" fill-rule="nonzero"/><path d="m95.655 0-21.42 27v-10.8l12.815-16.2z" fill="#eddca9" fill-rule="nonzero"/><path d="m91.37 0-17.135 21.6v-10.8l8.53-10.8z" fill="#f0dfac" fill-rule="nonzero"/><path d="m87.05 0-12.815 16.2v-10.8l4.25-5.4z" fill="#f2e2af" fill-rule="nonzero"/><path d="m82.765 0-8.53 10.8v-10.8z" fill="#f2e4b1" fill-rule="nonzero"/><path d="m78.485 0-4.25 5.4v-5.4z" fill="#f7eab7" fill-rule="nonzero"/><path d="m74.235 172.8v-3.385h4.065z" fill-rule="nonzero"/><path d="m74.235 172.8v-6.73h8.17z" fill-rule="nonzero"/><path d="m78.3 169.415h-4.065v-6.73h10.37v1.295l-1.335 1.37z" fill-rule="nonzero"/><path d="m82.405 166.07h-8.17v-6.735h10.37v4.645l-1.335 1.37z" fill-rule="nonzero"/><path d="m74.235 155.95h10.37v6.73h-10.37z"/><path d="m74.235 152.605h10.37v6.73h-10.37z"/><path d="m74.235 149.255h10.37v6.695h-10.37z"/><path d="m74.235 145.87h10.37v6.73h-10.37z"/><path d="m74.235 142.525h10.37v6.73h-10.37z" fill="#072c68"/><path d="m74.235 139.14h10.37v6.73h-10.37z" fill="#10346f"/><g fill-rule="nonzero"><path d="m84.605 142.525h-10.37v-6.735h10.15l-.32 2.775h.54z" fill="#123d78"/><path d="m84.605 139.14h-10.37v-6.73h10.545l-.035.395-.68 5.76h.54z" fill="#1b4580"/><path d="m84.385 135.79h-10.15v-6.73h10.945l-.435 3.745z" fill="#1e4d89"/><path d="m84.78 132.41h-10.545v-6.735h11.375l-.36 2.915z" fill="#215692"/><path d="m85.18 129.06h-10.945v-6.73h11.77l-.25 2.085-.505 4.175z" fill="#295e9a"/><path d="m85.61 125.675h-11.375v-6.73h12.17l-.185 1.295-.465 4.175z" fill="#2d67a4"/><path d="m86.005 122.33h-11.77v-6.735h12.53l-.04.47-.505 4.175z" fill="#3471ae"/><path d="m86.405 118.945h-12.17v-6.735h12.925l-.435 3.855z" fill="#377bba"/><path d="m86.765 115.595h-12.53v-6.73h13.32l-.36 2.985z" fill="#3f85c5"/><path d="m87.16 112.21h-12.925v-6.695h13.715l-.25 2.16-.505 4.175z" fill="#3f85c5"/><path d="m87.555 108.865h-13.32v-6.735h14.075l-.145 1.335-.465 4.21z" fill="#3f85c5"/><path d="m87.95 105.515h-13.715v-6.73h14.47l-.07.505-.47 4.175z" fill="#3f85c5"/><path d="m88.31 102.13h-14.075v-6.73h14.83l-.43 3.89z" fill="#3f85c5"/><path d="m88.705 98.785h-14.47v-6.695h15.19l-.32 2.985z" fill="#3f85c5"/><path d="m89.065 95.4h-14.83v-6.695h15.59l-.255 2.195-.465 4.175z" fill="#3f85c5"/><path d="m89.425 92.09h-15.19v-6.735h15.95l-.145 1.37-.47 4.175z" fill="#3f85c5"/><path d="m89.825 88.705h-15.59v-6.735h16.31l-.075.54-.43 4.215z" fill="#3f85c5"/><path d="m90.185 85.355h-15.95v-6.73h16.67l-.325 3.025v.105l-.11.755z" fill="#3f85c5"/><path d="m90.545 81.97h-16.31v-6.73h17.03l-.325 3.06-.36 3.35v.105z" fill="#3f85c5"/><path d="m90.905 78.625h-16.67v-6.735h17.39l-.255 2.2-.43 4.21z" fill="#3f85c5"/><path d="m91.265 75.24h-17.03v-6.73h17.75l-.145 1.33-.47 4.25z" fill="#3f85c5"/><path d="m91.625 71.89h-17.39v-6.73h18.07l-.035.47-.43 4.21z" fill="#3f85c5"/><path d="m91.985 68.51h-17.75v-6.7h18.43l-.395 3.82z" fill="#3f85c5"/><path d="m92.305 65.16h-18.07v-6.73h18.755l-.285 2.985z" fill="#3f85c5"/><path d="m92.665 61.81h-18.43v-6.73h19.115l-.215 2.09-.43 4.245z" fill="#3f85c5"/><path d="m92.99 58.43h-18.755v-6.735h19.44l-.11 1.26-.43 4.215z" fill="#3f85c5"/><path d="m93.35 55.08h-19.115v-6.73h19.765l-.035.36-.4 4.245z" fill="#3f85c5"/><path d="m93.675 51.695h-19.44v-6.73h20.125l-.395 3.745z" fill="#3f85c5"/><path d="m94 48.35h-19.765v-6.735h20.45l-.29 2.88z" fill="#3f85c5"/><path d="m94.36 44.965h-20.125v-6.735h20.77l-.215 2.02-.395 4.245z" fill="#3f85c5"/><path d="m94.685 41.615h-20.45v-6.73h21.06l-.075 1.115-.43 4.25z" fill="#4087c7"/><path d="m95.005 38.23h-20.77v-6.73h21.385v.25l-.4 4.25z" fill="#4087c7"/><path d="m95.295 34.885h-21.06v-6.735h21.705l-.32 3.6z" fill="#4087c7"/><path d="m95.62 31.5h-21.385v-6.73h22.03l-.25 2.735z" fill="#4087c7"/><path d="m95.94 28.15h-21.705v-6.73h22.32l-.18 1.835-.36 4.25z" fill="#4087c7"/><path d="m96.265 24.77h-22.03v-6.735h22.645l-.11.975-.395 4.245z" fill="#4087c7"/><path d="m96.555 21.42h-22.32v-6.73h22.93v.07l-.395 4.25z" fill="#4087c7"/><path d="m96.88 18.035h-22.645v-6.695h23.22l-.29 3.42z" fill="#4087c7"/><path d="m97.165 14.69h-22.93v-6.735h23.51l-.22 2.52z" fill="#4087c7"/><path d="m97.455 11.34h-23.22v-6.73h23.795l-.145 1.62-.36 4.245z" fill="#4087c7"/><path d="m97.745 7.955h-23.51v-3.345h23.795l-.145 1.62z" fill="#4087c7"/><path d="m98.03 4.61h-23.795z" fill="#4087c7"/><path d="m54.615 81.47-.29-2.88-.465-4.215-.435-4.21-.43-4.25-.43-4.21-.325-3.205-1.26-.07-1.91-.145-1.905-.145-1.875-.145-1.87-.18-1.835-.145-1.805-.18-1.795-.18-1.805-.18-1.76-.215-1.73-.215-1.69-.18.645 3.53.865 4.5.935 4.46.94 4.43 1.005 4.465.395 1.8.215.035 1.765.215 1.73.18 1.765.18 5.4.54 1.835.145 1.87.145 1.91.145 1.905.14z" fill="#ed1c24"/><path d="m54.905 129.67h5.22l.035.47-.505-.035-1.91-.145-1.905-.18z" fill="#cc171e"/><path d="m50.87 129.24h9.18l.11.9-.505-.035-1.91-.145-1.905-.18-1.91-.18-1.87-.215z" fill="#cc171e"/><path d="m60.125 129.67h-5.22l-.975-.07-1.87-.215-1.84-.255-.32-.035-.11-.325h10.225v.18z" fill="#cc171e"/><path d="m60.05 129.24h-9.18l-.65-.11-.32-.035-.255-.79h10.3l.07.645z" fill="#ce181e"/><path d="m60.015 128.77h-10.225l-.29-.935h10.37z" fill="#ce181e"/><path d="m59.945 128.305h-10.3l-.325-.9h10.515z" fill="#d0181f"/><path d="m59.87 127.835h-10.37l-.32-.9h10.585z" fill="#d1181f"/><path d="m59.835 127.405h-10.515l-.285-.935h10.69z" fill="#d1181f"/><path d="m59.765 126.935h-10.585l-.325-.9h10.8z" fill="#d31820"/><path d="m59.725 126.47h-10.69l-.255-.72-.07-.18h10.91z" fill="#d31820"/><path d="m59.655 126.035h-10.8l-.075-.285-.215-.65h10.98z" fill="#d51920"/><path d="m59.62 125.57h-10.91l-.29-.94h11.09v.145z" fill="#d51920"/><path d="m59.545 125.1h-10.98l-.285-.9h11.16l.07.575z" fill="#d71920"/><path d="m59.51 124.63h-11.09l-.32-.9h11.305z" fill="#d91921"/><path d="m59.44 124.2h-11.16l-.325-.935h11.375z" fill="#d91921"/><path d="m59.405 123.73h-11.305l-.29-.9h11.485z" fill="#db1a21"/><path d="m59.33 123.265h-11.375l-.29-.9h11.555z" fill="#db1a21"/><path d="m59.295 122.83h-11.485l-.285-.935h11.66z" fill="#dd1a22"/><path d="m59.22 122.365h-11.555l-.285-.9-.035-.035h11.77z" fill="#dd1a22"/><path d="m59.185 121.895h-11.66l-.145-.43-.18-.47h11.88z" fill="#df1a22"/><path d="m59.115 121.43h-11.77l-.29-.9h11.95l.035.035z" fill="#e11b22"/><path d="m59.08 120.995h-11.88l-.29-.935h12.06l.07.505z" fill="#e11b22"/><path d="m59.005 120.53h-11.95l-.29-.94h12.135z" fill="#e31b22"/><path d="m58.97 120.06h-12.06l-.285-.9h12.235z" fill="#e31b22"/><path d="m58.9 119.59h-12.135l-.285-.9h12.345z" fill="#e51b23"/><path d="m58.86 119.16h-12.235l-.29-.935h12.42z" fill="#e51b23"/><path d="m58.825 118.69h-12.345l-.29-.9h12.53z" fill="#e51b23"/><path d="m58.755 118.225h-12.42l-.29-.9h12.6z" fill="#e51b23"/><path d="m58.72 117.79h-12.53l-.215-.645-.07-.29h12.705z" fill="#e51b23"/><path d="m58.645 117.325h-12.6l-.07-.18-.215-.755h12.78z" fill="#e51b23"/><path d="m58.61 116.855h-12.705l-.29-.9h12.885l.04.435z" fill="#e51b23"/><path d="m58.54 116.39h-12.78l-.29-.9h12.96z" fill="#e71c23"/><path d="m58.5 115.955h-12.885l-.29-.935h13.07z" fill="#e71c23"/><path d="m58.43 115.49h-12.96l-.29-.9h13.14z" fill="#e71c23"/><path d="m58.395 115.02h-13.07l-.285-.9h13.245z" fill="#e71c23"/><path d="m58.32 114.59h-13.14l-.285-.94h13.32z" fill="#e71c23"/><path d="m58.285 114.12h-13.245l-.255-.935h13.395z" fill="#e71c23"/><path d="m58.215 113.65h-13.32l-.255-.825v-.075h13.465z" fill="#e71c23"/><path d="m58.18 113.185h-13.395l-.145-.36-.14-.54h13.57z" fill="#e71c23"/><path d="m58.105 112.75h-13.465l-.285-.935h13.645l.07.36z" fill="#e71c23"/><path d="m58.07 112.285h-13.57l-.29-.9h13.75l.11.79z" fill="#e71c23"/><path d="m58 111.815h-13.645l-.29-.9h13.825z" fill="#ea1c24"/><path d="m57.96 111.385h-13.75l-.25-.935h13.895z" fill="#ea1c24"/><path d="m57.89 110.915h-13.825l-.25-.935h14.005z" fill="#ea1c24"/><path d="m57.855 110.45h-13.895l-.29-.9h14.075z" fill="#ea1c24"/><path d="m57.82 109.98h-14.005l-.29-.9h14.185z" fill="#ea1c24"/><path d="m57.745 109.55h-14.075l-.285-.94h13.245l1.01.075z" fill="#ea1c24"/><path d="m57.71 109.08h-14.185l-.18-.575-.07-.36h7.85l1.655.18 1.905.145 1.945.14 1.01.075z" fill="#ea1c24"/><path d="m56.63 108.61h-13.245l-.04-.105-.215-.795h3.635l.325.04 1.87.215 3.82.36 1.905.145z" fill="#ed1c24"/><path d="m51.125 108.145h-7.85l-.29-.9.435.07 1.835.215 1.835.22 1.87.215 1.91.18z" fill="#ed1c24"/><path d="m46.765 107.71h-3.635l-.145-.465.435.07 1.835.215z" fill="#ed1c24"/><path d="m87.915 130.14.07-.54 1.44.43-1.08.075z" fill="#cc171e"/><path d="m87.915 130.14.145-1.08 2.845.83-.65.07-1.91.145z" fill="#cc171e"/><path d="m89.425 130.03-1.44-.43.075-.65.035-.43 4.25 1.26h-.185l-1.905.18z" fill="#cc171e"/><path d="m90.905 129.89-2.845-.83v-.11l.105-.97 5.58 1.655-1.585.145z" fill="#ce181e"/><path d="m92.345 129.78-4.25-1.26.145-1.08 6.875 2.015-1.08.145z" fill="#ce181e"/><path d="m93.745 129.635-5.58-1.655.145-1.08 8.135 2.41-.54.075-1.87.215z" fill="#d0181f"/><path d="m95.115 129.455-6.875-2.015.14-1.08 9.4 2.77-1.875.255z" fill="#d1181f"/><path d="m96.445 129.31-8.135-2.41.11-1.08 9.86 2.915-.105.36-.395.035z" fill="#d1181f"/><path d="m97.78 129.13-9.4-2.77.11-1.08 9.975 2.95-.29.865z" fill="#d31820"/><path d="m98.28 128.735-9.86-2.915.145-1.045v-.035l10.075 2.99z" fill="#d31820"/><path d="m98.465 128.23-9.975-2.95.075-.505.07-.575 10.19 2.99z" fill="#d51920"/><path d="m98.64 127.73-10.075-2.99.14-1.08 10.26 3.025z" fill="#d51920"/><path d="m98.825 127.19-10.19-2.99.11-1.08 10.4 3.06z" fill="#d71920"/><path d="m98.965 126.685-10.26-3.025.11-1.08 10.51 3.095-.035.075z" fill="#d91921"/><path d="m99.145 126.18-10.4-3.06.14-1.08 10.62 3.13-.215.58z" fill="#d91921"/><path d="m99.325 125.675-10.51-3.095.145-1.115 10.69 3.205z" fill="#db1a21"/><path d="m99.505 125.17-10.62-3.13.11-1.115 10.835 3.24z" fill="#db1a21"/><path d="m99.65 124.67-10.69-3.205.105-.9v-.18l10.945 3.24z" fill="#dd1a22"/><path d="m99.83 124.165-10.835-3.24.07-.36.075-.72 11.015 3.275z" fill="#dd1a22"/><path d="m100.01 123.625-10.945-3.24.145-1.08 11.125 3.31z" fill="#df1a22"/><path d="m100.155 123.12-11.015-3.275.105-1.08 11.27 3.345z" fill="#e11b22"/><path d="m100.335 122.615-11.125-3.31.11-1.08 11.34 3.385z" fill="#e11b22"/><path d="m100.515 122.11-11.27-3.345.145-1.08 11.45 3.385-.11.395z" fill="#e31b22"/><path d="m100.66 121.61-11.34-3.385.145-1.08 11.52 3.42-.255.9z" fill="#e31b22"/><path d="m100.84 121.07-11.45-3.385.11-1.08 11.66 3.455z" fill="#e51b23"/><path d="m100.985 120.565-11.52-3.42.07-.755.035-.325 11.735 3.49z" fill="#e51b23"/><path d="m101.16 120.06-11.66-3.455.035-.215.105-.865 11.845 3.525z" fill="#e51b23"/><path d="m101.305 119.555-11.735-3.49.145-1.08 11.915 3.525z" fill="#e51b23"/><path d="m101.485 119.05-11.845-3.525.11-1.08 12.06 3.565z" fill="#e51b23"/><path d="m101.63 118.51-11.915-3.525.11-1.08 12.165 3.6z" fill="#e51b23"/><path d="m101.81 118.01-12.06-3.565.145-1.08 12.24 3.635-.035.145z" fill="#e51b23"/><path d="m101.99 117.505-12.165-3.6.14-1.08 12.315 3.67-.18.65z" fill="#e71c23"/><path d="m102.135 117-12.24-3.635.105-1.08 12.46 3.67z" fill="#e71c23"/><path d="m102.28 116.495-12.315-3.67.075-.65.035-.43 12.53 3.705z" fill="#e71c23"/><path d="m102.46 115.955-12.46-3.67.04-.11.105-.97 12.635 3.745z" fill="#e71c23"/><path d="m102.605 115.45-12.53-3.705.11-1.08 12.74 3.78z" fill="#e71c23"/><path d="m102.78 114.95-12.635-3.745.11-1.08 12.815 3.78z" fill="#e71c23"/><path d="m102.925 114.445-12.74-3.78.14-1.08 12.925 3.815z" fill="#e71c23"/><path d="m103.07 113.905-12.815-3.78.145-1.08 12.995 3.85z" fill="#e71c23"/><path d="m103.25 113.4-12.925-3.815.11-.9.54-.035 12.6 3.74-.145.435z" fill="#e71c23"/><path d="m103.395 112.895-12.995-3.85.035-.36.9-.075 1.15-.07 11.235 3.31-.29.975z" fill="#e71c23"/><path d="m103.575 112.39-12.6-3.74.36-.04 1.945-.14.685-.04 9.895 2.92z" fill="#ea1c24"/><path d="m103.72 111.85-11.235-3.31.795-.07 1.905-.145.255-.035 8.565 2.555z" fill="#ea1c24"/><path d="m103.86 111.35-9.895-2.92 1.22-.105 1.695-.18 7.305 2.16z" fill="#ea1c24"/><path d="m104.005 110.845-8.565-2.555 1.655-.145 1.185-.145 6.05 1.8z" fill="#ea1c24"/><path d="m104.185 110.305-7.305-2.16h.215l1.905-.18.685-.11 4.79 1.44z" fill="#ea1c24"/><path d="m104.33 109.8-6.05-1.8.72-.035 1.875-.215.18-.04 3.6 1.08z" fill="#ea1c24"/><path d="m104.475 109.295-4.79-1.44 1.19-.105 1.545-.18 2.38.68-.075.255v.035z" fill="#ea1c24"/><path d="m104.655 108.79-3.6-1.08 1.655-.18 1.045-.14 1.185.36-.215.755-.035.035z" fill="#ed1c24"/><path d="m104.8 108.25-2.38-.68.29-.04 1.835-.215.54-.07z" fill="#ed1c24"/><path d="m104.94 107.75-1.185-.36.79-.075.54-.07z" fill="#ed1c24"/><path d="m95.835 58.5-.325 3.205-.43 4.21-.435 4.25-.43 4.21-.47 4.215-.285 2.88.36-.04 1.905-.14 1.91-.145 1.835-.145 1.875-.145 1.795-.18 1.8-.18 1.805-.18 1.76-.18 1.73-.18 1.73-.215.32-.035.435-1.8.97-4.465.935-4.43.94-4.46.86-4.5.65-3.565-.035.035-1.73.18-1.73.215-1.76.215-5.4.54-1.84.145-1.87.18-1.87.145-3.82.29z" fill="#ed1c24"/><path d="m51.95 55.62-.25-2.375-.435-4.25-.395-4.245-.43-4.215-.4-4.245-.395-4.25-.105-1.045-1.045-.07-1.945-.11-1.91-.145-1.87-.18-1.835-.14-3.67-.36-1.805-.18-1.76-.18-1.765-.18-1.765-.22-1.69-.215-1.73-.215h-.07l.505 4.03.645 4.575.685 4.57.755 4.535.755 4.54.435 2.555.865.105 1.69.18 1.725.22 3.53.36 1.765.215 1.8.145 1.835.18 1.835.14 1.875.145 1.87.145 1.91.145z" fill="#fff"/><path d="m98.535 30.995-.11 1.045-.395 4.25-.395 4.245-.43 4.215-.4 4.245-.43 4.25-.25 2.375.72-.035 1.905-.145 1.875-.145 1.87-.145 1.835-.14 1.835-.18 1.8-.145 1.765-.215 3.53-.36 1.725-.22 1.695-.18.935-.14.43-2.52.795-4.54.72-4.535.685-4.57.645-4.575.54-4.03h-.18l-1.73.215-1.725.215-1.73.22-1.765.18-1.76.18-1.8.18-1.835.18-1.84.18-1.835.14-1.87.18-1.91.145-1.945.11z" fill="#fff"/><path d="m138.46 59.58.9-6.48.36-.07.61-.11-1.365 4.93z" fill="#e0e1e2"/><path d="m139.97 52.99-.36 2.52-.645 2.34-1.405 4.9-.215.72 1.435-10.26.94-.18z" fill="#e4e5e6"/><path d="m139.36 53.1-.9 6.48-.9 3.17-1.3 4.32 1.945-13.79z" fill="#e6e7e8"/><path d="m138.78 53.21-1.435 10.26-1.225 4.1-.9 2.92 2.375-17.1.575-.075z" fill="#e9e9ea"/><path d="m138.205 53.28-1.945 13.79-.14.5-1.475 4.79-.435 1.37 2.81-20.235 1.15-.18z" fill="#ebebec"/><path d="m137.595 53.39-2.375 17.1-.575 1.87-1.37 4.25h-.035l3.2-23.005.185-.035z" fill="#efeff0"/><path d="m137.02 53.495-2.81 20.235-.935 2.88h-.145l-.47.105 3.17-23.005.795-.14z" fill="#f1f2f2"/><path d="m136.44 53.605-3.2 23.005h-.11l-1.08.215 3.205-23.005z" fill="#f3f4f4"/><path d="m135.83 53.71-3.17 23.005-1.075.18h-.11l3.205-23.005.395-.035z" fill="#f6f6f6"/><path d="m135.255 53.82-3.205 23.005-.465.07-.685.11 3.165-23.005 1.01-.145z" fill="#f8f8f9"/><path d="m134.68 53.89-3.205 23.005-1.19.215 3.205-23z" fill="#fff"/><path d="m134.065 54-3.165 23.005-.9.145-.29.07 3.205-23.005.575-.105z" fill="#fff"/><path d="m133.49 54.11-3.205 23-.285.04-.865.14 3.17-23z" fill="#fff"/><path d="m132.915 54.215-3.205 23.005-1.185.18 3.2-23.005.18-.035z" fill="#fff"/><path d="m132.305 54.29-3.17 23-.685.11-.505.11 3.205-23.005.755-.145z" fill="#fff"/><path d="m131.725 54.395-3.2 23.005h-.075l-1.08.18 3.17-23.005z" fill="#fff"/><path d="m131.15 54.505-3.205 23.005-1.08.14-.105.04 3.205-23.005.32-.075z" fill="#fff"/><path d="m130.54 54.575-3.17 23.005-.505.07-.68.11 3.2-23.005.9-.145z" fill="#fff"/><path d="m129.965 54.685-3.205 23.005-1.155.18 3.17-23.005z" fill="#fff"/><path d="m129.385 54.755-3.2 23.005-.94.145-.25.07 3.205-23.04.5-.07z" fill="#fff"/><path d="m128.775 54.865-3.17 23.005-.36.035-.825.145 3.205-23.005 1.075-.18z" fill="#fff"/><path d="m128.2 54.935-3.205 23.04-1.15.18 3.2-23.04z" fill="#fff"/><path d="m127.625 55.045-3.205 23.005-.795.105-.395.075 3.205-23.005.61-.11z" fill="#fff"/><path d="m127.045 55.115-3.2 23.04h-.22l-.97.145 3.205-23.005z" fill="#fff"/><path d="m126.435 55.225-3.205 23.005-1.15.18 3.2-23.005.145-.035z" fill="#fff"/><path d="m125.86 55.295-3.205 23.005-.65.11-.505.07 3.17-23.005.755-.105z" fill="#fff"/><path d="m125.28 55.405-3.2 23.005h-.075l-1.115.18 3.205-23.04z" fill="#fff"/><path d="m124.67 55.475-3.17 23.005-1.115.18h-.07l3.205-23.005.25-.035z" fill="#fff"/><path d="m124.095 55.55-3.205 23.04-.505.07-.645.07 3.2-23 .83-.11z" fill="#fff"/><path d="m123.52 55.655-3.205 23.005-1.155.145 3.17-23.005z" fill="#fff"/><path d="m122.94 55.73-3.2 23-1.01.145-.18.035 3.205-23 .36-.075z" fill="#fff"/><path d="m122.33 55.8-3.17 23.005-.43.07-.755.11 3.205-23.005.935-.145z" fill="#fff"/><path d="m121.755 55.91-3.205 23-1.15.145 3.205-23.005z" fill="#fff"/><path d="m121.18 55.98-3.205 23.005-.9.105-.29.04 3.095-22.105.145-.9.395-.035z" fill="#fff"/><path d="m120.605 56.05-3.205 23.005-.325.035-.865.11 1.655-11.77.47-2.34.865-4.5.825-4.465.395-.035z" fill="#fff"/><path d="m119.88 57.025-3.095 22.105-1.15.18.575-4.07.255-1.19.97-4.46.9-4.5.865-4.5z" fill="#fff"/><path d="m117.865 67.43-1.655 11.77-.83.11-.105.035.18-.83 1.01-4.465.97-4.46z" fill="#fff"/><path d="m116.21 75.24-.575 4.07h-.255l-.105.035.18-.83z" fill="#fff"/><path d="m8.14 52.99.145.04.97.18 4.97 20.555-.435-1.405-1.51-4.79-1.405-4.82-1.405-4.9z" fill="#ebebec"/><path d="m11.305 64.19-2.7-11.125 1.225.25h.07l5.69 23.435-.43-.07-1.37-4.32-1.51-4.79z" fill="#efeff0"/><path d="m14.225 73.765-4.97-20.555.575.105.72.11 5.69 23.435-1.08-.18z" fill="#f1f2f2"/><path d="m15.59 76.75-5.69-23.435 1.3.215 5.685 23.44-.465-.075z" fill="#f3f4f4"/><path d="m16.24 76.86-5.69-23.435.83.145.465.07 5.69 23.435-1.115-.18z" fill="#f6f6f6"/><path d="m16.885 76.97-5.685-23.44.18.04 1.115.18 5.69 23.435-.22-.035z" fill="#f8f8f9"/><path d="m17.535 77.075-5.69-23.435 1.08.215.22.035 5.65 23.4-.83-.14z" fill="#fff"/><path d="m18.185 77.185-5.69-23.435.43.105.865.145 5.65 23.4z" fill="#fff"/><path d="m18.795 77.29-5.65-23.4 1.295.22 5.65 23.4-.54-.11z" fill="#fff"/><path d="m19.44 77.4-5.65-23.4.72.11.575.105 5.655 23.4-1.19-.215z" fill="#fff"/><path d="m20.09 77.51-5.65-23.4h.07l1.225.215 5.65 23.4-.25-.075z" fill="#fff"/><path d="m20.74 77.615-5.655-23.4 1.01.145.29.035 5.65 23.4-.9-.145z" fill="#fff"/><path d="m21.385 77.725-5.65-23.4.36.035.935.145 5.655 23.4z" fill="#fff"/><path d="m22.035 77.795-5.65-23.4 1.295.215 5.65 23.4-.575-.105z" fill="#fff"/><path d="m22.685 77.905-5.655-23.4.685.105.61.11 5.655 23.4-1.225-.215z" fill="#fff"/><path d="m23.33 78.01-5.65-23.4h.035l1.26.22 5.65 23.36-.25-.035z" fill="#fff"/><path d="m23.98 78.12-5.655-23.4.975.145.285.07 5.69 23.365-.9-.145z" fill="#fff"/><path d="m24.625 78.19-5.65-23.36.325.035.935.145 5.685 23.4z" fill="#fff"/><path d="m25.275 78.3-5.69-23.365 1.3.18 5.685 23.365-.575-.07z" fill="#fff"/><path d="m25.92 78.41-5.685-23.4.685.105.61.11 5.69 23.365-1.225-.18z" fill="#fff"/><path d="m26.57 78.48-5.685-23.365h.035l1.26.18 5.65 23.4-.215-.035z" fill="#fff"/><path d="m27.22 78.59-5.69-23.365 1.045.145.25.035 5.655 23.365-.865-.11z" fill="#fff"/><path d="m27.83 78.695-5.65-23.4.395.075.9.14 5.65 23.365z" fill="#fff"/><path d="m28.48 78.77-5.655-23.365 1.295.18 5.655 23.365-.505-.075z" fill="#fff"/><path d="m29.125 78.875-5.65-23.365.755.11.54.07 5.65 23.33-1.15-.145z" fill="#fff"/><path d="m29.775 78.95-5.655-23.365.11.035 1.155.145 5.685 23.365-.145-.04z" fill="#fff"/><path d="m30.42 79.02-5.65-23.33 1.115.145.145.035 5.69 23.33-.795-.11z" fill="#fff"/><path d="m31.07 79.13-5.685-23.365.5.07.795.11 5.65 23.325z" fill="#fff"/><path d="m31.72 79.2-5.69-23.33 1.295.18 3.71 15.265.575 2.735 1.01 4.465.18.83-.18-.035z" fill="#fff"/><path d="m32.33 79.27-5.65-23.325.865.145.43.035.285 1.185.615 3.28.865 4.5.935 4.5.935 4.46 1.01 4.465.18.83-.18-.035z" fill="#fff"/><path d="m31.035 71.315-3.71-15.265.22.04.5.035.83 4.465.865 4.5.935 4.5z" fill="#fff"/><path d="m28.26 57.31-.285-1.185h.07z" fill="#fff"/><path d="m93.135 84.31-.29 2.7-.465 4.215-.47 4.175-.47 4.21-.465 4.18-.215 2.015h.395l1.91-.145 1.905-.18 1.875-.18 1.87-.18 1.835-.18 1.835-.215 1.8-.255 1.765-.215.035-.07 1.19-4.355 1.185-4.395 1.155-4.32 1.115-4.39.975-4.07-1.045.11-1.765.18-1.765.215-3.6.36-1.835.145-1.875.18-1.87.145-1.91.14-1.905.145z" fill="#fff"/><path d="m57.315 105.84-.215-2.05-.47-4.18-.465-4.21-.47-4.175-.47-4.215-.285-2.7-.975-.07-1.905-.11-1.91-.14-1.87-.145-1.875-.18-1.835-.145-3.6-.36-1.765-.215-1.76-.18-.975-.11 1.01 4.07 1.08 4.39 1.15 4.32 1.19 4.395 1.185 4.355.04.07 1.655.215 1.8.255 1.835.215 1.87.18 1.84.18 1.905.18 1.875.18 1.905.145z" fill="#fff"/><path d="m26.28 104.58.725 2.99-1.37-3.1.395.075z" fill="#ebebec"/><path d="m25.815 104.83-.11-.36.325.075.83.145 1.295 5.435-.9-2.015z" fill="#efeff0"/><path d="m27.005 107.57-.725-2.99 1.12.215 1.905 7.775-.14-.285-1.91-4.175z" fill="#f1f2f2"/><path d="m28.155 110.125-1.295-5.435.825.14.29.075 2.41 9.935-1.22-2.555z" fill="#f3f4f4"/><path d="m29.305 112.57-1.905-7.775.285.035.865.145 2.915 12.06-.36-.685z" fill="#f6f6f6"/><path d="m30.385 114.84-2.41-9.935 1.15.18 3.385 14.04-1.405-2.775z" fill="#f8f8f9"/><path d="m31.465 117.035-2.915-12.06.83.18.285.035 3.855 15.915-.36-.72z" fill="#fff"/><path d="m32.51 119.125-3.385-14.04.255.07.86.145 4.285 17.71-1.365-2.625z" fill="#fff"/><path d="m33.52 121.105-3.855-15.915 1.155.22 4.68 19.44-.29-.54z" fill="#fff"/><path d="m34.525 123.01-4.285-17.71.83.145.29.035 5.11 21.095-1.26-2.265z" fill="#fff"/><path d="m35.5 124.85-4.68-19.44.25.035.865.145 5.185 21.455-.435-.11z" fill="#fff"/><path d="m36.47 126.575-5.11-21.095 1.115.215 5.22 21.455-.11-.035-.9-.18z" fill="#fff"/><path d="m37.12 127.045-5.185-21.455.83.14.285.04 5.22 21.455-.685-.11z" fill="#fff"/><path d="m37.695 127.15-5.22-21.455.29.035.86.145 5.185 21.455z" fill="#fff"/><path d="m38.27 127.225-5.22-21.455 1.115.18 5.22 21.49h-.035z" fill="#fff"/><path d="m38.81 127.33-5.185-21.455.865.145.25.035 5.22 21.495-.61-.11z" fill="#fff"/><path d="m39.385 127.44-5.22-21.49.325.07.83.11 5.18 21.525z" fill="#fff"/><path d="m39.96 127.55-5.22-21.495 1.12.18 5.22 21.53z" fill="#fff"/><path d="m40.5 127.655-5.18-21.525.935.14.18.04 5.22 21.525-.54-.07z" fill="#fff"/><path d="m41.08 127.765-5.22-21.53.395.035.72.11 5.22 21.565-1.08-.18z" fill="#fff"/><path d="m41.655 127.835-5.22-21.525 1.115.18 5.22 21.56z" fill="#fff"/><path d="m42.195 127.945-5.22-21.565 1.045.18h.07l5.255 21.565-.43-.075z" fill="#fff"/><path d="m42.77 128.05-5.22-21.56.47.07.645.07 5.22 21.6-.97-.18z" fill="#fff"/><path d="m43.345 128.125-5.255-21.565 1.15.18 5.22 21.565z" fill="#fff"/><path d="m43.885 128.23-5.22-21.6 1.115.18 5.22 21.6-.285-.07z" fill="#fff"/><path d="m44.46 128.305-5.22-21.565.54.07h.145l.72 2.485 1.3 4.355.18.615 3.455 14.22-.865-.145z" fill="#fff"/><path d="m45 128.41-5.22-21.6h.145l.72 2.485 1.3 4.355 1.33 4.36 1.225 3.78 1.655 6.765z" fill="#fff"/><path d="m45.58 128.485-3.455-14.22 1.15 3.745 2.81 8.64.43 1.26.18.755-.145-.035z" fill="#fff"/><path d="m46.155 128.555-1.655-6.765.18.54 1.405 4.32.68 2.015-.215-.035z" fill="#fff"/><path d="m46.695 128.665-.18-.755.25.755z" fill="#fff"/><path d="m121.935 106.415.25-1.945.65-.105z" fill="#e0e1e2"/><path d="m122.69 104.4-.035.36-1.44 3.31.47-3.49.285-.035z" fill="#e4e5e6"/><path d="m122.185 104.47-.25 1.945-.755 1.695-.685 1.51.685-4.93.79-.145z" fill="#e6e7e8"/><path d="m121.685 104.58-.47 3.49-.035.04-1.405 3.06.9-6.41z" fill="#e9e9ea"/><path d="m121.18 104.69-.685 4.93-1.225 2.665-.215.43 1.08-7.845.18-.04z" fill="#ebebec"/><path d="m120.675 104.76-.9 6.41-.505 1.115-.9 1.87 1.26-9.215.685-.11z" fill="#efeff0"/><path d="m120.135 104.87-1.08 7.845-1.405 2.88 1.475-10.545z" fill="#f1f2f2"/><path d="m119.63 104.94-1.26 9.215-1.08 2.195-.325.685 1.66-11.88z" fill="#f3f4f4"/><path d="m119.125 105.05-1.475 10.545-.36.755-1.01 2.02 1.84-13.14.505-.075z" fill="#f6f6f6"/><path d="m118.625 105.155-1.66 11.88-1.365 2.7 2.015-14.4z" fill="#f8f8f9"/><path d="m118.12 105.23-1.84 13.14-1.005 2.015-.36.685 2.16-15.66z" fill="#fff"/><path d="m117.615 105.335-2.015 14.4-.325.65-1.045 1.945 2.34-16.85.36-.035z" fill="#fff"/><path d="m117.075 105.41-2.16 15.66-1.335 2.555 2.485-18.035.865-.145z" fill="#fff"/><path d="m116.57 105.48-2.34 16.85-1.33 2.52 2.665-19.19z" fill="#fff"/><path d="m116.065 105.59-2.485 18.035-.395.685-.97 1.76 2.845-20.3.145-.04z" fill="#fff"/><path d="m115.565 105.66-2.665 19.19-1.12 2.015-.175.035 2.95-21.06.65-.11z" fill="#fff"/><path d="m115.06 105.77-2.845 20.3-.435.795-.68.105 2.95-21.06z" fill="#fff"/><path d="m114.555 105.84-2.95 21.06-1.01.18 2.915-21.06z" fill="#fff"/><path d="m114.05 105.91-2.95 21.06-.72.145-.29.075 2.915-21.1.47-.07z" fill="#fff"/><path d="m113.51 106.02-2.915 21.06-.215.035-.795.145 2.915-21.095.975-.145z" fill="#fff"/><path d="m113.005 106.09-2.915 21.1-1.045.18 2.955-21.135z" fill="#fff"/><path d="m112.5 106.165-2.915 21.095-.935.18-.105.035 2.95-21.165.215-.04z" fill="#fff"/><path d="m112 106.235-2.955 21.135-.395.07-.61.11 2.95-21.135.72-.145z" fill="#fff"/><path d="m111.495 106.31-2.95 21.165-1.01.18 2.95-21.165z" fill="#fff"/><path d="m110.99 106.415-2.95 21.135-1.01.18 2.915-21.17z" fill="#fff"/><path d="m110.485 106.49-2.95 21.165-.685.11-.325.07 2.915-21.205.505-.07z" fill="#fff"/><path d="m109.945 106.56-2.915 21.17-.18.035-.865.145 2.955-21.205z" fill="#fff"/><path d="m109.44 106.63-2.915 21.205-1.04.145 2.95-21.205z" fill="#fff"/><path d="m108.94 106.705-2.955 21.205-.9.14-.105.04 2.735-19.8.43-1.48h.04z" fill="#fff"/><path d="m108.435 106.775-2.95 21.205-.4.07-.61.11 2.305-16.705.645-2.16.72-2.485h.04z" fill="#fff"/><path d="m107.715 108.29-2.735 19.8-1.01.14 1.91-13.715.25-.865 1.295-4.355z" fill="#fff"/><path d="m106.78 111.455-2.305 16.705-1.01.18 1.515-10.91 1.15-3.78z" fill="#fff"/><path d="m105.88 114.515-1.91 13.715-.685.11-.32.07 1.115-8.205.72-2.195z" fill="#fff"/><path d="m104.98 117.43-1.515 10.91h-.18l-.865.145.795-5.545.215-.61 1.37-4.32z" fill="#fff"/><path d="m104.08 120.205-1.115 8.205-1.045.145.43-2.985 1.08-3.24z" fill="#fff"/><path d="m103.215 122.94-.795 5.545-.97.145h-.035l.07-.54.505-1.44z" fill="#fff"/><path d="m102.35 125.57-.43 2.985-.47.075-.145.035.685-2.015z" fill="#fff"/><path d="m101.485 128.09-.07.54-.11.035z" fill="#fff"/><path d="m131.22 82.73.185-2.955.645-.105.215-.04-.68 2.055z" fill="#d0181f"/><path d="m131.905 79.705-.07 1.225-.25.755-.975 2.77.29-4.57z" fill="#d1181f"/><path d="m131.405 79.775-.185 2.955-1.255 3.49.43-6.265h.07z" fill="#d1181f"/><path d="m130.9 79.885-.29 4.57-.645 1.835-.615 1.62.54-7.845.575-.11z" fill="#d31820"/><path d="m130.395 79.955-.43 6.265v.07l-1.225 3.28.645-9.435z" fill="#d51920"/><path d="m129.89 80.065-.54 7.845-1.045 2.88-.18.4.755-10.98z" fill="#d71920"/><path d="m129.385 80.135-.645 9.435-.435 1.22-.755 1.98.83-12.49.5-.07z" fill="#d71920"/><path d="m128.88 80.21-.755 10.98-1.185 3.13.935-13.93z" fill="#d91921"/><path d="m128.38 80.28-.83 12.49-.935 2.415-.29.685 1.045-15.41z" fill="#db1a21"/><path d="m127.875 80.39-.935 13.93-.325.865-.9 2.195 1.15-16.85.435-.07z" fill="#dd1a22"/><path d="m127.37 80.46-1.045 15.41-1.185 2.985 1.22-18.25.94-.145z" fill="#dd1a22"/><path d="m126.865 80.53-1.15 16.85-.865 2.195-.325.755 1.335-19.655z" fill="#df1a22"/><path d="m126.36 80.605-1.22 18.25-.29.72-.72 1.655-.145.04 1.37-20.485.325-.075z" fill="#e11b22"/><path d="m125.86 80.675-1.335 19.655-.395.9-.685.145 1.405-20.52.83-.145z" fill="#e31b22"/><path d="m125.355 80.785-1.37 20.485-.9.18h-.145l1.405-20.52z" fill="#e31b22"/><path d="m124.85 80.855-1.405 20.52-.36.075-.645.105 1.405-20.555.215-.035z" fill="#e51b23"/><path d="m124.345 80.93-1.405 20.52-1.005.215 1.405-20.595.72-.105z" fill="#e51b23"/><path d="m123.845 81-1.405 20.555-1.01.18 1.44-20.59z" fill="#e51b23"/><path d="m123.34 81.07-1.405 20.595-.505.07-.505.11 1.44-20.63h.075z" fill="#e51b23"/><path d="m122.87 81.145-1.44 20.59-1.01.18 1.44-20.625.58-.075z" fill="#e51b23"/><path d="m122.365 81.215-1.44 20.63-1.005.18 1.44-20.665z" fill="#e51b23"/><path d="m121.86 81.29-1.44 20.625-.645.145-.36.07 1.44-20.7z" fill="#e51b23"/><path d="m121.36 81.36-1.44 20.665-.145.035-.865.145 1.44-20.7.43-.035z" fill="#e51b23"/><path d="m120.855 81.43-1.44 20.7-1.01.18 1.44-20.735.935-.105z" fill="#e71c23"/><path d="m120.35 81.505-1.44 20.7-.79.145-.215.035 1.44-20.735z" fill="#e71c23"/><path d="m119.845 81.575-1.44 20.735-.285.04-.72.105 1.44-20.735.285-.035z" fill="#e71c23"/><path d="m119.345 81.65-1.44 20.735-1.01.18 1.44-20.775.79-.105z" fill="#e71c23"/><path d="m118.84 81.72-1.44 20.735-.975.18h-.035l1.44-20.77z" fill="#e71c23"/><path d="m118.335 81.79-1.44 20.775-.47.07-.54.11 1.44-20.81.11-.035z" fill="#e71c23"/><path d="m117.83 81.865-1.44 20.77-1.01.18 1.445-20.805.61-.11z" fill="#e71c23"/><path d="m117.325 81.935-1.44 20.81-1.005.145 1.44-20.845z" fill="#e71c23"/><path d="m116.825 82.01-1.445 20.805-.645.11-.36.07 1.44-20.88z" fill="#e71c23"/><path d="m116.32 82.045-1.44 20.845-.145.035-.865.145 1.44-20.88.435-.04z" fill="#e71c23"/><path d="m115.815 82.115-1.44 20.88-1.01.145 1.44-20.88.94-.11z" fill="#e71c23"/><path d="m115.31 82.19-1.44 20.88-.825.14-.185.04 1.335-19.3.25-1.005.145-.65z" fill="#e71c23"/><path d="m114.805 82.26-1.44 20.88-.32.07-.685.11 1.15-16.49.935-3.885.145-.65z" fill="#ea1c24"/><path d="m114.195 83.95-1.335 19.3-.97.14.935-13.82.54-2.16z" fill="#ea1c24"/><path d="m113.51 86.83-1.15 16.49-.975.145.755-11.195.11-.47 1.115-4.39z" fill="#ea1c24"/><path d="m112.825 89.57-.935 13.82-.61.11-.4.035.58-8.71.79-3.025z" fill="#ea1c24"/><path d="m112.14 92.27-.755 11.195-.105.035-.9.11.395-6.23.325-1.19z" fill="#ea1c24"/><path d="m111.46 94.825-.58 8.71-1.005.18.25-3.885.975-3.64z" fill="#ea1c24"/><path d="m110.775 97.38-.395 6.23-.83.14-.18.04.11-1.585.43-1.62z" fill="#ea1c24"/><path d="m110.125 99.83-.25 3.885-.325.035-.54.075.9-3.24z" fill="#ea1c24"/><path d="m109.48 102.205-.11 1.585-.36.035z" fill="#ed1c24"/><path d="m144.94 34.45-1.225-1.08 1.19.11.25.035z" fill="#d0181f"/><path d="m144.865 33.48.255.215-.36 1.515-2.195-1.945z" fill="#d1181f"/><path d="m143.715 33.37 1.225 1.08-.36 1.55-3.24-2.915 1.115.145z" fill="#d1181f"/><path d="m142.565 33.265 2.195 1.945-.36 1.545-4.25-3.815 2.305.29z" fill="#d31820"/><path d="m141.34 33.085 3.24 2.915-.36 1.51-5.295-4.75 1.155.18z" fill="#d31820"/><path d="m140.15 32.94 4.25 3.815-.215.935-.145.58-6.375-5.69h.075l2.34.36z" fill="#d51920"/><path d="m138.925 32.76 5.295 4.75-.035.18-.325 1.335-7.49-6.66 1.37.215z" fill="#d51920"/><path d="m137.665 32.58 6.375 5.69-.36 1.51-8.605-7.67.395.075z" fill="#d71920"/><path d="m136.37 32.365 7.49 6.66-.36 1.51-9.755-8.71 1.725.36z" fill="#d91921"/><path d="m135.075 32.11 8.605 7.67-.36 1.51-10.945-9.755.865.215z" fill="#d91921"/><path d="m133.745 31.825 9.755 8.71-.36 1.515-12.17-10.84.11.04 2.16.5z" fill="#db1a21"/><path d="m132.375 31.535 10.945 9.755-.395 1.515-13.43-11.99 1.585.435z" fill="#db1a21"/><path d="m130.97 31.21 12.17 10.84-.215.755-.18.72-14.76-13.14 1.005.285z" fill="#dd1a22"/><path d="m129.495 30.815 13.43 11.99-.36 1.475-16.165-14.4.54.18 2.05.61z" fill="#dd1a22"/><path d="m127.985 30.385 14.76 13.14-.365 1.51-17.635-15.695.215.07 1.98.65z" fill="#df1a22"/><path d="m126.4 29.88 16.165 14.4-.4 1.51-18-16.055.075-.575.72.25z" fill="#e11b22"/><path d="m124.745 29.34 17.635 15.695-.395 1.515-17.925-15.985.18-1.405z" fill="#e11b22"/><path d="m124.165 29.735 18 16.055-.36 1.515-17.855-15.95z" fill="#e31b22"/><path d="m124.06 30.565 17.925 15.985-.325 1.33-.07.145-17.745-15.84z" fill="#e31b22"/><path d="m123.95 31.355 17.855 15.95-.145.575-.25.9-17.71-15.77z" fill="#e51b23"/><path d="m123.845 32.185 17.745 15.84-.36 1.51-17.64-15.695.11-.61z" fill="#e51b23"/><path d="m123.7 33.01 17.71 15.77-.285 1.115-.365.075h-.07l-17.205-15.3.215-1.44z" fill="#e51b23"/><path d="m123.59 33.84 17.64 15.695-.105.36-.365.075-.935.14-16.45-14.65z" fill="#e51b23"/><path d="m123.485 34.67 17.205 15.3-1.475.25-.25.07-15.7-14z" fill="#e51b23"/><path d="m123.375 35.46 16.45 14.65-.61.11-1.115.215-14.975-13.32z" fill="#e51b23"/><path d="m123.265 36.29 15.7 14-1.265.22-.465.07-14.22-12.67.035-.11z" fill="#e51b23"/><path d="m123.125 37.115 14.975 13.32-.4.075-1.33.215-13.465-11.99.145-.935z" fill="#e71c23"/><path d="m123.015 37.91 14.22 12.67-1.08.215-.65.11-12.74-11.375z" fill="#e71c23"/><path d="m122.905 38.735 13.465 11.99-.215.07-1.51.255-11.99-10.695z" fill="#e71c23"/><path d="m122.765 39.53 12.74 11.375-.935.145-.79.14-11.235-10.04z" fill="#e71c23"/><path d="m122.655 40.355 11.99 10.695h-.075l-1.545.25-.11.035-10.51-9.36z" fill="#e71c23"/><path d="m122.545 41.15 11.235 10.04-.755.11-.975.18-9.755-8.71.035-.36z" fill="#e71c23"/><path d="m122.405 41.975 10.51 9.36-1.475.255-.255.035-9.035-8.03.18-1.185z" fill="#e71c23"/><path d="m122.295 42.77 9.755 8.71-.61.11-1.155.18-8.24-7.38z" fill="#e71c23"/><path d="m122.15 43.595 9.035 8.03-1.33.215-.43.07-7.525-6.73z" fill="#e71c23"/><path d="m122.045 44.39 8.24 7.38-.43.07-1.295.18-6.77-6.01z" fill="#e71c23"/><path d="m121.9 45.18 7.525 6.73-1.19.18-.575.075-6.015-5.365z" fill="#ea1c24"/><path d="m121.79 46.01 6.77 6.01-.325.07-1.44.22-5.295-4.72.11-.61z" fill="#ea1c24"/><path d="m121.645 46.8 6.015 5.365-1.01.145-.755.14-4.5-4.03.215-1.44z" fill="#ea1c24"/><path d="m121.5 47.59 5.295 4.72h-.145l-1.62.25-3.78-3.35z" fill="#ea1c24"/><path d="m121.395 48.42 4.5 4.03-.865.11-.9.145-3.025-2.7z" fill="#ea1c24"/><path d="m121.25 49.21 3.78 3.35-1.655.25h-.145l-2.265-2.015z" fill="#ea1c24"/><path d="m121.105 50.005 3.025 2.7-.755.105-1.01.145-1.51-1.365v-.075z" fill="#ea1c24"/><path d="m120.965 50.795 2.265 2.015-1.51.22-.255.035-.755-.65.145-.9z" fill="#ed1c24"/><path d="m120.855 51.59 1.51 1.365-.645.075-1.155.18z" fill="#ed1c24"/><path d="m120.71 52.415.755.65-.9.145z" fill="#ed1c24"/><path d="m100.515 9.07.215.505.9 1.62.935 1.585 1.045 1.51 1.08 1.44 1.155 1.405 1.26 1.335 1.295 1.295 1.365 1.225 1.44 1.15 1.515 1.115 1.545 1.045 1.62.97 1.695.94.285.18-.395.035-1.725.18-1.73.215-1.765.18-3.6.36-1.835.18-1.835.145-1.875.145-1.87.14-1.91.145-.54.035.04-.395.395-4.245.395-4.25.36-4.285.395-4.245z" fill="#ed1c24"/><path d="m30.46 26.425.395-.215 1.655-.94 1.655-.97 1.55-1.045 1.51-1.115 1.44-1.15 1.37-1.225 1.295-1.295 1.225-1.335 1.185-1.405 1.08-1.44 1.045-1.51.94-1.585.825-1.51.11 1.045.36 4.245.395 4.285.36 4.25.395 4.245.035.395-.61-.035-1.91-.145-1.905-.14-1.835-.145-1.84-.145-1.835-.18-3.6-.36-1.765-.18-1.725-.215-1.73-.18z" fill="#ed1c24"/><path d="m4.97 33.335-1.44 1.44-.285-1.26.285-.035z" fill="#d0181f"/><path d="m3.35 33.985.54-.54 2.09-.215h.07l-2.305 2.3z" fill="#d1181f"/><path d="m3.53 34.775 1.44-1.44 1.01-.105 1.15-.145-3.205 3.24z" fill="#d1181f"/><path d="m3.745 35.53 2.305-2.3 2.195-.29-4.14 4.175z" fill="#d31820"/><path d="m3.925 36.325 3.205-3.24 1.225-.145 1.01-.145-5.08 5.075-.035-.18z" fill="#d31820"/><path d="m4.105 37.115 4.14-4.175h.11l2.16-.325-6.05 6.05-.215-.975z" fill="#d51920"/><path d="m4.285 37.87 5.08-5.075 1.33-.215.97-.18-7.02 7.02z" fill="#d51920"/><path d="m4.465 38.665 6.05-6.05.18-.035 2.16-.36-7.995 7.99z" fill="#d71920"/><path d="m4.645 39.42 7.02-7.02 1.3-.215 1.08-.215-9 9z" fill="#d91921"/><path d="m4.86 40.21 7.995-7.99.11-.035 2.23-.435.07-.035-10.04 10.045z" fill="#d91921"/><path d="m5.045 40.97 9-9 1.15-.22 1.33-.32-11.085 11.085z" fill="#db1a21"/><path d="m5.225 41.76 10.04-10.045 2.09-.465.43-.145-12.165 12.205-.145-.505z" fill="#db1a21"/><path d="m5.44 42.515 11.085-11.085.83-.18 1.765-.47-13.32 13.285-.325-1.26z" fill="#dd1a22"/><path d="m5.62 43.31 12.165-12.205 1.655-.435 1.01-.285-14.435 14.435z" fill="#dd1a22"/><path d="m5.8 44.065 13.32-13.285.32-.11 2.055-.61.36-.11-15.66 15.66z" fill="#df1a22"/><path d="m6.015 44.82 14.435-14.435 1.045-.325 1.8-.575-16.885 16.885z" fill="#e11b22"/><path d="m6.195 45.61 15.66-15.66 1.62-.54.395-.14.07.54-17.35 17.315z" fill="#e11b22"/><path d="m6.41 46.37 16.885-16.885.18-.075.395-.14.18 1.365-17.28 17.28v-.035z" fill="#e31b22"/><path d="m6.59 47.125 17.35-17.315.22 1.69-17.175 17.17-.215-.79z" fill="#e31b22"/><path d="m6.77 47.915 17.28-17.28.215 1.73-17.065 17.065z" fill="#e51b23"/><path d="m6.985 48.67 17.175-17.17.215 1.69-16.81 16.815-.22-.035z" fill="#e51b23"/><path d="m7.2 49.43 17.065-17.065.11.865.145.825-16.13 16.095-1.045-.18z" fill="#e51b23"/><path d="m7.565 50.005 16.81-16.815v.04l.25 1.655-15.405 15.445-.47-.11z" fill="#e51b23"/><path d="m8.39 50.15 16.13-16.095.215 1.695-14.725 14.72-1.26-.25z" fill="#e51b23"/><path d="m9.22 50.33 15.405-15.445.255 1.69-14.04 14.04-.54-.105z" fill="#e51b23"/><path d="m10.01 50.47 14.725-14.72.25 1.69-13.32 13.32-1.365-.25z" fill="#e51b23"/><path d="m10.84 50.615 14.04-14.04.145 1.225.07.47-12.6 12.635-.65-.11z" fill="#e71c23"/><path d="m11.665 50.76 13.32-13.32.04.36.215 1.295-11.92 11.915-1.475-.215z" fill="#e71c23"/><path d="m12.495 50.905 12.6-12.635.25 1.655-11.23 11.23-.685-.105z" fill="#e71c23"/><path d="m13.32 51.01 11.92-11.915.25 1.695-10.545 10.51-1.515-.25z" fill="#e71c23"/><path d="m14.115 51.155 11.23-11.23.255 1.69-9.83 9.83-.79-.145z" fill="#e71c23"/><path d="m14.945 51.3 10.545-10.51.25 1.62v.035l-9.14 9.145h-.035l-1.585-.29z" fill="#e71c23"/><path d="m15.77 51.445 9.83-9.83.14.795.145.86-8.46 8.425-.86-.105z" fill="#e71c23"/><path d="m16.6 51.59 9.14-9.145.255 1.655-7.705 7.74h-.145z" fill="#e71c23"/><path d="m17.425 51.695 8.46-8.425.255 1.695-7.02 7.02-.975-.145z" fill="#e71c23"/><path d="m18.29 51.84 7.705-7.74.285 1.69-6.335 6.3h-.215z" fill="#e71c23"/><path d="m19.12 51.985 7.02-7.02.25 1.655-5.615 5.615-1.045-.145z" fill="#ea1c24"/><path d="m19.945 52.09 6.335-6.3.18 1.19.075.47-4.935 4.93-.25-.07z" fill="#ea1c24"/><path d="m20.775 52.235 5.615-5.615.07.36.22 1.295-4.215 4.215-1.115-.18z" fill="#ea1c24"/><path d="m21.6 52.38 4.935-4.93.29 1.655-3.53 3.49-.325-.035z" fill="#ea1c24"/><path d="m22.465 52.49 4.215-4.215.285 1.655-2.845 2.81-1.15-.18z" fill="#ea1c24"/><path d="m23.295 52.595 3.53-3.49.25 1.62-2.09 2.125-.36-.04z" fill="#ea1c24"/><path d="m24.12 52.74 2.845-2.81.255 1.585v.035l-1.405 1.405-1.19-.145z" fill="#ea1c24"/><path d="m24.985 52.85 2.09-2.125.145.79.145.865-.685.72-.4-.07z" fill="#ed1c24"/><path d="m25.815 52.955 1.405-1.405.285 1.66-1.225-.18z" fill="#ed1c24"/><path d="m26.68 53.1.685-.72.14.83z" fill="#ed1c24"/><path d="m16.67 79.81-.07 1.12-.395-1.19z" fill="#cc171e"/><path d="m17.175 79.885-.18 2.265-.145-.465-.645-1.945z" fill="#cc171e"/><path d="m16.6 80.93.07-1.12.83.145h.14l-.215 3.35-.575-1.62z" fill="#cc171e"/><path d="m16.995 82.15.18-2.265.325.07.645.11-.32 4.425z" fill="#ce181e"/><path d="m17.425 83.305.215-3.35.975.18-.36 5.51z" fill="#d0181f"/><path d="m17.825 84.49.32-4.425.935.145-.43 6.585-.18-.505z" fill="#d1181f"/><path d="m18.255 85.645.36-5.51.505.075.465.07-.505 7.67-.61-1.66z" fill="#d1181f"/><path d="m18.65 86.795.43-6.585h.04l.935.14-.575 8.715z" fill="#d31820"/><path d="m19.08 87.95.505-7.67.975.18-.65 9.72z" fill="#d51920"/><path d="m19.48 89.065.575-8.715.65.11.32.07-.72 10.765-.18-.505z" fill="#d71920"/><path d="m19.91 90.18.65-9.72h.145l.825.145-.79 11.77-.615-1.585z" fill="#d71920"/><path d="m20.305 91.295.72-10.765.975.145-.83 12.78z" fill="#d91921"/><path d="m20.74 92.375.79-11.77.795.105.18.04-.94 13.785z" fill="#db1a21"/><path d="m21.17 93.455.83-12.78.325.035.645.11-.97 14.76-.18-.395z" fill="#dd1a22"/><path d="m21.565 94.535.94-13.785.97.14-1.08 15.77-.575-1.475z" fill="#dd1a22"/><path d="m22 95.58.97-14.76.97.145-1.115 16.74z" fill="#df1a22"/><path d="m22.395 96.66 1.08-15.77.465.075.505.07-1.185 17.715z" fill="#e11b22"/><path d="m22.825 97.705 1.115-16.74.975.145-1.26 18.68-.075-.215z" fill="#e31b22"/><path d="m23.26 98.75 1.185-17.715.94.145-1.3 19.62-.505-1.225z" fill="#e31b22"/><path d="m23.655 99.79 1.26-18.68.65.105.32.035-1.33 20.125-.255-.035z" fill="#e51b23"/><path d="m24.085 100.8 1.3-19.62.18.035.79.11-1.33 20.125h-.11l-.615-.11z" fill="#e51b23"/><path d="m24.555 101.375 1.33-20.125.975.145-1.335 20.16-.61-.105z" fill="#e51b23"/><path d="m25.025 101.45 1.33-20.125.865.145h.105l-1.33 20.16z" fill="#e51b23"/><path d="m25.525 101.555 1.335-20.16.36.075.61.07-1.37 20.195z" fill="#e51b23"/><path d="m25.995 101.63 1.33-20.16.975.14-1.335 20.2-.43-.075z" fill="#e51b23"/><path d="m26.46 101.735 1.37-20.195.97.145-1.365 20.23-.9-.18z" fill="#e51b23"/><path d="m26.965 101.81 1.335-20.2.575.075.395.07-1.33 20.235z" fill="#e51b23"/><path d="m27.435 101.915 1.365-20.23h.075l.9.105-1.37 20.305-.215-.035z" fill="#e71c23"/><path d="m27.94 101.99 1.33-20.235.97.11-1.33 20.305-.72-.11z" fill="#e71c23"/><path d="m28.405 102.095 1.37-20.305.79.11.18.035-1.365 20.34z" fill="#e71c23"/><path d="m28.91 102.17 1.33-20.305.325.035.65.11-1.37 20.34z" fill="#e71c23"/><path d="m29.38 102.275 1.365-20.34.975.145-1.37 20.34-.505-.07z" fill="#e71c23"/><path d="m29.845 102.35 1.37-20.34.97.105-1.365 20.415z" fill="#e71c23"/><path d="m30.35 102.42 1.37-20.34.54.07.43.04-1.365 20.41z" fill="#e71c23"/><path d="m30.82 102.53 1.365-20.415.075.035.9.11-1.37 20.41-.25-.035z" fill="#e71c23"/><path d="m31.325 102.6 1.365-20.41.795.105.14.54-1.33 19.945-.755-.145z" fill="#e71c23"/><path d="m31.79 102.67 1.37-20.41.325.035.14.65.36 1.51-1.22 18.395z" fill="#e71c23"/><path d="m32.295 102.78 1.33-19.945v.11l.76 3.095-1.12 16.885h-.035z" fill="#e71c23"/><path d="m32.765 102.85 1.22-18.395.72 2.955.075.215-1.045 15.37-.505-.07z" fill="#e71c23"/><path d="m33.265 102.925 1.12-16.885.32 1.37.435 1.76-.9 13.935z" fill="#ea1c24"/><path d="m33.735 102.995 1.045-15.37.755 3.06-.83 12.49z" fill="#ea1c24"/><path d="m34.24 103.105.9-13.935.68 2.63.11.43-.755 11.02-.215-.04z" fill="#ea1c24"/><path d="m34.705 103.175.83-12.49.285 1.115.505 1.91-.645 9.61-.72-.11z" fill="#ea1c24"/><path d="m35.175 103.25.755-11.02.79 2.955-.575 8.205z" fill="#ea1c24"/><path d="m35.68 103.32.645-9.61.65 2.48.11.47-.435 6.805z" fill="#ea1c24"/><path d="m36.145 103.39.575-8.205.255 1.005.505 1.945-.36 5.4-.435-.035z" fill="#ea1c24"/><path d="m36.65 103.465.435-6.805.79 2.915-.25 4.07-.94-.145z" fill="#ea1c24"/><path d="m37.12 103.535.36-5.4.685 2.45.105.43-.18 2.7z" fill="#ed1c24"/><path d="m37.625 103.645.25-4.07.29 1.01.5 1.835-.07 1.37-.18-.04z" fill="#ed1c24"/><path d="m38.09 103.715.18-2.7.795 2.845-.65-.11z" fill="#ed1c24"/><path d="m38.595 103.79.07-1.37.4 1.44z" fill="#ed1c24"/><path d="m74.235 93h.07c2.048-.017 4.088.273 6.05.86l1.295-6.55c-2.365-.797-4.849-1.186-7.345-1.15h-.07l-3.675 4.03z" fill="#fcf7dd"/><path d="m74.235 95.5-.145-.04c-1.37-.25-2.05-.755-2-1.44s.935-1 2.125-1.04v-6.83c-9.47.395-10.5 9.54-7.455 12.885.975 1.045 3.71 2.27 6.23 2.27.411-.001.821.034 1.225.105l3.525-2.625z" fill="#fae095"/><path d="m74.235 111.13h.035c4.32-.14 7-1.655 7.92-4.605.685-2.34 2-7.885-3.24-9.865-1.517-.5-3.07-.884-4.645-1.15h-.07v5.9h.07c1.225.22 2.125.76 1.91 1.55-.18.61-.83.97-1.91 1.08h-.07l-3.385 4.07z" fill="#fcf7dd"/><path d="m66 110.23c2.705.611 5.471.913 8.245.9v-7.09c-1.475.145-3.71-.11-6.84-.83z" fill="#fae095"/><path d="m74.235 70.38-3.53-5.4v10.295h-6.8v-22.965h6.8l3.53 5.29 3.85 10.115z" fill="#fae095"/><path d="m77.405 52.415h6.84v22.97h-6.84l-3.1-4.86-.07-.145v-12.78l.07.145 3.1 4.68z" fill="#fcf7dd"/><path d="m74.235 32.22h-3.17v8.17h-6.8v-22.965h6.8v7.885h3.17l2.015 3.705z" fill="#fae095"/><path d="m76.935 17.425h6.805v22.965h-6.805v-8.17h-2.7v-6.91h2.7z" fill="#fcf7dd"/><path d="m90.795 156.89.215.07-.465.54z" fill="#cc171e"/><path d="m91.045 156.31.435.145-.935 1.045.395-.97z" fill="#cc171e"/><path d="m91.01 156.96-.215-.07.145-.36.325-.83.645.215-.285.325z" fill="#cc171e"/><path d="m91.48 156.455-.435-.145.47-1.185.83.25-.72.865z" fill="#cc171e"/><path d="m91.91 155.915-.645-.215.5-1.19 1.045.325z" fill="#cc171e"/><path d="m92.345 155.375-.83-.25.47-1.19 1.26.395z" fill="#cc171e"/><path d="m92.81 154.835-1.045-.325.47-1.185 1.44.465z" fill="#cc171e"/><path d="m93.245 154.33-1.26-.395.465-1.225 1.655.54z" fill="#cc171e"/><path d="m93.675 153.79-1.44-.465.395-1.045.075-.145 1.835.575-.255.325z" fill="#cc171e"/><path d="m94.105 153.25-1.655-.54.18-.43.325-.755 2.015.645-.685.865z" fill="#cc171e"/><path d="m94.54 152.71-1.835-.575.465-1.185 2.235.68z" fill="#cc171e"/><path d="m94.97 152.17-2.015-.645.43-1.19 2.415.755z" fill="#cc171e"/><path d="m95.405 151.63-2.235-.68.47-1.225 2.59.825z" fill="#cc171e"/><path d="m95.8 151.09-2.415-.755.47-1.185 2.805.9z" fill="#ce181e"/><path d="m96.23 150.55-2.59-.825.465-1.19 2.955.975-.18.215z" fill="#ce181e"/><path d="m96.66 150.05-2.805-.9.43-1.12.04-.07 3.13.97-.575.795z" fill="#ce181e"/><path d="m97.06 149.51-2.955-.975.18-.505.29-.68 3.31 1.04z" fill="#ce181e"/><path d="m97.455 148.93-3.13-.97.465-1.225 3.49 1.115z" fill="#ce181e"/><path d="m97.885 148.39-3.31-1.04.43-1.19 3.675 1.15z" fill="#ce181e"/><path d="m98.28 147.85-3.49-1.115.47-1.185 3.815 1.22z" fill="#ce181e"/><path d="m98.68 147.31-3.675-1.15.47-1.225 4.03 1.295-.07.11z" fill="#ce181e"/><path d="m99.075 146.77-3.815-1.22.43-1.19 4.175 1.33-.43.65z" fill="#ce181e"/><path d="m99.505 146.23-4.03-1.295.43-1.15.035-.035 4.325 1.4z" fill="#ce181e"/><path d="m99.865 145.69-4.175-1.33.215-.575.255-.65 4.5 1.44z" fill="#ce181e"/><path d="m100.265 145.15-4.325-1.4.435-1.19 4.68 1.475z" fill="#ce181e"/><path d="m100.66 144.575-4.5-1.44.43-1.185 4.825 1.545z" fill="#ce181e"/><path d="m101.055 144.035-4.68-1.475.43-1.225 5.005 1.62z" fill="#ce181e"/><path d="m101.415 143.495-4.825-1.545.43-1.19 5.185 1.62-.325.47z" fill="#ce181e"/><path d="m101.81 142.955-5.005-1.62.47-1.185 5.29 1.69-.685 1.01z" fill="#ce181e"/><path d="m102.205 142.38-5.185-1.62.47-1.225 5.435 1.765z" fill="#ce181e"/><path d="m102.565 141.84-5.29-1.69.215-.65.215-.54 5.62 1.765z" fill="#d0181f"/><path d="m102.925 141.3-5.435-1.765v-.035l.43-1.15 5.765 1.835z" fill="#d0181f"/><path d="m103.325 140.725-5.62-1.765.435-1.225 5.905 1.91z" fill="#d0181f"/><path d="m103.685 140.185-5.765-1.835.435-1.225 6.085 1.945-.18.25z" fill="#d1181f"/><path d="m104.045 139.645-5.905-1.91.43-1.185 6.195 1.98-.505.79z" fill="#d1181f"/><path d="m104.44 139.07-6.085-1.945.43-1.19 6.34 2.015z" fill="#d1181f"/><path d="m104.765 138.53-6.195-1.98.43-1.225 6.485 2.085z" fill="#d1181f"/><path d="m105.125 137.95-6.34-2.015.255-.72.18-.505 6.625 2.125z" fill="#d31820"/><path d="m105.485 137.41-6.485-2.085.04-.11.395-1.115 6.77 2.195z" fill="#d31820"/><path d="m105.845 136.835-6.625-2.125.43-1.185 6.915 2.195z" fill="#d31820"/><path d="m106.205 136.295-6.77-2.195.395-1.19 7.09 2.235-.32.54z" fill="#d51920"/><path d="m106.565 135.72-6.915-2.195.395-1.225 7.2 2.305-.645 1.08z" fill="#d51920"/><path d="m106.92 135.145-7.09-2.235.435-1.22 7.34 2.34z" fill="#d51920"/><path d="m107.245 134.605-7.2-2.305.22-.65 1.4-.18 6.265 2.02z" fill="#d51920"/><path d="m107.605 134.03-7.34-2.34v-.04l1.615-.215 1.19-.18 5.22 1.655z" fill="#d71920"/><path d="m107.93 133.49-6.265-2.02.215-.035 1.84-.285.755-.11 4.14 1.295z" fill="#d71920"/><path d="m108.29 132.91-5.22-1.655.65-.105 1.835-.29.325-.07 3.095 1.005-.11.18z" fill="#d91921"/><path d="m108.615 132.335-4.14-1.295 1.08-.18 1.69-.29 2.055.65-.435.755z" fill="#d91921"/><path d="m108.975 131.795-3.095-1.005 1.475-.255 1.26-.215 1.01.325z" fill="#d91921"/><path d="m109.3 131.22-2.055-.65.11-.035 1.8-.285.79-.18z" fill="#d91921"/><path d="m109.625 130.645-1.01-.325.54-.07.79-.18z" fill="#db1a21"/><path d="m38.92 130.25-.035.54-.36-.615.32.075z" fill="#cc171e"/><path d="m39.35 130.32-.11 1.115-.715-1.26.32.075z" fill="#cc171e"/><path d="m38.885 130.79.035-.54.825.14-.105 1.66-.075-.075z" fill="#cc171e"/><path d="m39.24 131.435.11-1.115.79.145-.14 2.195-.435-.685z" fill="#cc171e"/><path d="m39.64 132.05.105-1.66.795.145-.18 2.735z" fill="#cc171e"/><path d="m40 132.66.14-2.195.505.07.29.075-.215 3.275z" fill="#cc171e"/><path d="m40.36 133.27.18-2.735h.105l.72.145-.25 3.815z" fill="#cc171e"/><path d="m40.72 133.885.215-3.275.83.14-.29 4.32z" fill="#cc171e"/><path d="m41.115 134.495.25-3.815.795.145-.325 4.86z" fill="#cc171e"/><path d="m41.475 135.07.29-4.32.68.11h.11l-.36 5.4-.36-.575z" fill="#cc171e"/><path d="m41.835 135.685.325-4.86.285.035.54.07-.395 5.905z" fill="#cc171e"/><path d="m42.195 136.26.36-5.4.83.145-.435 6.405z" fill="#cc171e"/><path d="m42.59 136.835.395-5.905.795.145-.47 6.95z" fill="#cc171e"/><path d="m42.95 137.41.435-6.405.79.145-.47 7.45z" fill="#ce181e"/><path d="m43.31 138.025.47-6.95.5.075.325.035-.54 7.99z" fill="#ce181e"/><path d="m43.705 138.6.47-7.45h.105l.72.105-.575 8.46-.25-.395z" fill="#ce181e"/><path d="m44.065 139.175.54-7.99.795.145-.58 8.96-.645-.97z" fill="#ce181e"/><path d="m44.425 139.715.575-8.46.795.145-.615 9.43z" fill="#ce181e"/><path d="m44.82 140.29.58-8.96.72.105h.105l-.685 9.935z" fill="#ce181e"/><path d="m45.18 140.83.615-9.43.325.035.505.075-.685 10.44z" fill="#ce181e"/><path d="m45.54 141.37.685-9.935.795.145-.72 10.91z" fill="#ce181e"/><path d="m45.94 141.95.685-10.44.825.105-.79 11.415-.11-.18z" fill="#ce181e"/><path d="m46.3 142.49.72-10.91.79.11.035.07-.79 11.81-.505-.72z" fill="#ce181e"/><path d="m46.66 143.03.79-11.415.36.075.36 1.04-.755 11.38z" fill="#ce181e"/><path d="m47.055 143.57.79-11.81.685 1.98-.72 10.87z" fill="#ce181e"/><path d="m47.415 144.11.755-11.38.685 1.98-.685 10.44z" fill="#ce181e"/><path d="m47.81 144.61.72-10.87.505 1.475.18.47-.685 10.005z" fill="#ce181e"/><path d="m48.17 145.15.685-10.44.18.505.505 1.44-.615 9.54z" fill="#ce181e"/><path d="m48.53 145.69.685-10.005.685 1.905-.615 9.11-.285-.36z" fill="#ce181e"/><path d="m48.925 146.195.615-9.54.72 1.91-.58 8.64-.68-.865z" fill="#ce181e"/><path d="m49.285 146.7.615-9.11.685 1.91v.035l-.545 8.175z" fill="#d0181f"/><path d="m49.68 147.205.58-8.64.325.935.36.97-.54 7.74z" fill="#d0181f"/><path d="m50.04 147.71.545-8.175.68 1.875-.465 7.305z" fill="#d0181f"/><path d="m50.405 148.21.54-7.74.68 1.875-.465 6.875z" fill="#d1181f"/><path d="m50.8 148.715.465-7.305.72 1.87-.43 6.445h-.035z" fill="#d1181f"/><path d="m51.16 149.22.465-6.875.54 1.44.145.43-.395 6.015-.395-.505z" fill="#d1181f"/><path d="m51.555 149.725.43-6.445.18.505.505 1.33-.36 5.58z" fill="#d1181f"/><path d="m51.915 150.23.395-6.015.72 1.835-.36 5.115z" fill="#d31820"/><path d="m52.31 150.695.36-5.58.685 1.835-.29 4.72z" fill="#d31820"/><path d="m52.67 151.165.36-5.115.685 1.84-.29 4.245z" fill="#d31820"/><path d="m53.065 151.67.29-4.72.43 1.08.29.76-.255 3.85z" fill="#d51920"/><path d="m53.425 152.135.29-4.245.07.14.615 1.66-.22 3.42-.035-.075z" fill="#d51920"/><path d="m53.82 152.64.255-3.85.685 1.8-.18 2.985-.435-.54z" fill="#d51920"/><path d="m54.18 153.11.22-3.42.72 1.76-.18 2.56z" fill="#d51920"/><path d="m54.58 153.575.18-2.985.685 1.69.035.07-.145 2.125z" fill="#d71920"/><path d="m54.94 154.01.18-2.56.325.83.36.97-.11 1.695z" fill="#d71920"/><path d="m55.335 154.475.145-2.125.685 1.765-.075 1.26z" fill="#d91921"/><path d="m55.695 154.945.11-1.695.72 1.73-.075.865z" fill="#d91921"/><path d="m56.09 155.375.075-1.26.72 1.765-.04.43-.035-.07z" fill="#d91921"/><path d="m56.45 155.845.075-.865.61 1.55.07.215-.395-.505z" fill="#d91921"/><path d="m56.845 156.31.04-.43.25.65.07.215z" fill="#db1a21"/><path d="m86.725 138.565h.18l.65-5.435.035-.145.975-.035 1.94-.18 1.945-.18 1.91-.18 1.905-.22.865-.105-.755 2.195-1.55 4.25-1.545 4.245-1.62 4.25-1.66 4.21-.465 1.19z" fill="#e6e7e8"/><path d="m73.8 186h.075c15.207 0 27.72-12.513 27.72-27.72s-12.513-27.72-27.72-27.72-27.72 12.513-27.72 27.72c-.019 15.186 12.459 27.698 27.645 27.72zm27.36-27.72c-.008 15.015-12.365 27.365-27.38 27.365-15.02 0-27.38-12.36-27.38-27.38s12.36-27.38 27.38-27.38h.02c15.005.022 27.344 12.365 27.36 27.37z" fill="#b89033"/><path d="m73.8 186h.075c15.207 0 27.72-12.513 27.72-27.72s-12.513-27.72-27.72-27.72-27.72 12.513-27.72 27.72c-.019 15.186 12.459 27.698 27.645 27.72zm26.57-27.72c-.014 14.586-12.019 26.58-26.605 26.58-14.595 0-26.605-12.01-26.605-26.605s12.01-26.605 26.605-26.605h.035c14.583.016 26.573 12.022 26.57 26.605z" fill="#ba9234"/><path d="m101.16 158.255c-.008-15.015-12.365-27.365-27.38-27.365-15.02 0-27.38 12.36-27.38 27.38s12.36 27.38 27.38 27.38h.02c15.014-.022 27.357-12.381 27.36-27.395zm-1.58 0c-.016 14.15-11.665 25.785-25.815 25.785-14.162 0-25.815-11.653-25.815-25.815s11.653-25.815 25.815-25.815h.035c14.155.033 25.783 11.69 25.78 25.845z" fill="#ba9438"/><path d="m100.37 158.255c0-14.595-12.01-26.605-26.605-26.605s-26.605 12.01-26.605 26.605 12.01 26.605 26.605 26.605h.035c14.582-.019 26.57-12.023 26.57-26.605zm-1.55 0c-.008 13.731-11.309 25.025-25.04 25.025-13.737 0-25.04-11.303-25.04-25.04s11.303-25.04 25.04-25.04h.04c13.722.036 24.995 11.333 25 25.055z" fill="#bd973c"/><path d="m99.58 158.255c-.019-14.148-11.667-25.78-25.815-25.78-14.162 0-25.815 11.653-25.815 25.815s11.653 25.815 25.815 25.815h.035c14.158-.03 25.788-11.692 25.78-25.85zm-1.55 0c-.005 13.297-10.948 24.235-24.245 24.235-13.3 0-24.245-10.945-24.245-24.245s10.945-24.245 24.245-24.245h.015c13.294.019 24.225 10.961 24.23 24.255z" fill="#bf993d"/><path d="m98.82 158.255c-.008-13.731-11.309-25.025-25.04-25.025-13.737 0-25.04 11.303-25.04 25.04s11.303 25.04 25.04 25.04h.04c13.722-.036 24.995-11.333 25-25.055zm-1.58 0v.005c0 12.878-10.597 23.475-23.475 23.475s-23.475-10.597-23.475-23.475 10.597-23.475 23.475-23.475h.035c12.863.019 23.437 10.607 23.44 23.47z" fill="#bf9b41"/><path d="m98.03 158.255c0-13.3-10.945-24.245-24.245-24.245s-24.245 10.945-24.245 24.245 10.945 24.245 24.245 24.245h.015c13.297-.022 24.227-10.968 24.23-24.265zm-1.585 0c-.019 12.429-10.251 22.645-22.68 22.645-12.442 0-22.68-10.238-22.68-22.68s10.238-22.68 22.68-22.68h.035c12.439.027 22.656 10.276 22.645 22.715z" fill="#c39d43"/><path d="m97.24 158.255c0-12.878-10.597-23.475-23.475-23.475s-23.475 10.597-23.475 23.475 10.597 23.475 23.475 23.475h.035c12.866-.016 23.443-10.609 23.44-23.475zm-1.55 0c-.011 12.009-9.896 21.885-21.905 21.885-12.017 0-21.905-9.888-21.905-21.905s9.888-21.905 21.905-21.905h.015c12.012.025 21.885 9.913 21.89 21.925z" fill="#c39e47"/><path d="m96.445 158.255c-.019-12.429-10.251-22.645-22.68-22.645-12.442 0-22.68 10.238-22.68 22.68s10.238 22.68 22.68 22.68h.035c12.438-.03 22.653-10.277 22.645-22.715zm-1.545 0c-.008 11.578-9.537 21.1-21.115 21.1-11.583 0-21.115-9.532-21.115-21.115s9.532-21.115 21.115-21.115h.015c11.579.019 21.097 9.551 21.1 21.13z" fill="#c5a148"/><path d="m95.69 158.255c-.011-12.009-9.896-21.885-21.905-21.885-12.017 0-21.905 9.888-21.905 21.905s9.888 21.905 21.905 21.905h.015c12.012-.025 21.885-9.913 21.89-21.925zm-1.585 0c0 11.158-9.182 20.34-20.34 20.34s-20.34-9.182-20.34-20.34 9.182-20.34 20.34-20.34h.035c11.147.014 20.31 9.193 20.305 20.34z" fill="#c7a44d"/><path d="m94.9 158.255c-.011-11.576-9.539-21.095-21.115-21.095-11.583 0-21.115 9.532-21.115 21.115s9.532 21.115 21.115 21.115h.015c11.581-.019 21.1-9.554 21.1-21.135zm-1.55 0c-.011 10.725-8.84 19.545-19.565 19.545-10.733 0-19.565-8.832-19.565-19.565s8.832-19.565 19.565-19.565h.015c10.728.027 19.542 8.857 19.55 19.585z" fill="#c9a651"/><path d="m94.105 158.255c0-11.158-9.182-20.34-20.34-20.34s-20.34 9.182-20.34 20.34 9.182 20.34 20.34 20.34h.035c11.146-.016 20.308-9.194 20.305-20.34zm-1.545 0c-.008 10.294-8.481 18.76-18.775 18.76-10.3 0-18.775-8.475-18.775-18.775s8.475-18.775 18.775-18.775h.015c10.294.022 18.755 8.496 18.76 18.79z" fill="#cba853"/><path d="m93.35 158.255c-.011-10.725-8.84-19.545-19.565-19.545-10.733 0-19.565 8.832-19.565 19.565s8.832 19.565 19.565 19.565h.015c10.728-.027 19.542-8.857 19.55-19.585zm-1.585 0c0 9.874-8.126 18-18 18-9.875 0-18-8.126-18-18 0-9.875 8.125-18 18-18h.035c9.861.019 17.965 8.139 17.965 18z" fill="#cbaa58"/><path d="m92.56 158.255c-.011-10.292-8.483-18.755-18.775-18.755-10.3 0-18.775 8.475-18.775 18.775s8.475 18.775 18.775 18.775h.015c10.296-.022 18.757-8.499 18.76-18.795zm-1.585 0v.005c0 9.441-7.769 17.21-17.21 17.21s-17.21-7.769-17.21-17.21 7.769-17.21 17.21-17.21h.035c9.436 0 17.2 7.764 17.2 17.2v.005z" fill="#cfad5a"/><path d="m91.765 158.255c0-9.874-8.126-18-18-18-9.875 0-18 8.126-18 18 0 9.875 8.125 18 18 18h.035c9.861-.019 17.965-8.139 17.965-18zm-1.545 0c-.008 9.01-7.425 16.42-16.435 16.42-9.016 0-16.435-7.419-16.435-16.435s7.419-16.435 16.435-16.435h.015c9.01.025 16.412 7.44 16.42 16.45z" fill="#d1af5e"/><path d="m91 158.255c0-9.441-7.769-17.21-17.21-17.21s-17.21 7.769-17.21 17.21 7.769 17.21 17.21 17.21h.035c9.43-.014 17.18-7.78 17.175-17.21zm-1.55 0c-.008 8.577-7.068 15.63-15.645 15.63-8.583 0-15.645-7.062-15.645-15.645s7.062-15.645 15.645-15.645h.02c8.567.036 15.597 7.093 15.6 15.66z" fill="#d5b362"/><path d="m90.22 158.255c-.011-9.008-7.427-16.415-16.435-16.415-9.016 0-16.435 7.419-16.435 16.435s7.419 16.435 16.435 16.435h.015c9.012-.025 16.415-7.443 16.42-16.455zm-1.585 0c-.008 8.141-6.709 14.835-14.85 14.835-8.146 0-14.85-6.704-14.85-14.85s6.704-14.85 14.85-14.85h.015c8.143.016 14.835 6.722 14.835 14.865z" fill="#d7b666"/><path d="m89.425 158.255c-.008-8.577-7.068-15.63-15.645-15.63-8.583 0-15.645 7.062-15.645 15.645s7.062 15.645 15.645 15.645h.02c8.577-.022 15.622-7.083 15.625-15.66zm-1.585 0c0 7.721-6.354 14.075-14.075 14.075s-14.075-6.354-14.075-14.075 6.354-14.075 14.075-14.075h.035c7.703.033 14.026 6.372 14.04 14.075z" fill="#d9b86a"/><path d="m88.635 158.255c-.011-8.139-6.711-14.83-14.85-14.83-8.146 0-14.85 6.704-14.85 14.85s6.704 14.85 14.85 14.85h.015c8.145-.016 14.838-6.725 14.835-14.87zm-1.55 0c-.008 7.293-6.012 13.29-13.305 13.29-7.299 0-13.305-6.006-13.305-13.305s6.006-13.305 13.305-13.305h.02c7.293.022 13.282 6.027 13.285 13.32z" fill="#d9ba6f"/><path d="m87.84 158.255c-.022-7.706-6.369-14.035-14.075-14.035-7.721 0-14.075 6.354-14.075 14.075s6.354 14.075 14.075 14.075h.035c7.706-.014 14.04-6.359 14.04-14.065 0-.017 0-.033 0-.05zm-1.545 0c-.014 6.848-5.652 12.475-12.5 12.475-6.857 0-12.5-5.643-12.5-12.5s5.643-12.5 12.5-12.5c6.861.016 12.497 5.664 12.5 12.525z" fill="#dbbf73"/><path d="m87.085 158.255c-.008-7.293-6.012-13.29-13.305-13.29-7.299 0-13.305 6.006-13.305 13.305s6.006 13.305 13.305 13.305h.02c7.293-.022 13.282-6.027 13.285-13.32zm-1.585 0c-.019 6.416-5.304 11.685-11.72 11.685-6.429 0-11.72-5.291-11.72-11.72s5.291-11.72 11.72-11.72h.02c6.433.016 11.714 5.322 11.7 11.755z" fill="#dbc077"/><path d="m86.295 158.255c-.016-6.846-5.654-12.47-12.5-12.47-6.857 0-12.5 5.643-12.5 12.5s5.643 12.5 12.5 12.5c6.862-.016 12.5-5.668 12.5-12.53zm-1.585 0c0 6.004-4.941 10.945-10.945 10.945s-10.945-4.941-10.945-10.945 4.941-10.945 10.945-10.945h.035c5.988.027 10.902 4.957 10.91 10.945z" fill="#ddc37b"/><path d="m85.5 158.255c-.014-6.42-5.3-11.695-11.72-11.695-6.429 0-11.72 5.291-11.72 11.72s5.291 11.72 11.72 11.72h.02c6.429-.016 11.708-5.316 11.7-11.745zm-1.545 0c-.008 5.573-4.597 10.155-10.17 10.155-5.579 0-10.17-4.591-10.17-10.17s4.591-10.17 10.17-10.17h.015c5.573.025 10.147 4.612 10.155 10.185z" fill="#e0c67f"/><path d="m84.71 158.255c-.03-5.983-4.961-10.89-10.945-10.89-6.004 0-10.945 4.941-10.945 10.945s4.941 10.945 10.945 10.945h.035c5.989-.014 10.91-4.946 10.91-10.935 0-.022 0-.043 0-.065zm-1.55 0c-.008 5.14-4.24 9.365-9.38 9.365-5.146 0-9.38-4.234-9.38-9.38s4.234-9.38 9.38-9.38h.02c5.142.016 9.363 4.253 9.36 9.395z" fill="#e0c983"/><path d="m83.955 158.255c-.011-5.572-4.598-10.15-10.17-10.15-5.579 0-10.17 4.591-10.17 10.17s4.591 10.17 10.17 10.17h.015c5.576-.022 10.152-4.614 10.155-10.19zm-1.585 0c-.011 4.702-3.883 8.565-8.585 8.565-4.71 0-8.585-3.875-8.585-8.585s3.875-8.585 8.585-8.585h.015c4.709.014 8.575 3.896 8.57 8.605z" fill="#e2cc87"/><path d="m83.16 158.255c-.008-5.14-4.24-9.365-9.38-9.365-5.146 0-9.38 4.234-9.38 9.38s4.234 9.38 9.38 9.38h.02c5.142-.016 9.363-4.253 9.36-9.395zm-1.58 0v.005c0 4.287-3.528 7.815-7.815 7.815s-7.815-3.528-7.815-7.815 3.528-7.815 7.815-7.815h.035c4.268.03 7.766 3.542 7.78 7.81z" fill="#e4cf8b"/><path d="m82.37 158.255c-.011-4.702-3.883-8.565-8.585-8.565-4.71 0-8.585 3.875-8.585 8.585s3.875 8.585 8.585 8.585h.015c4.709-.014 8.575-3.896 8.57-8.605zm-1.55 0c-.008 3.856-3.184 7.025-7.04 7.025-3.862 0-7.04-3.178-7.04-7.04s3.178-7.04 7.04-7.04h.04c3.849.03 7 3.205 7 7.055z" fill="#e4d18f"/><path d="m81.58 158.255c-.019-4.274-3.541-7.78-7.815-7.78-4.287 0-7.815 3.528-7.815 7.815s3.528 7.815 7.815 7.815h.035c4.271-.011 7.78-3.529 7.78-7.8 0-.017 0-.033 0-.05zm-1.55 0c-.005 3.422-2.823 6.235-6.245 6.235-3.426 0-6.245-2.819-6.245-6.245s2.819-6.245 6.245-6.245h.015c3.419.005 6.23 2.821 6.23 6.24z" fill="#e7d393"/><path d="m80.82 158.255c-.008-3.856-3.184-7.025-7.04-7.025-3.862 0-7.04 3.178-7.04 7.04s3.178 7.04 7.04 7.04h.04c3.848-.033 6.997-3.206 7-7.055zm-1.58 0c-.008 2.987-2.468 5.44-5.455 5.44-2.993 0-5.455-2.462-5.455-5.455s2.462-5.455 5.455-5.455h.015c2.985.003 5.44 2.46 5.44 5.445z" fill="#e7d798"/><path d="m80.03 158.255c0-3.426-2.819-6.245-6.245-6.245s-6.245 2.819-6.245 6.245 2.819 6.245 6.245 6.245h.015c3.419-.005 6.23-2.821 6.23-6.24 0-.008 0-.017 0-.025zm-1.585 0v.05c0 2.552-2.093 4.654-4.645 4.665-.051.002-.102.002-.153.002-2.579 0-4.7-2.121-4.7-4.7 0-2.578 2.121-4.699 4.7-4.699.051 0 .102 0 .153.002h.005c2.546 0 4.64 2.095 4.64 4.64z" fill="#e9da9e"/><path d="m79.24 158.255c-.011-2.985-2.47-5.435-5.455-5.435-2.992 0-5.455 2.462-5.455 5.455s2.463 5.455 5.455 5.455h.015c2.984 0 5.44-2.456 5.44-5.44 0-.012 0-.023 0-.035zm-1.55 0c-.011 2.135-1.77 3.885-3.905 3.885-2.142 0-3.905-1.763-3.905-3.905s1.763-3.905 3.905-3.905h.015c2.137.008 3.89 1.768 3.89 3.905z" fill="#ecdda3"/><path d="m78.445 158.255c0-.013 0-.027 0-.04 0-2.545-2.094-4.64-4.64-4.64-.002 0-.042 0-.06 0-2.578 0-4.7 2.121-4.7 4.7 0 2.578 2.122 4.7 4.7 4.7s4.7-2.122 4.7-4.7c0-.007 0-.013 0-.02zm-1.5 0v.005c0 1.72-1.415 3.135-3.135 3.135s-3.135-1.415-3.135-3.135 1.415-3.135 3.135-3.135c1.714.005 3.122 1.416 3.125 3.13z" fill="#ece1a8"/><path d="m77.69 158.255c-.011-2.135-1.77-3.885-3.905-3.885-2.142 0-3.905 1.763-3.905 3.905s1.763 3.905 3.905 3.905h.015c2.137-.008 3.89-1.768 3.89-3.905 0-.007 0-.013 0-.02zm-1.55 0c0 1.284-1.056 2.34-2.34 2.34s-2.34-1.056-2.34-2.34 1.056-2.34 2.34-2.34h.005c1.281 0 2.335 1.054 2.335 2.335z" fill="#eee4ac"/><path d="m76.935 158.255c0-1.72-1.415-3.135-3.135-3.135s-3.135 1.415-3.135 3.135 1.415 3.135 3.135 3.135 3.135-1.415 3.135-3.135zm-1.585 0c.008.859-.691 1.574-1.55 1.585-.866-.008-1.575-.719-1.58-1.585.011-.857.723-1.553 1.58-1.545h.015c.842 0 1.535.693 1.535 1.535z" fill="#eee6b1"/></g><circle cx="73.8" cy="158.255" fill="#f0e9b5" r="2.34"/><path d="m75.35 158.255c0-.003 0-.007 0-.01 0-.842-.693-1.535-1.535-1.535-.005 0-.01 0-.015 0-.857-.008-1.569.688-1.58 1.545.005.866.714 1.577 1.58 1.585.859-.011 1.558-.726 1.55-1.585z" fill="#f3ecba" fill-rule="nonzero"/><circle cx="73.8" cy="158.255" fill="#f5f5c6" r=".79"/><path d="m74.74 187c15.161-.078 27.592-12.574 27.592-27.735 0-7.089-2.718-13.916-7.592-19.065 4.329 5.02 6.712 11.434 6.712 18.063 0 15.174-12.486 27.66-27.66 27.66-7.578 0-14.832-3.114-20.052-8.608 5.246 6.138 12.926 9.68 21 9.685z" fill="#faedb8" fill-rule="nonzero"/><path d="m90.615 163.08v-1.26l.105.18.615.935 1.15 2 .54 1.045.575 1.045.54 1.115.58 1.115.54 1.155.54 1.225.54 1.22.36.865-.54.78-.29-.72-.54-1.28-.5-1.22-.54-1.225-.575-1.155-1.08-2.23-.575-1.045-.56-1.035-.58-1-.285-.5zm0-18.72v-.65l.035.04.65.645.61.65.575.685.615.68.575.72.575.685.54.72.54.755.54.72.54.76.5.79.5.755.5.795.47.79.5.83.43.79.47.83.43.86.435.865.43.865.29.65c-.04.54-.075 1.08-.11 1.58l-.36-.825-.395-.9-.435-.865-.395-.865-.43-.865-.435-.86-.465-.83-.47-.79-.465-.83-.47-.79-.5-.795-.5-.755-.5-.79-.54-.76-.54-.72-.54-.755-.58-.72-.54-.685-.61-.72-.585-.68-.615-.685-.285-.325zm6.385 28.945.035-.075zm-9.735 9.145c.255-.145.47-.29.72-.435l-.215-.645-.36-1.045-.36-.935-.54.215h-.01v.465l.325.94.36 1.08.105.36zm3.35-38.74v.65l-.325-.325-.61-.645-1.3-1.3-.645-.59-.685-.61-.55-.56v-.47l.215.18.685.575.685.615.645.61.685.61.65.65.575.61zm0 18.11v1.26l-.29-.5-1.15-1.87-.615-.865-.575-.9-.61-.83-.615-.825-.285-.395v-.865l.035.07.65.795.61.755.575.825.615.83.61.9.575.865.47.755zm-4.115 16.415v-.43l.145.395zm0-43.585v-1.01c.215.11.395.255.61.36l-.465.47zm1.5 47.35c.11-.07.18-.105.29-.18-.11.075-.18.11-.29.18zm-.575-47.845-.145-.07zm-.925 45.45-.145.07.11.29.035.105zm0-45.985v1.01l-.65.65v-1.37l.395-.395c.082.041.168.076.255.105zm0 6.24v.47l-.075-.075-.575-.465v-.47l.145.145.5.395zm0 16.165v.865l-.325-.36-.325-.435v-.825l.075.105zm0 21.78v.43l-.395.18-.255.075v-2.2l.435.975zm-.65-43.885v1.37l-.54.61-.645.72-.65.755-.575.72-.575.755-.075.11v-1.62l.21-.34.61-.755.65-.72.68-.72.685-.72.18-.18zm0 5.4-.575-.43-.5-.4-.215.255.47.36.68.575.145.11v-.47zm0 15.95v.825l-.285-.36-.64-.735-.61-.72-.65-.685-.61-.68-.29-.29v-.575l.615.61.645.615.65.68.61.685.54.615zm0 21v2.23l-.72.25-.97.325-1 .325-.36.105v-.655l.395-.145 1-.325.935-.325.54-.215-.36-.935-.395-.975-.395-.97-.435-.935-.43-.9-.435-.9-.395-.83v-1.5l.035.07.47.865.43.83.435.9.43.9.435.9.43.935zm-3.06-38.915v1.62l-.5.65-.54.755-.5.79-.5.755-.5.795-.325.575v-1.945l.325-.54.5-.81.54-.755.54-.76.61-.755.325-.395zm0 14.725v.575l-.36-.325-.645-.645-.65-.58-.65-.575-.6-.53v-.43l.255.215.68.54 1.3 1.15.645.58v.035zm0 17.855v1.5l-.035-.07-.47-.83-.43-.865-.47-.755.615-.285.36.61.43.72zm0 8.92v.645l-.645.18-1.045.29-1.08.25-.11.035v-.61l.18-.035 1.045-.29 1.045-.285zm-2.88-10.72v-.79l.47-.18-.435-.65-.035-.11v-1.115l.035.11.5.72.5.755.395.65-.79.32zm0-26.785v1.945l-.145.215-.43.755-.43.795-.435.79-.395.83-.395.79-.36.795-.36.825-.325.795-.36.825-.325.83-.325.79-.285.83-.29.825-.285.83-.29.83-.25.825-.29.795-.145.54-.5.215-.755.285-.79.255-.83.25-.79.215-.83.18v-.575l.65-.18.825-.25.76-.255.79-.285.47-.215.18-.54.25-.795.29-.825.285-.83.255-.83.32-.825.29-.83.325-.79.325-.83.32-.825.36-.795.36-.825.4-.795.395-.79.355-.82.395-.79.47-.795.43-.755.47-.79.5-.795.145-.215zm0 8.21-.395-.29-.65-.5-.285-.18-.11.22-.035.035.11.07.645.5.65.54.07.035zm0 15.73-.43-.575-1-1.37-.54-.645-.5-.615-.465-.61-1.08-1.15-.5-.54-.54-.5-.395-.36-.395.18.32.325.54.54.54.575.5.575.54.61.5.615.47.645 1.5 2.055.5.72.43.645v-1.115zm0 2.055v.79l-.285.11-.9.32-.94.325-.935.29-.97.285-1 .255-.97.215-1 .215-1 .18-1 .145-1.045.145-.575.07v-.465l.65-.11 1-.145 1-.18 1-.215.97-.215.97-.255 1-.285.935-.29.9-.325.935-.32.9-.4zm0 12.31v.61l-.97.22-1.08.215-1.08.18-1.115.215-1.12.145-1.15.18-1.15.105-1.19.145-1.19.11-.575.035v-.43l.795-.075 1.15-.145 1.15-.105 1.155-.18 1.15-.145 1.115-.215 1.12-.18 1.04-.215 1.08-.255zm-10.62-40.895v-2l.11-.18 1.08-1.66.54-.825.575-.83.575-.79.575-.795.58-.755.25-.325c.07 0 .18-.035.25-.035.47 0 .9.035 1.37.035h-.36l-.5.685-.64.715-.575.795-.58.79-.575.83-.54.825-1.08 1.66-.5.86-.5.865zm0-2v2l-.43.755-.47.9-.465.9-.47.935-.43.9-.435 1-.395.935-.395.97-.395 1-.72 2-.65 2.09-.325 1.08-.285 1.08-.255 1.08-.25 1.15-.255 1.115-.215 1.19-.18 1.15-.17 1.01h-1.87l-.935-.035h-.395v-.325h2.195l.18-1.045.18-1.15.215-1.19.25-1.115.255-1.15.25-1.08.29-1.08.285-1.08.325-1.045.36-1.045.325-1 .395-1 .36-1 .395-.97.435-.935.43-.975.435-.9.43-.935.47-.9.5-.9.47-.865.5-.865.43-.68zm0 21.885-.18.035-.825.18-.865.18-1.73.29-.865.11-.9.105h-.465l-.035.435h.575l.9-.075.9-.105.865-.11.9-.145.86-.145.83-.18h.035zm0 11.595v.465l-.465.075-1.045.105-1.045.075-2.16.14-1.08.04-1.08.035h-3.5v-.36h2.5l1.12-.035 1.08-.04 2.16-.14 1.04-.075 1.045-.105 1.045-.145.395-.035zm0 11.16v.43l-.575.035-1.19.075-1.22.07-2.38.07-1.22.04h-1.205l-1.225-.04h-.645c-.18-.105-.36-.215-.58-.36h.255l1.185.04h1.225l1.19-.04 1.225-.035 1.185-.035 1.19-.07 1.185-.075 1.19-.07.395-.035zm-10.39-46.47c.085-.074.182-.135.285-.18-.103.045-.2.106-.285.18zm.935 47.265.43.215zm.575.29c.29.18.61.36.9.5-.31-.14-.61-.32-.9-.485zm-1.5-47.555c-.11.07-.22.105-.325.18.105-.075.215-.11.325-.18zm0 24.73v.34l-.54-.035-1-.04-.97-.07-.935-.11-.58-.035v-.285l.54.07 1 .07.935.04.97.035.58.035zm0 11.125v.36l-1-.035-1.115-.04-1.15-.035-.745-.035v-.325l.94.035 1.115.04 1.115.035zm-4-28.875v-2.445l.22-.47.395-.755.79-1.44h.035c.72-.61 1.5-1.15 2.235-1.69l-.435.645-.43.685-.395.72-.435.72-.39.72-.395.755-.36.795-.395.755-.36.79zm0-2.445v2.445l-.25.615-.36.825-.65 1.66-.32.86-.58 1.73-.285.9-.255.865-.25.9-.25.865-.255.9-.645 2.7-.22.9-.36 1.8-.14.86-.155.71-.255-.07-.5-.11v-1.365l.07-.36.36-1.8.215-.9.18-.9.215-.9.255-.9.215-.9.25-.865.255-.9.285-.865.29-.9.29-.865.285-.865.325-.86.65-1.66.32-.825.36-.83.36-.79.36-.755.18-.325zm0 19.945v.285l-.395-.035-.97-.145-.975-.105-.935-.18-.43-.04.035-.215.36.075.97.105.975.145.97.07zm0 11.265v.325l-.36-.035-1.15-.075-1.15-.07-1.155-.07-1.15-.11-.755-.07v-.255l.935.075 1.15.07 1.155.07 1.115.075 1.15.07zm-5.72.215c.07.11.105.22.18.325-.075-.105-.11-.215-.18-.325zm.18.325c.07.145.14.255.215.395-.085-.14-.155-.25-.225-.395zm-.18-13.785v1.365l-.435-.07-.97-.18-.935-.215-.255-.075v-.145l.215.075 1 .18.935.18.25.07.11-.685.11-.5zm0 12.885v.255h-.19c-.04-.11-.075-.18-.11-.29h.035l.255.035zm0 .575c-.04-.105-.11-.215-.145-.32.035.105.105.215.145.32z" fill="#f7f1c5" fill-rule="nonzero"/><path d="m88 182c.386-.218.758-.458 1.115-.72l-.105-.325-.395-1.08-.36-1.04-.4-1.045-.43-1-.395-1-.435-.975-.86-1.87-.435-.935-.43-.9-.47-.865-.465-.865-.47-.83-.5-.825-.465-.795-.5-.79-.47-.755-.54-.72-1-1.44-.5-.685-.54-.65-.54-.645-.54-.615-.5-.61-1.08-1.15-1.15-1.08.035-.145.25-.83.29-.79.25-.83.29-.79.285-.83.325-.79.29-.795.285-.825.325-.795.72-1.58.11-.22.285.18 1.3 1 .68.54 1.3 1.15.645.58.615.645.645.615.65.68.61.685.615.72.61.72.65.795.61.755.575.825.615.83.61.9.575.865.575.935.615.935 1.15 2 .54 1.045.575 1.045.54 1.115.58 1.115.54 1.155.54 1.225.54 1.22.36.865c.285-.43.575-.865.825-1.295l-.035-.07-.54-1.26-1.08-2.38-.575-1.15-.575-1.115-.54-1.08-.615-1.08-1.15-2-.615-.975-.575-.935-.61-.9-.615-.9-.61-.865-.61-.825-.65-.795-.67-.78-.65-.755-.65-.72-.645-.72-.65-.685-.645-.685-.65-.61-.61-.63-.68-.61-.685-.575-.65-.54-.685-.54-.68-.5-.5-.36.105-.18.4-.755.395-.795.43-.755.435-.79.465-.76.47-.755.465-.755.5-.72.54-.755.54-.72.575-.755.325-.4.5.4 1.44 1.15.685.575.685.615.645.61.685.61.65.65.61.65.65.645.61.65.575.685.615.68.575.72.575.685.54.72.54.755.54.72.54.76.5.79.5.755.5.795.47.79.5.83.43.79.47.83.43.86.435.865.43.865.29.65c.035-.435.035-.9.035-1.335 0-.54 0-1.08-.035-1.62l-.47-.865-.47-.86-.465-.83-.475-.82-.5-.825-.5-.795-.5-.79-.54-.79-.54-.76-.54-.755-.575-.755-.54-.755-.615-.72-.575-.72-.61-.685-.615-.685-.645-.685-.615-.68-.645-.65-.685-.65-.685-.645-.685-.615-.685-.61-.705-.61-.72-.615-.72-.575-.5-.36.07-.07.61-.685.65-.72.65-.685.72-.685v-.035c-.36-.215-.76-.43-1.155-.65l-.465.47-.685.72-.65.72-.645.72-.65.755-.575.72-.575.755-.58.76-.54.755-.5.79-.5.755-.5.795-.47.79-.43.755-.43.795-.435.79-.395.83-.395.79-.36.795-.36.825-.325.795-.36.825-.325.83-.325.79-.285.83-.29.825-.285.83-.29.83-.25.825-.29.795-.145.54-.5.215-.755.285-.79.255-.83.25-.79.215-.865.18-.83.18-.86.145-.9.145-.865.11-.9.105-.9.075h-.61l.105-.76.18-1.15.215-1.15.255-1.12.215-1.115.29-1.08.285-1.045.29-1.04.285-1.045.36-1 .325-1 .36-.975.36-.97.395-.935.4-.94.43-.935.43-.9.435-.9.485-.89.47-.9.47-.825.5-.865.5-.83.54-.825.5-.83.54-.79.575-.795.54-.79.575-.755.615-.795.575-.755.47-.575-1.55-.11-.5.685-.625.755-.575.795-.58.79-.575.83-.54.825-1.08 1.66-.5.86-1 1.73-.47.9-.465.9-.47.935-.43.9-.435 1-.395.935-.395.97-.395 1-.72 2-.65 2.09-.325 1.08-.285 1.08-.255 1.08-.25 1.15-.255 1.115-.215 1.19-.18 1.15-.155 1.035h-1.87l-1.87-.07-1-.04-.97-.07-.935-.11-.975-.07-.97-.145-.975-.105-.935-.18-.43-.04.105-.645.18-.9.18-.865.18-.9.185-.86.22-.9.215-.865.215-.9.25-.86.255-.9.25-.865.255-.865.285-.865.29-.865.285-.825.29-.83.325-.825.325-.83.32-.79.36-.795.325-.79.395-.755.36-.76.36-.72.42-.695.395-.68.395-.685.43-.65.435-.645.43-.615.435-.575.9-1.115-.04-.035c-.97.5-1.905 1.04-2.805 1.62l-.435.645-.43.685-.395.72-.435.72-.38.71-.395.755-.36.795-.395.755-.36.79-.325.83-.36.825-.65 1.66-.32.86-.58 1.73-.285.9-.255.865-.25.9-.25.865-.255.9-.645 2.7-.22.9-.36 1.8-.14.86-.16.71-.255-.07-.935-.18-.97-.18-.935-.215-.255-.075v1.295l.935.22.98.205.97.18.975.18.97.145.97.18 1 .105.97.145 1 .11 1 .07.975.07.97.075 1 .035.97.035h.97l.94-.035.97-.035.935-.035.935-.075.94-.105.9-.11 1.8-.29.9-.18.86-.215.865-.215.83-.25.825-.29.83-.29.685-.285.395.36.54.5.5.54 1.08 1.15.465.61.5.615.54.645 1 1.37.465.685.5.72.5.755.395.65-.79.32-.935.4-.9.32-.94.325-.935.29-.97.285-1 .255-.97.215-1 .215-1 .18-1 .145-1.045.145-1.04.145-1.045.105-1.045.075-2.16.14-1.08.04-1.08.035h-3.35l-1.115-.035-1.115-.04-1.15-.035-1.12-.07-1.15-.075-1.15-.07-1.155-.07-1.15-.11-.325-.035v1.08l.11.215h.105l1.165.09 1.15.07 1.19.11 1.15.035 1.15.07 1.12.075 1.15.035h1.15l1.12.035h1.115l1.115-.035h1.09l1.115-.075 1.08-.035 1.12-.07 1.08-.11 1.04-.105 1.08-.145 2.09-.29 2.09-.43 1-.215 1-.255.97-.285.975-.29.97-.36.935-.325.955-.405.975-.43.36.61.465.79.47.865.43.83.435.9.43.9.435.9.43.935.395.97.435.975.36.935-.54.215-.975.325-.97.325-1 .325-1 .285-1.045.29-1.08.25-1.08.255-1.08.215-1.08.18-1.115.215-1.12.145-1.15.18-1.15.105-1.19.145-1.19.11-1.15.07-1.19.075-1.22.07-2.38.07-1.22.04h-1.195l-1.225-.04h-.645c.79.47 1.62.9 2.445 1.3h.615l1.22-.04h1.225l1.225-.07 1.225-.035 1.185-.075 1.19-.105 1.225-.11 1.15-.105 1.19-.145 1.185-.18 1.155-.145 1.115-.215 1.115-.18 1.115-.255 1.08-.215 1.08-.285 1.08-.29 1.045-.29 1.045-.32 1-.325.97-.36.54-.215.36.935.36 1.045z" fill="#6a5224" fill-rule="nonzero"/></g></svg>