<svg clip-rule="evenodd" fill-rule="evenodd" stroke-linejoin="round" stroke-miterlimit="2" viewBox="0 0 560 400" xmlns="http://www.w3.org/2000/svg"><g fill-rule="nonzero" transform="matrix(.909091 0 0 .906966 180 43.8591)"><path d="m0 0c-4.979 1.342-9.098 3.572-11.727 6.565-2.51 2.846-3.789 6.401-3.784 10.414v19.896h31.019v-19.896c.006-4.013-1.272-7.568-3.783-10.414-2.629-2.993-6.743-5.223-11.725-6.565" fill="#fff" transform="matrix(7.09242 0 0 -7.09242 110.01073276 343.607994282)"/><path d="m0 0c0-7.641-4.938-13.041-14.187-15.603-9.253 2.562-14.155 7.962-14.155 15.603v18.377h28.342z" fill="#fff" transform="matrix(7.09242 0 0 -7.09242 210.40393786 223.189341312)"/><path d="m0 0c0-7.486-4.835-12.775-13.897-15.285-9.065 2.51-13.866 7.799-13.866 15.285v18.004h27.763zm-28.533 18.754v-18.756c0-3.832 1.202-7.146 3.567-9.837 2.479-2.824 6.201-4.919 11.066-6.23 4.868 1.311 8.592 3.406 11.072 6.23 2.365 2.691 3.564 6.005 3.564 9.837v18.756z" fill="#2b57ac" transform="matrix(7.09242 0 0 -7.09242 208.5740935 223.172319504)"/><path d="m0 0-.008.135h-.082c-.06-.033-.13-.123-.179-.253l-.023-.062c-.057-.177-.055-.312-.055-.312s.133.135.213.243l.034.051z" fill="#1c5329" transform="matrix(7.09242 0 0 -7.09242 106.95389974 256.632229338)"/><path d="m0 0c-.097-.068-.34-.287-.196-.628.168-.399.543-.42.639-.417l.022.061c.05.13.12.219.18.253-.019.118-.046.269-.082.366-.048.12-.156.276-.219.359-.059-.033-.167-.045-.344.006" fill="#ea1f29" transform="matrix(7.09242 0 0 -7.09242 101.74097104 250.488775134)"/><path d="m0 0c-.04.056-.068.182-.082.368v.037c-.104.084-.468.334-.815.05-.359-.29-.227-.663-.166-.792l.294-.094c.081.064.217.168.345.248.132.083.308.149.424.183" fill="#ea1f29" transform="matrix(7.09242 0 0 -7.09242 109.82632984 246.63617259)"/><path d="m0 0c-.231.035-.388-.023-.388-.023s.053-.107.335-.187l.007-.001c.178-.051.286-.038.345-.006l.055.077-.028.041-.295.095z" fill="#1c5329" transform="matrix(7.09242 0 0 -7.09242 102.065094634 248.992983756)"/><path d="m0 0c-.133.003-.335 0-.494-.033-.184-.042-.412-.14-.521-.192l-.1-.197-.034-.052c.06-.074.311-.348.732-.292.482.06.602.392.623.473l-.032.038z" fill="#ea1f29" transform="matrix(7.09242 0 0 -7.09242 114.154124524 255.038562564)"/><path d="m0 0-.125-.062c-.126-.047-.235-.09-.305-.094-.025-.076-.054-.18-.062-.3-.008-.118.012-.25.028-.338.059-.044.13-.118.21-.221l.022-.03.047-.077c.143-.006.459.034.526.484.078.503-.271.62-.341.638" fill="#ea1f29" transform="matrix(7.09242 0 0 -7.09242 118.161341824 248.62205019)"/><path d="m0 0c.013.059.106.548-.33.773-.307.157-.564-.007-.69-.119l.013-.083c.019-.154.014-.296-.011-.377.034-.027.168-.127.315-.197.13-.06.292-.108.335-.118l.235.087z" fill="#ea1f29" transform="matrix(7.09242 0 0 -7.09242 117.769130998 247.768832064)"/><path d="m0 0-.014.083c-.035.165-.113.188-.113.188s-.077-.046-.068-.278v-.037c.013-.185.041-.311.081-.368l.054-.027.046.06.002.003c.025.081.03.222.012.376" fill="#1c5329" transform="matrix(7.09242 0 0 -7.09242 110.630610268 243.719060244)"/><path d="m0 0c.11.059.232.133.226.144-.005.008-.139.003-.281-.023l-.134-.035-.234-.087-.086-.114.079-.041c.07.004.179.047.305.094z" fill="#1c5329" transform="matrix(7.09242 0 0 -7.09242 118.161341824 248.62205019)"/><path d="m0 0c-.08.104-.151.177-.21.222l-.061.038-.061-.006-.007-.077.028-.066.173-.255.032-.038.026-.024c.113-.105.215-.109.215-.109s.002.084-.066.209l-.048.076z" fill="#1c5329" transform="matrix(7.09242 0 0 -7.09242 116.360576386 255.8244027)"/><path d="m0 0c.04-.152-.085-.315-.277-.364-.192-.048-.381.033-.419.184-.04.15.086.312.277.361.192.051.379-.03.419-.181" fill="#f2bb0e" transform="matrix(7.09242 0 0 -7.09242 112.179594796 250.503669216)"/><path d="m0 0-.008.135h-.083c-.058-.033-.13-.123-.178-.253l-.02-.062c-.058-.177-.058-.312-.058-.312s.135.135.216.243l.032.051z" fill="#1c5329" transform="matrix(7.09242 0 0 -7.09242 179.969654398 256.632229338)"/><path d="m0 0c-.094-.068-.337-.287-.193-.628.166-.399.543-.42.641-.417l.02.061c.047.13.12.219.178.253-.017.118-.044.269-.08.366-.05.12-.158.276-.219.359-.058-.033-.167-.045-.347.006" fill="#ea1f29" transform="matrix(7.09242 0 0 -7.09242 174.743959342 250.488775134)"/><path d="m0 0c-.039.056-.067.182-.082.368l-.003.037c-.099.084-.465.334-.812.05-.358-.29-.227-.663-.169-.792l.296-.094c.081.064.218.168.345.248.134.083.311.149.425.183" fill="#ea1f29" transform="matrix(7.09242 0 0 -7.09242 182.848467676 246.63617259)"/><path d="m0 0c-.231.035-.383-.023-.383-.023s.05-.107.332-.187l.005-.001c.18-.051.289-.038.348-.006l.055.077-.03.041-.296.095z" fill="#1c5329" transform="matrix(7.09242 0 0 -7.09242 175.068082936 248.992983756)"/><path d="m0 0c-.132.003-.332 0-.491-.033-.186-.042-.412-.14-.524-.192l-.098-.197-.033-.052c.058-.074.308-.348.729-.292.482.06.602.392.624.473l-.032.038z" fill="#ea1f29" transform="matrix(7.09242 0 0 -7.09242 187.16562373 255.038562564)"/><path d="m0 0-.127-.062c-.128-.047-.234-.09-.303-.094-.029-.076-.058-.18-.065-.3-.008-.118.013-.25.03-.338.058-.044.128-.118.208-.221l.021-.03.049-.077c.145-.006.459.034.527.484.078.503-.271.62-.34.638" fill="#ea1f29" transform="matrix(7.09242 0 0 -7.09242 191.196246016 248.62205019)"/><path d="m0 0c.015.059.106.548-.329.773-.31.157-.564-.007-.691-.119l.013-.083c.019-.154.014-.296-.013-.377.038-.027.17-.127.315-.197.13-.06.293-.108.336-.118l.235.087z" fill="#ea1f29" transform="matrix(7.09242 0 0 -7.09242 190.796233528 247.768832064)"/><path d="m0 0-.013.083c-.037.165-.114.188-.114.188s-.078-.046-.071-.278l.003-.037c.015-.185.042-.311.081-.368l.055-.027.045.06.001.003c.027.081.032.222.013.376" fill="#1c5329" transform="matrix(7.09242 0 0 -7.09242 183.657712798 243.719060244)"/><path d="m0 0c.109.059.231.133.224.144-.004.008-.139.003-.28-.023l-.135-.035-.235-.087-.087-.114.083-.041c.069.004.175.047.303.094z" fill="#1c5329" transform="matrix(7.09242 0 0 -7.09242 191.196246016 248.62205019)"/><path d="m0 0c-.081.104-.15.177-.208.222l-.063.038-.061-.006-.006-.077.026-.066.175-.255.032-.038.024-.024c.115-.105.218-.109.218-.109s0 .084-.068.209l-.048.076z" fill="#1c5329" transform="matrix(7.09242 0 0 -7.09242 189.376331044 255.8244027)"/><path d="m0 0c.04-.152-.085-.315-.277-.364-.193-.048-.381.033-.42.184-.039.15.085.312.278.361.193.051.38-.03.419-.181" fill="#f2bb0e" transform="matrix(7.09242 0 0 -7.09242 185.201732632 250.503669216)"/><path d="m0 0-.007.135h-.081c-.06-.033-.13-.123-.179-.253l-.02-.062c-.059-.177-.058-.312-.058-.312s.134.135.215.243l.033.051z" fill="#1c5329" transform="matrix(7.09242 0 0 -7.09242 33.37004224 256.632229338)"/><path d="m0 0c-.093-.068-.335-.287-.194-.628.167-.399.543-.42.643-.417l.02.061c.049.13.119.219.178.253-.017.118-.044.269-.08.366-.049.12-.158.276-.218.359-.06-.033-.168-.045-.349.006" fill="#ea1f29" transform="matrix(7.09242 0 0 -7.09242 28.152858088 250.488775134)"/><path d="m0 0c-.037.056-.067.182-.079.368l-.002.037c-.102.084-.465.334-.814.05-.358-.29-.228-.663-.164-.792l.293-.094c.081.064.217.168.345.248.133.083.309.149.421.183" fill="#ea1f29" transform="matrix(7.09242 0 0 -7.09242 36.240344614 246.63617259)"/><path d="m0 0c-.23.035-.385-.023-.385-.023s.051-.107.334-.187l.005-.001c.181-.051.289-.038.348-.006l.054.077-.029.041-.293.095z" fill="#1c5329" transform="matrix(7.09242 0 0 -7.09242 28.481237134 248.992983756)"/><path d="m0 0c-.132.003-.333 0-.493-.033-.185-.042-.41-.14-.523-.192l-.097-.197-.033-.052c.058-.074.309-.348.731-.292.481.06.599.392.622.473l-.033.038z" fill="#ea1f29" transform="matrix(7.09242 0 0 -7.09242 40.578068686 255.038562564)"/><path d="m0 0-.125-.062c-.128-.047-.236-.09-.305-.094-.028-.076-.056-.18-.066-.3-.005-.118.014-.25.034-.338.056-.044.126-.118.207-.221l.02-.03.048-.077c.144-.006.461.034.528.484.077.503-.271.62-.341.638" fill="#ea1f29" transform="matrix(7.09242 0 0 -7.09242 44.60088931 248.62205019)"/><path d="m0 0c.013.059.105.548-.331.773-.308.157-.563-.007-.691-.119l.015-.083c.019-.154.012-.296-.015-.377.039-.027.171-.127.316-.197.132-.06.294-.108.337-.118l.236.087z" fill="#ea1f29" transform="matrix(7.09242 0 0 -7.09242 44.20726 247.768832064)"/><path d="m0 0-.015.083c-.035.165-.112.188-.112.188s-.079-.046-.07-.278l.001-.037c.014-.185.042-.311.08-.368l.055-.027.046.06v.003c.028.081.034.222.015.376" fill="#1c5329" transform="matrix(7.09242 0 0 -7.09242 37.064483818 243.719060244)"/><path d="m0 0c.109.059.232.133.224.144-.003.008-.14.003-.28-.023l-.133-.035-.235-.087-.087-.114.081-.041c.069.004.177.047.305.094z" fill="#1c5329" transform="matrix(7.09242 0 0 -7.09242 44.60088931 248.62205019)"/><path d="m0 0c-.081.104-.151.177-.207.222l-.064.038-.062-.006-.003-.077.024-.066.174-.255.033-.038.024-.024c.115-.105.218-.109.218-.109s0 .084-.068.209l-.049.076z" fill="#1c5329" transform="matrix(7.09242 0 0 -7.09242 42.791612968 255.8244027)"/><path d="m0 0c.039-.152-.084-.315-.277-.364-.192-.048-.38.033-.418.184-.039.15.085.312.277.361.191.051.381-.03.418-.181" fill="#f2bb0e" transform="matrix(7.09242 0 0 -7.09242 38.6042482 250.503669216)"/><path d="m0 0-.008.135-.082.002c-.06-.037-.13-.127-.179-.256l-.023-.059c-.057-.177-.055-.314-.055-.314s.133.135.213.242l.034.049z" fill="#1c5329" transform="matrix(7.09242 0 0 -7.09242 106.95389974 188.576203986)"/><path d="m0 0c-.097-.068-.34-.285-.196-.63.168-.396.543-.417.639-.415l.022.061c.05.128.12.218.18.254-.019.117-.046.271-.082.364-.048.121-.156.277-.219.36-.059-.031-.167-.045-.344.006" fill="#ea1f29" transform="matrix(7.09242 0 0 -7.09242 101.74097104 182.433459024)"/><path d="m0 0c-.04.053-.068.18-.082.367v.036c-.104.083-.468.334-.815.049-.359-.29-.227-.664-.166-.793l.294-.093c.081.066.217.17.345.25.132.082.308.147.424.184" fill="#ea1f29" transform="matrix(7.09242 0 0 -7.09242 109.82632984 178.563834672)"/><path d="m0 0c-.231.034-.388-.024-.388-.024s.053-.106.335-.186l.007-.001c.178-.052.286-.037.345-.006l.055.077-.028.04-.295.094z" fill="#1c5329" transform="matrix(7.09242 0 0 -7.09242 102.065094634 180.936249162)"/><path d="m0 0c-.133.004-.335 0-.494-.033-.184-.041-.412-.138-.521-.191l-.1-.2-.034-.049c.06-.073.311-.345.732-.292.482.062.602.392.623.473l-.032.039z" fill="#ea1f29" transform="matrix(7.09242 0 0 -7.09242 114.154124524 186.989629632)"/><path d="m0 0-.125-.061c-.126-.048-.235-.091-.305-.095-.025-.073-.054-.181-.062-.302-.008-.116.012-.249.028-.337.059-.042.13-.118.21-.222l.022-.03.047-.075c.143-.007.459.033.526.482.078.504-.271.621-.341.64" fill="#ea1f29" transform="matrix(7.09242 0 0 -7.09242 118.161341824 180.565315596)"/><path d="m0 0c.013.06.106.548-.33.772-.307.158-.564-.005-.69-.118l.013-.084c.019-.153.014-.295-.011-.375.034-.027.168-.128.315-.197.13-.061.292-.108.335-.12l.235.089z" fill="#ea1f29" transform="matrix(7.09242 0 0 -7.09242 117.769130998 179.714225196)"/><path d="m0 0-.014.084c-.035.163-.113.187-.113.187s-.077-.048-.068-.277v-.036c.013-.187.041-.313.081-.367l.054-.031.046.06.002.004c.025.08.03.223.012.376" fill="#1c5329" transform="matrix(7.09242 0 0 -7.09242 110.630610268 175.663744134)"/><path d="m0 0c.11.058.232.133.226.143-.005.007-.139.004-.281-.023l-.134-.033-.234-.089-.086-.115.079-.039c.07.004.179.047.305.095z" fill="#1c5329" transform="matrix(7.09242 0 0 -7.09242 118.161341824 180.565315596)"/><path d="m0 0c-.08.104-.151.18-.21.222l-.061.04-.061-.007-.007-.075.028-.069.173-.253.032-.038.026-.025c.113-.105.215-.108.215-.108s.002.083-.066.207l-.048.076z" fill="#1c5329" transform="matrix(7.09242 0 0 -7.09242 116.360576386 187.775469768)"/><path d="m0 0c.04-.152-.085-.314-.277-.364s-.381.032-.419.181c-.04.152.086.315.277.365.192.05.379-.031.419-.182" fill="#f2bb0e" transform="matrix(7.09242 0 0 -7.09242 112.179594796 182.44622538)"/><path d="m0 0-.006.135-.085.002c-.056-.037-.129-.127-.177-.256l-.023-.059c-.056-.177-.056-.314-.056-.314s.135.135.218.242l.032.049z" fill="#1c5329" transform="matrix(7.09242 0 0 -7.09242 32.452992334 188.576203986)"/><path d="m0 0c-.095-.068-.338-.285-.195-.63.166-.396.545-.417.64-.415l.023.061c.047.128.121.218.176.254-.014.117-.042.271-.078.364-.051.121-.157.277-.219.36-.059-.031-.167-.045-.347.006" fill="#ea1f29" transform="matrix(7.09242 0 0 -7.09242 27.235808182 182.433459024)"/><path d="m0 0c-.04.053-.066.18-.082.367v.036c-.104.083-.468.334-.816.049-.356-.29-.226-.664-.166-.793l.297-.093c.079.066.215.17.344.25.133.082.31.147.423.184" fill="#ea1f29" transform="matrix(7.09242 0 0 -7.09242 35.329677886 178.563834672)"/><path d="m0 0c-.23.034-.386-.024-.386-.024s.054-.106.334-.186l.006-.001c.18-.052.288-.037.348-.006l.054.077-.027.04-.298.094z" fill="#1c5329" transform="matrix(7.09242 0 0 -7.09242 27.559931776 180.936249162)"/><path d="m0 0c-.131.004-.333 0-.491-.033-.184-.041-.413-.138-.524-.191l-.097-.2-.032-.049c.057-.073.306-.345.727-.292.482.062.603.392.624.473l-.032.039z" fill="#ea1f29" transform="matrix(7.09242 0 0 -7.09242 39.648961666 186.989629632)"/><path d="m0 0-.127-.061c-.126-.048-.233-.091-.302-.095-.028-.073-.057-.181-.066-.302-.005-.116.015-.249.032-.337.057-.042.126-.118.208-.222l.021-.03.048-.075c.142-.007.459.033.528.482.076.504-.272.621-.342.64" fill="#ea1f29" transform="matrix(7.09242 0 0 -7.09242 43.6753285 180.565315596)"/><path d="m0 0c.012.06.105.548-.33.772-.309.158-.564-.005-.69-.118l.013-.084c.018-.153.014-.295-.013-.375.037-.027.17-.128.314-.197.132-.061.295-.108.338-.12l.235.089z" fill="#ea1f29" transform="matrix(7.09242 0 0 -7.09242 43.278862222 179.714225196)"/><path d="m0 0-.014.084c-.035.163-.113.187-.113.187s-.077-.048-.069-.277v-.036c.016-.187.042-.313.082-.367l.054-.031.046.06.001.004c.028.08.03.223.013.376" fill="#1c5329" transform="matrix(7.09242 0 0 -7.09242 36.138923008 175.663744134)"/><path d="m0 0c.11.058.232.133.224.143-.004.007-.138.004-.28-.023l-.133-.033-.235-.089-.088-.115.083-.039c.069.004.176.047.302.095z" fill="#1c5329" transform="matrix(7.09242 0 0 -7.09242 43.6753285 180.565315596)"/><path d="m0 0c-.081.104-.151.18-.208.222l-.064.04-.061-.007-.007-.075.027-.069.175-.253.032-.038.025-.025c.114-.105.217-.108.217-.108s.002.083-.068.207l-.047.076z" fill="#1c5329" transform="matrix(7.09242 0 0 -7.09242 41.868179884 187.775469768)"/><path d="m0 0c.039-.152-.085-.314-.277-.364s-.38.032-.418.181c-.039.152.083.315.277.365.191.05.38-.031.418-.182" fill="#f2bb0e" transform="matrix(7.09242 0 0 -7.09242 37.685070568 182.44622538)"/><path d="m0 0-.006.135-.083.002c-.058-.037-.13-.127-.178-.256l-.021-.059c-.058-.177-.057-.314-.057-.314s.135.135.215.242l.034.049z" fill="#1c5329" transform="matrix(7.09242 0 0 -7.09242 181.613677354 188.576203986)"/><path d="m0 0c-.094-.068-.335-.285-.194-.63.167-.396.544-.417.641-.415l.022.061c.047.128.119.218.177.254-.017.117-.044.271-.08.364-.049.121-.157.277-.219.36-.057-.031-.166-.045-.347.006" fill="#ea1f29" transform="matrix(7.09242 0 0 -7.09242 176.398620928 182.433459024)"/><path d="m0 0c-.039.053-.065.18-.08.367l-.002.036c-.101.083-.466.334-.815.049-.358-.29-.228-.664-.165-.793l.296-.093c.079.066.216.17.344.25.133.082.309.147.422.184" fill="#ea1f29" transform="matrix(7.09242 0 0 -7.09242 184.494618358 178.563834672)"/><path d="m0 0c-.229.034-.385-.024-.385-.024s.051-.106.334-.186l.005-.001c.181-.052.29-.037.348-.006l.055.077-.027.04-.296.094z" fill="#1c5329" transform="matrix(7.09242 0 0 -7.09242 176.724872248 180.936249162)"/><path d="m0 0c-.132.004-.336 0-.492-.033-.185-.041-.413-.138-.525-.191l-.098-.2-.033-.049c.06-.073.311-.345.731-.292.481.062.6.392.622.473l-.032.039z" fill="#ea1f29" transform="matrix(7.09242 0 0 -7.09242 188.830214704 186.989629632)"/><path d="m0 0-.126-.061c-.126-.048-.236-.091-.305-.095-.027-.073-.057-.181-.064-.302-.006-.116.013-.249.031-.337.058-.042.126-.118.209-.222l.022-.03.047-.075c.142-.007.459.033.528.482.075.504-.273.621-.342.64" fill="#ea1f29" transform="matrix(7.09242 0 0 -7.09242 192.848779876 180.565315596)"/><path d="m0 0c.013.06.103.548-.332.772-.306.158-.562-.005-.689-.118l.015-.084c.019-.153.014-.295-.012-.375.035-.027.166-.128.312-.197.133-.061.293-.108.337-.12l.236.089z" fill="#ea1f29" transform="matrix(7.09242 0 0 -7.09242 192.452313598 179.714225196)"/><path d="m0 0-.015.084c-.034.163-.112.187-.112.187s-.08-.048-.07-.277l.001-.036c.014-.187.041-.313.08-.367l.056-.031.048.064c.026.08.031.223.012.376" fill="#1c5329" transform="matrix(7.09242 0 0 -7.09242 185.315920594 175.663744134)"/><path d="m0 0c.109.058.231.133.226.143-.005.007-.142.004-.282-.023l-.133-.033-.236-.089-.086-.115.08-.039c.069.004.179.047.305.095z" fill="#1c5329" transform="matrix(7.09242 0 0 -7.09242 192.848779876 180.565315596)"/><path d="m0 0c-.082.104-.152.18-.208.222l-.063.04-.062-.007-.005-.075.026-.069.173-.253.033-.038.024-.025c.115-.105.218-.108.218-.108s0 .083-.067.207l-.048.076z" fill="#1c5329" transform="matrix(7.09242 0 0 -7.09242 191.04163126 187.775469768)"/><path d="m0 0c.04-.152-.084-.314-.276-.364-.193-.05-.379.032-.419.181-.039.152.086.315.278.365.193.05.378-.031.417-.182" fill="#f2bb0e" transform="matrix(7.09242 0 0 -7.09242 186.847883314 182.44622538)"/><path d="m0 0-.008.135-.082.001c-.06-.034-.13-.124-.179-.254l-.023-.06c-.057-.177-.055-.312-.055-.312s.133.132.213.241l.034.049z" fill="#1c5329" transform="matrix(7.09242 0 0 -7.09242 106.95389974 120.52939878)"/><path d="m0 0c-.097-.068-.34-.286-.196-.63.168-.396.543-.417.639-.415l.022.061c.05.129.12.22.18.253-.019.118-.046.27-.082.365-.048.121-.156.277-.219.36-.059-.031-.167-.045-.344.006" fill="#ea1f29" transform="matrix(7.09242 0 0 -7.09242 101.74097104 114.384526092)"/><path d="m0 0c-.04.055-.068.182-.082.368v.037c-.104.082-.468.334-.815.05-.359-.291-.227-.664-.166-.793l.294-.093c.081.064.217.168.345.247.132.083.308.147.424.184" fill="#ea1f29" transform="matrix(7.09242 0 0 -7.09242 109.82632984 110.52554037)"/><path d="m0 0c-.231.034-.388-.022-.388-.022s.053-.107.335-.187l.007-.002c.178-.051.286-.037.345-.006l.055.079-.028.04-.295.093z" fill="#1c5329" transform="matrix(7.09242 0 0 -7.09242 102.065094634 112.891571682)"/><path d="m0 0c-.133.003-.335.001-.494-.034-.184-.04-.412-.138-.521-.189l-.1-.2-.034-.05c.06-.073.311-.345.732-.29.482.06.602.391.623.472l-.032.037z" fill="#ea1f29" transform="matrix(7.09242 0 0 -7.09242 114.154124524 118.944952152)"/><path d="m0 0-.125-.06c-.126-.048-.235-.089-.305-.095-.025-.074-.054-.181-.062-.301-.008-.118.012-.25.028-.337.059-.044.13-.118.21-.222l.022-.03.047-.078c.143-.006.459.036.526.484.078.504-.271.621-.341.639" fill="#ea1f29" transform="matrix(7.09242 0 0 -7.09242 118.161341824 112.522765842)"/><path d="m0 0c.013.059.106.548-.33.772-.307.156-.564-.005-.69-.118l.013-.084c.019-.152.014-.295-.011-.375.034-.027.168-.129.315-.197.13-.061.292-.109.335-.12l.235.089z" fill="#ea1f29" transform="matrix(7.09242 0 0 -7.09242 117.769130998 111.663164538)"/><path d="m0 0-.014.083c-.035.164-.113.188-.113.188s-.077-.047-.068-.277v-.036c.013-.187.041-.314.081-.369l.054-.028.046.059.002.004c.025.079.03.223.012.376" fill="#1c5329" transform="matrix(7.09242 0 0 -7.09242 110.630610268 107.612683476)"/><path d="m0 0c.11.059.232.133.226.144-.005.008-.139.004-.281-.023l-.134-.033-.234-.089-.086-.114.079-.04c.07.006.179.047.305.095z" fill="#1c5329" transform="matrix(7.09242 0 0 -7.09242 118.161341824 112.522765842)"/><path d="m0 0c-.08.103-.151.178-.21.221l-.061.039-.061-.006-.007-.076.028-.068.173-.254.032-.037.026-.025c.113-.105.215-.11.215-.11s.002.085-.066.208l-.048.078z" fill="#1c5329" transform="matrix(7.09242 0 0 -7.09242 116.360576386 119.720153658)"/><path d="m0 0c.04-.151-.085-.313-.277-.363s-.381.031-.419.183c-.04.15.086.313.277.363.192.05.379-.033.419-.183" fill="#f2bb0e" transform="matrix(7.09242 0 0 -7.09242 112.179594796 114.405803352)"/><path d="m0 0-.006.135-.085.001c-.056-.034-.129-.124-.177-.254l-.023-.06c-.056-.177-.056-.312-.056-.312s.135.132.218.241l.032.049z" fill="#1c5329" transform="matrix(7.09242 0 0 -7.09242 32.452992334 120.52939878)"/><path d="m0 0c-.095-.068-.338-.286-.195-.63.166-.396.545-.417.64-.415l.023.061c.047.129.121.22.176.253-.014.118-.042.27-.078.365-.051.121-.157.277-.219.36-.059-.031-.167-.045-.347.006" fill="#ea1f29" transform="matrix(7.09242 0 0 -7.09242 27.235808182 114.384526092)"/><path d="m0 0c-.04.055-.066.182-.082.368v.037c-.104.082-.468.334-.816.05-.356-.291-.226-.664-.166-.793l.297-.093c.079.064.215.168.344.247.133.083.31.147.423.184" fill="#ea1f29" transform="matrix(7.09242 0 0 -7.09242 35.329677886 110.52554037)"/><path d="m0 0c-.23.034-.386-.022-.386-.022s.054-.107.334-.187l.006-.002c.18-.051.288-.037.348-.006l.054.079-.027.04-.298.093z" fill="#1c5329" transform="matrix(7.09242 0 0 -7.09242 27.559931776 112.891571682)"/><path d="m0 0c-.131.003-.333.001-.491-.034-.184-.04-.413-.138-.524-.189l-.097-.2-.032-.05c.057-.073.306-.345.727-.29.482.06.603.391.624.472l-.032.037z" fill="#ea1f29" transform="matrix(7.09242 0 0 -7.09242 39.648961666 118.944952152)"/><path d="m0 0-.127-.06c-.126-.048-.233-.089-.302-.095-.028-.074-.057-.181-.066-.301-.005-.118.015-.25.032-.337.057-.044.126-.118.208-.222l.021-.03.048-.078c.142-.006.459.036.528.484.076.504-.272.621-.342.639" fill="#ea1f29" transform="matrix(7.09242 0 0 -7.09242 43.6753285 112.522765842)"/><path d="m0 0c.012.059.105.548-.33.772-.309.156-.564-.005-.69-.118l.013-.084c.018-.152.014-.295-.013-.375.037-.027.17-.129.314-.197.132-.061.295-.109.338-.12l.235.089z" fill="#ea1f29" transform="matrix(7.09242 0 0 -7.09242 43.278862222 111.663164538)"/><path d="m0 0-.014.083c-.035.164-.113.188-.113.188s-.077-.047-.069-.277v-.036c.016-.187.042-.314.082-.369l.054-.028.046.059.001.004c.028.079.03.223.013.376" fill="#1c5329" transform="matrix(7.09242 0 0 -7.09242 36.138923008 107.612683476)"/><path d="m0 0c.11.059.232.133.224.144-.004.008-.138.004-.28-.023l-.133-.033-.235-.089-.088-.114.083-.04c.069.006.176.047.302.095z" fill="#1c5329" transform="matrix(7.09242 0 0 -7.09242 43.6753285 112.522765842)"/><path d="m0 0c-.081.103-.151.178-.208.221l-.064.039-.061-.006-.007-.076.027-.068.175-.254.032-.037.025-.025c.114-.105.217-.11.217-.11s.002.085-.068.208l-.047.078z" fill="#1c5329" transform="matrix(7.09242 0 0 -7.09242 41.868179884 119.720153658)"/><path d="m0 0c.039-.151-.085-.313-.277-.363s-.38.031-.418.183c-.039.15.083.313.277.363.191.05.38-.033.418-.183" fill="#f2bb0e" transform="matrix(7.09242 0 0 -7.09242 37.685070568 114.405803352)"/><path d="m0 0-.006.135-.083.001c-.058-.034-.13-.124-.178-.254l-.021-.06c-.058-.177-.057-.312-.057-.312s.135.132.215.241l.034.049z" fill="#1c5329" transform="matrix(7.09242 0 0 -7.09242 181.613677354 120.52939878)"/><path d="m0 0c-.094-.068-.335-.286-.194-.63.167-.396.544-.417.641-.415l.022.061c.047.129.119.22.177.253-.017.118-.044.27-.08.365-.049.121-.157.277-.219.36-.057-.031-.166-.045-.347.006" fill="#ea1f29" transform="matrix(7.09242 0 0 -7.09242 176.398620928 114.384526092)"/><path d="m0 0c-.039.055-.065.182-.08.368l-.002.037c-.101.082-.466.334-.815.05-.358-.291-.228-.664-.165-.793l.296-.093c.079.064.216.168.344.247.133.083.309.147.422.184" fill="#ea1f29" transform="matrix(7.09242 0 0 -7.09242 184.494618358 110.52554037)"/><path d="m0 0c-.229.034-.385-.022-.385-.022s.051-.107.334-.187l.005-.002c.181-.051.29-.037.348-.006l.055.079-.027.04-.296.093z" fill="#1c5329" transform="matrix(7.09242 0 0 -7.09242 176.724872248 112.891571682)"/><path d="m0 0c-.132.003-.336.001-.492-.034-.185-.04-.413-.138-.525-.189l-.098-.2-.033-.05c.06-.073.311-.345.731-.29.481.06.6.391.622.472l-.032.037z" fill="#ea1f29" transform="matrix(7.09242 0 0 -7.09242 188.830214704 118.944952152)"/><path d="m0 0-.126-.06c-.126-.048-.236-.089-.305-.095-.027-.074-.057-.181-.064-.301-.006-.118.013-.25.031-.337.058-.044.126-.118.209-.222l.022-.03.047-.078c.142-.006.459.036.528.484.075.504-.273.621-.342.639" fill="#ea1f29" transform="matrix(7.09242 0 0 -7.09242 192.848779876 112.522765842)"/><path d="m0 0c.013.059.103.548-.332.772-.306.156-.562-.005-.689-.118l.015-.084c.019-.152.014-.295-.012-.375.035-.027.166-.129.312-.197.133-.061.293-.109.337-.12l.236.089z" fill="#ea1f29" transform="matrix(7.09242 0 0 -7.09242 192.452313598 111.663164538)"/><path d="m0 0-.015.083c-.034.164-.112.188-.112.188s-.08-.047-.07-.277l.001-.036c.014-.187.041-.314.08-.369l.056-.028.045.059.003.004c.026.079.031.223.012.376" fill="#1c5329" transform="matrix(7.09242 0 0 -7.09242 185.315920594 107.612683476)"/><path d="m0 0c.109.059.231.133.226.144-.005.008-.142.004-.282-.023l-.133-.033-.236-.089-.086-.114.08-.04c.069.006.179.047.305.095z" fill="#1c5329" transform="matrix(7.09242 0 0 -7.09242 192.848779876 112.522765842)"/><path d="m0 0c-.082.103-.152.178-.208.221l-.063.039-.062-.006-.005-.076.026-.068.173-.254.033-.037.024-.025c.115-.105.218-.11.218-.11s0 .085-.067.208l-.048.078z" fill="#1c5329" transform="matrix(7.09242 0 0 -7.09242 191.04163126 119.720153658)"/><path d="m0 0c.04-.151-.084-.313-.276-.363-.193-.05-.379.031-.419.183-.039.15.086.313.278.363.193.05.378-.033.417-.183" fill="#f2bb0e" transform="matrix(7.09242 0 0 -7.09242 186.847883314 114.405803352)"/><path d="m0 0-.008.135h-.082c-.06-.035-.13-.123-.179-.255l-.023-.06c-.057-.176-.055-.311-.055-.311s.133.132.213.242l.034.05z" fill="#1c5329" transform="matrix(7.09242 0 0 -7.09242 106.95389974 314.576591496)"/><path d="m0 0c-.097-.068-.34-.284-.196-.629.168-.397.543-.417.639-.416l.022.06c.05.132.12.22.18.254-.019.117-.046.271-.082.364-.048.122-.156.277-.219.362-.059-.032-.167-.045-.344.005" fill="#ea1f29" transform="matrix(7.09242 0 0 -7.09242 101.74097104 308.43952047)"/><path d="m0 0c-.04.056-.068.182-.082.369v.035c-.104.084-.468.334-.815.051-.359-.292-.227-.662-.166-.793l.294-.093c.081.066.217.169.345.248.132.081.308.147.424.183" fill="#ea1f29" transform="matrix(7.09242 0 0 -7.09242 109.82632984 304.580534748)"/><path d="m0 0c-.231.034-.388-.022-.388-.022s.053-.107.335-.189l.007-.001c.178-.05.286-.036.345-.005l.055.077-.028.042-.295.093z" fill="#1c5329" transform="matrix(7.09242 0 0 -7.09242 102.065094634 306.938055156)"/><path d="m0 0c-.133.004-.335 0-.494-.034-.184-.038-.412-.138-.521-.189l-.1-.2-.034-.049c.06-.074.311-.346.732-.293.482.062.602.393.623.473l-.032.039z" fill="#ea1f29" transform="matrix(7.09242 0 0 -7.09242 114.154124524 312.994272594)"/><path d="m0 0-.125-.058c-.126-.05-.235-.092-.305-.097-.025-.075-.054-.18-.062-.301-.008-.118.012-.249.028-.337.059-.043.13-.118.21-.221l.022-.031.047-.077c.143-.005.459.035.526.484.078.503-.271.62-.341.638" fill="#ea1f29" transform="matrix(7.09242 0 0 -7.09242 118.161341824 306.576341736)"/><path d="m0 0c.013.059.106.549-.33.774-.307.155-.564-.007-.69-.121l.013-.083c.019-.153.014-.295-.011-.375.034-.029.168-.129.315-.196.13-.063.292-.11.335-.121l.235.089z" fill="#ea1f29" transform="matrix(7.09242 0 0 -7.09242 117.769130998 305.716740432)"/><path d="m0 0-.014.082c-.035.165-.113.188-.113.188s-.077-.046-.068-.276v-.035c.013-.187.041-.314.081-.369l.054-.029.046.061.002.002c.025.081.03.222.012.376" fill="#1c5329" transform="matrix(7.09242 0 0 -7.09242 110.630610268 301.66980558)"/><path d="m0 0c.11.06.232.135.226.145-.005.008-.139.003-.281-.024l-.134-.033-.234-.089-.086-.114.079-.04c.07.005.179.047.305.097z" fill="#1c5329" transform="matrix(7.09242 0 0 -7.09242 118.161341824 306.576341736)"/><path d="m0 0c-.08.103-.151.178-.21.221l-.061.038-.061-.005-.007-.076.028-.069.173-.253.032-.039.026-.023c.113-.104.215-.109.215-.109s.002.084-.066.207l-.048.077z" fill="#1c5329" transform="matrix(7.09242 0 0 -7.09242 116.360576386 313.768055616)"/><path d="m0 0c.04-.15-.085-.313-.277-.365-.192-.047-.381.033-.419.184-.04.151.086.314.277.363.192.05.379-.031.419-.182" fill="#f2bb0e" transform="matrix(7.09242 0 0 -7.09242 112.179594796 308.45725152)"/><path d="m0 0s.41.577-1.026 1.156c-1.063.428-2.527.338-3.459.467-.78.109-.867.285-.823.48.093.431.822.147 1.277-.097.493-.265 1.371-.352 2.011.241.228.214.549.289.549.289s-.379.24-.689.026c-.128-.087-.23-.177-.49-.198-.457-.034-.542.112-.542.112s.233-.157.806.136c.744.38.297 1.213.297 1.213s.049-.298-.265-.503c-.438-.289-.806-.025-.806-.025s.17-.085.43.013c.326.126.433.295.323.516-.048.094-.201.207-.201.207s.358-.472-1.055-.373c-.714.05-.962-.67-.962-.67s-.327.082-.557.005c.015.11-.001.298-.058.411-.075-.373-.36-.611-.49-.77-.131-.159-.414-.574-.058-1.062.352-.411.993-.471 1.398-.503.602-.045 1.598-.099 2.477-.22 1.189-.164.983-.734.837-.91-.15-.183-.434-.192-1.261.096-.825.29-1.688.805-3.414.737-2.38-.092-4.073-1.833-4.944-1.739 0 0 .046-.209.027-.351-.077-.603-.626-.929-.626-.929l-.077.118c-.056-.008-.004-.132-.199-.277-.187-.14-.283-.295-.351-.575 0 0-.097.193-.155.021-.076-.223-.193-.231-.254-.257l-.054.111c-.077-.004-.106-.483-.938-.404l-.062-.015c-.61-.105-.716.495-.933.704-.141.136-.313-.11-.313-.11s-.117.126-.102.359c.016.245.061.327-.037.496-.075.127-.393.397-.274.856-.145.003-.435.109-.553.962l.102-.012c-.021.13-.135.178-.158.328-.032.22-.06.646.06.796.184.23.692.308.45.757l-.079-.125-.119-.051-.152.164.084.146.007.01c-.091.008-.17-.024-.217-.045.011.098.175.614-.262.731l-.03-.205-.096-.088-.199.1.032.168.018.066c-.422-.052-.336-.601-.33-.686-.011.124-.267.472-.514.315l-.025-.02.081-.084.024-.127-.188-.118-.128.111-.011.014c-.088-.115-.075-.321.162-.501.351-.265.47-1.343.416-1.484-.074-.192-.262.081-.262.081s-.032-.248.145-.5c.313-.448.407-.645.173-.57l-.146.093s.014-.223.299-.456c.113-.092.097-.144.015-.135-.094.013-.165.072-.165.072s.078-.204.222-.398c.242-.324.461-.459.461-.459s-.272.025-.665.251c-.586.341-.339.58-.515.985-.166.387-.275.45-.449.473h-.016l.023-.085-.034-.126-.221-.022-.063.158c-.165-.084-.16-.26-.145-.342-.113.124-.327.296-.475.321-.09.017-.198-.008-.298-.059l-.015-.004.031-.022.061-.114-.148-.167-.154.071-.021.015c-.103-.185-.071-.534.534-.731 0 0-.292-.044-.384-.257l.202-.032.087-.098-.104-.196-.167.03-.027.011c.069-.305.316-.349.524-.349.903.012 1.605-.423 1.605-.423s-.197-.011-.305-.151c-.112-.146-.086-.23-.086-.23s.079.074.306.113c.239.041.286-.045.286-.045s-.348-.128-.213-.491c0 0 .14.154.357.231.18.06.388.048.471-.069.113-.164-.37-.324-.37-.324.337-.201 1.073-.104 1.073-.104s-.515-.092-.511-.428c0 0 .32.245.948 0 .951-.368 2.116-.545 3.64.073 1.92.78 1.972 2.438 4.643 3.321.087-.129.688-.692 1.441-.97.605-.227 1.459-.378 1.72-.439.376-.092 1.042-.234.643-.96-.19-.338-.364-.44-.526-.563-.031.006-.229.062-.514.164-.167.062-.289.025-.342-.09l.127-.022.081-.085-.086-.182-.149.024-.012.003c.02-.204.191-.226.191-.226s-.197-.074-.195-.259l.103.027.112-.034.009-.201-.145-.05.017-.012c.117-.147.457-.037.457-.037s-.079-.176.028-.301l.072.135.107.048.143-.14-.071-.136-.018-.022.059-.006c.165.024.4.175.51.532.135.409.268.498.268.498s.346.326.214-.255c.342.09.3.465.3.465l.358-.06c.115.091.003.362.135.553.147.211.231-.034.177-.205 0 0 .21.065.22.337.011.175-.06.38.106.531.124.105.155-.047.119-.19 0 0 .163-.007.191.278.016.172-.025.225.026.248l.106-.14s.145.326-.154.522c-.502.327-1.778.103-2.54 1.304-.277.441-.072.643-.072.643s1.358-.64 2.089-.535c.886.127.89.602.89.602s.145-.027.019-.315c0 0 .161.035.228.257.127.426-.141.69-.141.69.215.015.22-.242.22-.242" fill="#2b57ac" transform="matrix(7.09242 0 0 -7.09242 173.16873286 265.417609992)"/><path d="m0 0 .104.196-.088.098-.202.032-.025-.001c-.274-.036-.35-.238-.392-.346 0 0 .17.143.408.062l.027-.011z" fill="#ea1f29" transform="matrix(7.09242 0 0 -7.09242 40.578068686 282.079832298)"/><path d="m0 0 .149.168-.063.113-.03.022-.183.062c-.274.033-.395-.145-.462-.238 0 0 .2.098.414-.041l.02-.015z" fill="#ea1f29" transform="matrix(7.09242 0 0 -7.09242 39.44115376 273.37104978)"/><path d="m0 0 .221.022.034.126-.023.084-.076.122c-.177.212-.386.165-.502.139 0 0 .232-.067.283-.336z" fill="#ea1f29" transform="matrix(7.09242 0 0 -7.09242 46.903088842 271.740502422)"/><path d="m0 0 .152-.163.12.05.079.125.025.081c.058.269-.107.407-.198.481 0 0 .086-.215-.087-.418l-.006-.009z" fill="#ea1f29" transform="matrix(7.09242 0 0 -7.09242 63.28941601 254.066191782)"/><path d="m0 0 .199-.1.096.088.031.205-.003.02c-.035.274-.238.35-.345.389 0 0 .128-.15.073-.368l-.019-.066z" fill="#ea1f29" transform="matrix(7.09242 0 0 -7.09242 58.235357518 249.45895575)"/><path d="m0 0 .189.119-.026.126-.08.085-.101.059c-.253.107-.42-.029-.512-.1 0 0 .227.041.391-.163l.011-.014z" fill="#ea1f29" transform="matrix(7.09242 0 0 -7.09242 51.83870392 252.912255048)"/><path d="m0 0 .087.182-.081.084-.126.023-.08-.005c-.244-.039-.306-.222-.339-.321 0 0 .154.139.379.063l.012-.003z" fill="#ea1f29" transform="matrix(7.09242 0 0 -7.09242 144.954376858 296.132044044)"/><path d="m0 0-.112.035-.102-.028-.087-.051c-.197-.15-.166-.339-.147-.444 0 0 .07.205.312.237h.001l.144.051z" fill="#ea1f29" transform="matrix(7.09242 0 0 -7.09242 145.313962552 299.437821006)"/><path d="m0 0-.142.14-.107-.047-.072-.136-.014-.053c-.042-.242.111-.362.195-.427 0 0-.079.183.051.366l.019.022z" fill="#ea1f29" transform="matrix(7.09242 0 0 -7.09242 150.19283827 303.394682124)"/><path d="m0 0c-1.548.295-1.869.49-2.498 1.096-.064-.031-.309-.468.35-1.096.258-.247.511-.321.511-.321s-.454.08-1.038.024c-.273.076-.472.424-.837.565-.12.046-.222.046-.302.006l.107-.069.044-.11-.145-.134-.132.075-.033.029c-.021-.099.01-.217.131-.34-.166.006-.329-.082-.37-.274l.156.032.104-.051-.018-.2-.148-.028-.078-.009.01-.021c.115-.343.639-.09.639-.09s-.267-.195-.121-.43l.06.094.106.049.143-.141-.072-.134-.033-.048c.366-.141.661.414.661.431-.013-.402.304-.494.304-.494s-.044.174.12.286c.186.125.465.092.489.094-.051-.203.025-.296.137-.331.028.428.827.442.827.442.046-.166.227-.223.227-.223s-.008.232.161.36c.173.134.46.14.763.309.358.198.284.583-.225.652" fill="#2b57ac" transform="matrix(7.09242 0 0 -7.09242 145.538792266 284.826017322)"/><path d="m0 0-.144.141-.105-.05-.06-.093-.026-.094c-.043-.244.11-.363.192-.427 0 0-.071.166.038.341l.033.047z" fill="#ea1f29" transform="matrix(7.09242 0 0 -7.09242 121.715353486 294.354683592)"/><path d="m0 0 .018.2-.104.051-.156-.032-.044-.022c-.215-.122-.211-.315-.209-.419 0 0 .08.151.269.184l.078.009z" fill="#ea1f29" transform="matrix(7.09242 0 0 -7.09242 117.381884866 290.268031188)"/><path d="m0 0 .146.135-.044.109-.107.069-.076.025c-.242.052-.367-.096-.436-.175 0 0 .178.069.353-.059l.033-.029z" fill="#ea1f29" transform="matrix(7.09242 0 0 -7.09242 118.528019938 285.106167912)"/><path d="m0 0-.009-.021c-.013-.035-.138-.311-.416-.34l-.017-.003c-.178-.015-.35.106-.35.106s-.028.01-.052-.201c-.017-.171-.122-.175-.122-.175s-.026.251.033.433c.076.23.289.223.289.223h.004l-.031-.111c.009-.097.096-.17.195-.165.1.009.174.096.165.196l-.026.077h.323l.022.003zm-.989-1.675c-.217-.185-.179-.467-.225-.662-.059-.235-.272-.35-.508-.301-.204.033-.397.155-.413.37-.018.247.389.57.129.877-.212.254-.199.372-.199.372s.055-.08.194-.152c.05-.024.465-.218.547.101l-.093.165-.097.07-.012.16s.114-.15.316-.184c.207-.033.384.059.384.059s.046-.144-.12-.166c-.089-.012-.221-.018-.238-.13-.052-.371.484-.29.645-.266.129.023.191.04.191.04-.109-.156-.304-.184-.501-.353m-1.269 2.088v.046l.019-.012.297-.123-.055-.061c-.044-.09-.01-.198.08-.244l.242.078.014.113h.002s.202-.076.183-.318c-.015-.19-.135-.412-.135-.412s-.098.044-.047.208c.06.205.029.206.029.206s-.204-.046-.362.036l-.016.01c-.235.156-.244.457-.242.494m3.278-.407c.067.558-.32.518-.32.518s.152.11.206.309c.09.344-.112.797-.112.797s-.212-.375-.462-.11c0 0 .141.15.116.485-.027-.095-.805-.685-1.026.371-.44-.097-.401-.526-.673-.492-.145.016-.29.132-.18.408 0 0-.398-.02-.456-.434-.073-.512-.323.172-.662.147-.004 0-.252-.27-.237-.842-.307-.012-.445-.253-.475-.636-.084-1.09-.372-.73-.368-.751.095-.67.471-.316.471-.316-.065-.466-.486-.211-.486-.211.123-.714.422-.479.422-.479-.136-.596.09-.75.172-.866.103-.145.151-.204.113-.46-.035-.23-.02-.312-.02-.312s.179.182.309.046c.2-.21.319-.844.774-.764 0 0-.055.277.044.277l.125-.243c.123-.015.469-.066.659.178.114.147.143.354.262.345.09-.008.1-.179.1-.179.081.049.097.094.134.293.045.246.169-.015.169-.015.032.176.125.341.296.452.215.136.153.511.279.602.138.101.171-.299.171-.299s.467.36.304.981c-.073.278-.152.513-.063.537.085.02.068-.248.253-.356.129-.077.33.033.33.033-.238.263-.201.713-.169.986" fill="#2b57ac" transform="matrix(7.09242 0 0 -7.09242 90.936378412 263.541664902)"/><path d="m0 0c.46-.119.467.359.473.45.031.487.366.527.423.58-.156-.03-.472-.02-.573.164-.108-.06-.29-.091-.5.001l.118-.199c.043-.12.005-.263-.043-.376-.045-.109-.317-.512.102-.62" fill="#ea1f29" transform="matrix(7.09242 0 0 -7.09242 78.394142884 281.31101397)"/><path d="m0 0c-3.714.124-4.652 1.181-4.652 1.181s-.425-.705 1.279-1.45c0 0-.577.095-.897.108-.38.02-.783-.054-.783-.054s-.429.391-.73.501c-.098.034-.258.08-.399-.005l.117-.07.054-.116-.156-.155-.147.079-.049.037c-.076-.205.059-.344.15-.4-.431-.093-.558-.202-.562-.422l.138.035.121-.045-.002-.22-.16-.046-.035-.006c.09-.155.284-.235.556-.143.125.042.157.063.157.063s-.236-.268-.136-.524l.083.09.123.031.126-.182-.105-.129-.034-.031.111-.038c.238-.068.436.133.598.331.326.395.647.275.647.275-.219-.217-.016-.479-.016-.479s.179.42.473.302c-.058-.256.197-.4.197-.4s.153.411.351.411c.262 0 .129-.396.129-.396s.142.017.367.242c.148.147.274.309.578.286-.009-.047.039-.333.304-.46-.006.982 1.38 1.114 1.609 1.159.664.13.595.64.595.64" fill="#2b57ac" transform="matrix(7.09242 0 0 -7.09242 164.630168422 223.598573946)"/><path d="m0 0 .155.155-.052.116-.118.07-.087.027c-.267.048-.399-.12-.472-.211 0 0 .188.079.378-.041l.049-.037z" fill="#ea1f29" transform="matrix(7.09242 0 0 -7.09242 120.891214282 224.02199142)"/><path d="m0 0 .001.22-.12.045-.138-.035-.073-.041c-.225-.153-.202-.363-.189-.478 0 0 .082.199.323.236l.037.006z" fill="#ea1f29" transform="matrix(7.09242 0 0 -7.09242 118.40461183 230.659787298)"/><path d="m0 0-.125.183-.125-.033-.082-.089-.049-.093c-.095-.254.046-.416.121-.499 0 0-.046.205.12.372l.035.03z" fill="#ea1f29" transform="matrix(7.09242 0 0 -7.09242 123.4650535 235.750017132)"/><path d="m0 0c.512-.178.565.365.581.468.078.551.464.565.534.621-.181-.021-.541.02-.639.239-.127-.057-.335-.078-.568.044l.117-.234c.039-.142-.019-.3-.082-.426-.063-.116-.408-.55.057-.712" fill="#ea1f29" transform="matrix(7.09242 0 0 -7.09242 72.99539278 214.579143432)"/><path d="m0 0-.012-.021c-.018-.038-.184-.34-.503-.35l-.021-.001c-.202 0-.389.151-.389.151s-.03.015-.076-.223c-.035-.193-.156-.188-.156-.188s-.007.287.077.49c.107.255.352.227.352.227h.004l-.046-.122c0-.114.094-.205.205-.205.116 0 .208.091.208.205l-.025.09.369-.027h.026zm-1.278-1.813c-.264-.193-.246-.515-.317-.732-.088-.262-.339-.372-.603-.297-.23.056-.438.213-.437.459.002.281.495.614.228.987-.22.306-.195.44-.195.44s.058-.095.21-.191c.054-.031.508-.292.628.064.032.091-.032.149-.091.198l-.101.088.001.182s.117-.18.341-.236c.234-.058.443.03.443.03s.041-.168-.15-.178c-.105-.004-.256 0-.285-.123-.092-.42.524-.375.71-.362.15.012.22.027.22.027-.139-.169-.364-.183-.602-.356m-1.253 2.49.001.026.004.027.021-.013.328-.169-.068-.066c-.06-.096-.03-.224.068-.285.095-.058.222-.029.282.067l.026.129.003-.001s.223-.107.176-.38c-.032-.214-.191-.456-.191-.456s-.104.059-.032.24c.086.226.051.232.051.232s-.235-.031-.408.076l-.018.012c-.265.175-.247.52-.243.561m3.748-.008c.156.379-.034 1.07-.034 1.07s-.31-.491-.573-.227c-.242.243.016.632.016.632-.299.097-.549-.312-.92-.109-.259.141.045.609.045.609s-.337.011-.605-.12c-.261-.127-.378-.232-.559-.227-.248.009-.16.417-.16.417s-.295.008-.47-.296c-.174-.3-.366-.379-.366-.379-.08.13-.256.131-.391.169-.149.043-.252.113-.252.113s-.274-.529-.149-.967c-.207-.056-.264-.287-.297-.402-.24-.873-.6-.483-.597-.511.069-.77.514-.746.475-.925-.054-.242-.466.089-.466.089.01-.542.253-.577.353-.9.085-.28-.091-.468.052-.898.146-.445.039-.608.039-.608.303-.007.498.212.498.212-.059-.57.208-.84.208-.84s.169.348.239.116c.191-.619.502-.84.502-.84s.28.01.777.533c.346.365.191-.106.191-.106s.242-.022.744.899c.162.299.432.471.528-.012.575.62.375 1.289.375 1.524 0 .209.102.233.111.138.059-.571.658-.377.658-.377s-.244.248.007 1.121c.124.436-.118.858-.118.858z" fill="#2b57ac" transform="matrix(7.09242 0 0 -7.09242 88.88595979 195.530321796)"/><path d="m0 0s.034.529-.351.667c-.502.183-1.152-.054-2.442.066-3.135.294-2.749 1.425-2.749 1.425s1.971-.874 2.805-.466c.46.226.429.624.429.624.129-.151-.011-.451-.011-.451s.809.594-.152 1.521c-.349.334-.987.582-1.465.644-1.379.179-1.906.105-2.878.239-.813.114-.997.401-.955.629.124.673 1.641-.284 2.473.086.222.101.406.253.599.302.202.046.404-.017.404-.017s-.196.354-.839.218c-.529-.112-.569.066-.569.066s.248-.021.569.167c.206.119.263.382.488.48.277.119.556.007.556.007s-.361.615-1.057.255c-.474-.308-.645-.081-.645-.081l.569.403c.175.352.4.407.4.407s-.356.17-.657-.125c-.195-.19-.479-.246-.966-.238-.617.008-.865-.726-.865-.726s-.245-.015-.456-.123c-.186-.093-.399-.301-.399-.301l.079.238s-.459-.227-.471-.931c-.022-1.186 1.266-1.283 1.688-1.316.627-.049 1.822-.08 2.738-.206 1.24-.171 1.274-.742 1.11-1.008-.18-.297-.692-.145-1.552.157-.861.301-1.589.802-3.332.746-2.75-.088-5.66-2.048-6.502-1.547.042-.319-.033-.976-.756-1.561-.027.49-.177.425-.343.13-.46-.829-.94-.912-.94-.912s.088.282-.221.011c-.313-.277-.672-.321-.672-.321s-.439.315-.542.808l-.089-.155c-.367.177-.452.76-.452.76s-.176-.114-.578-.048c0 0 .226.247-.029.894-.504 0-2.498.347-2.748 1.377-.092.384-.207.568-.449.584l.051-.073.009-.138-.215-.098-.118.136-.038.056c-.196-.154-.135-.474-.135-.474-.224.187-.685.501-.956.308l.13-.079.062-.136c0-.099-.081-.178-.181-.176l-.168.09-.078.054c-.238-.387.536-.806.536-.806-.293.017-.712-.215-.703-.48l.133.043.129-.04.016-.234-.166-.066-.031-.004c.076-.161.212-.265.592-.161.915.26 1.539.093 1.539.093s-.028-.305-.444-.224c-.02.003.162-.238.535-.238.491 0 .751.196.761.2 0 0 .024-.115-.116-.185-.296-.151-.104-.475-.104-.475.161.361.456.221.456.221-.052-.072-.121-.283.054-.443 0 0 .019.208.346.291.225.057.419-.024.419-.024s-.19-.267.038-.57c0 0 .096.436.398.307.126-.053.11-.192.074-.249l-.195-.111c.471-.225.59.146.954-.191-.467-.212-1.051-.256-1.59-.227-1.133.098-1.369.32-1.635.564-.363.348-.651.384-.824.331l.059-.042.061-.135c0-.1-.079-.178-.177-.178l-.171.092-.041.029c-.1-.173.085-.327.14-.403l-.21.041c-.24.052-.442-.035-.501-.215l.191-.013.113-.095-.085-.237-.191.01-.067.011c.071-.307.426-.345.696-.356-.13-.079-.267-.195-.238-.378l.13.079.129-.009.064-.215-.144-.092-.045-.021c.219-.235.757.072.906.158.429.242.799.201 1.011.095.401-.198-.14-.363-.14-.363.133-.107.346-.057.477 0 .121.054.236.145.294.063.032-.051.015-.142-.076-.223l-.172-.081c.5-.192.964.268.964.268s.038-.063-.007-.182c-.075-.195-.261-.265-.261-.265.542-.164.819.481.819.481s.258-.198-.061-.481c.445-.013.502.351.722.211.128-.083.06-.265-.126-.302.514-.175.47.283 1.067.183.871-.151 1.874-.279 3.406.314 2.353.902 2.594 2.976 5.171 3.264 0 0 .217-.452 1.982-.928 1.869-.503 4.743-.116 4.614-1.005-.066-.453-1.345.198-1.507-.253l-.006-.024.144.003.106-.071-.052-.215-.167-.009-.02.003c.052-.098.154-.151.262-.171-.155-.081-.245-.142-.256-.345l.001-.058.092.051.128-.008.066-.209-.139-.094-.019-.008c.096-.091.23-.132.354-.091.138.046.2.094.227.123-.043-.072-.128-.241-.085-.376l.071-.12.055.143.11.069.175-.133-.058-.156-.013-.022c.329-.012.62.426.677.807.073.486.225.413.225.413l.091-.186.195-.093c-.014.33.231.432.337.34.104-.092.018-.292.018-.292s.167-.058.365.278c.111.178.102.408.233.422.178.006.107-.216.107-.216.413.222.155.881.316.956.127.033.077-.207.077-.207s.26.14.185.424c-.113.419.092.075.092.075" fill="#2b57ac" transform="matrix(7.09242 0 0 -7.09242 195.805609774 220.709122038)"/><g fill="#ea1f29"><path d="m0 0-.016.233-.13.041-.132-.043-.091-.055c-.226-.181-.184-.404-.162-.525 0 0 .073.222.333.278l.032.006z" transform="matrix(7.09242 0 0 -7.09242 27.354251596 211.268401776)"/><path d="m0 0c.1-.001.18.077.18.176l-.061.136-.13.079-.105.031c-.308.056-.459-.135-.541-.239 0 0 .198.084.411-.039l.077-.054z" transform="matrix(7.09242 0 0 -7.09242 28.315983748 201.531218358)"/><path d="m0 0 .215.098-.009.137-.051.074-.119.1c-.252.15-.446.031-.552-.032 0 0 .215.008.36-.186l.038-.055z" transform="matrix(7.09242 0 0 -7.09242 37.077250174 198.938938848)"/><path d="m0 0-.065.215-.128.009-.13-.079-.053-.056c-.176-.216-.091-.413-.045-.519 0 0 .021.207.232.317l.045.021z" transform="matrix(7.09242 0 0 -7.09242 34.183542814 233.788963002)"/><path d="m0 0c.098 0 .177.078.177.179l-.06.134-.06.043-.176.067c-.307.056-.459-.136-.54-.239 0 0 .224.093.447-.062l.041-.03z" transform="matrix(7.09242 0 0 -7.09242 34.471495066 222.024765948)"/><path d="m0 0c.089.043.128.148.085.238l-.113.095-.191.012-.069-.012c-.302-.082-.356-.319-.384-.45 0 0 .154.174.414.139l.066-.012z" transform="matrix(7.09242 0 0 -7.09242 30.47278867 227.7029574)"/><path d="m0 0 .051.213-.106.072-.143-.003-.082-.021c-.254-.1-.278-.311-.29-.425 0 0 .13.183.382.157l.02-.002z" transform="matrix(7.09242 0 0 -7.09242 169.552307902 229.995227544)"/><path d="m0 0-.065.21-.128.008-.093-.051-.088-.086c-.169-.215-.081-.409-.034-.513 0 0 .019.226.251.33l.018.009z" transform="matrix(7.09242 0 0 -7.09242 170.297721244 235.294683768)"/><path d="m0 0-.175.133-.109-.069-.056-.143-.009-.073c-.013-.271.171-.379.268-.436 0 0-.113.189.011.409l.012.023z" transform="matrix(7.09242 0 0 -7.09242 175.612780792 238.740890646)"/><path d="m0 0c.095-.023.193.037.217.131l-.028.145-.04.05-.165.112c-.285.128-.478-.024-.581-.105 0 0 .269.044.454-.205l.006-.009z" transform="matrix(7.09242 0 0 -7.09242 27.56844268 133.823430828)"/></g><path d="m0 0c-3.237.096-4.307 1.27-4.307 1.27s-.546-.831.797-1.375c0 0-.25.07-.569.096-.378.032-.543.035-.543.035s-.285.433-.787.518c-.137.023-.273.03-.391.013l.023-.021.044-.119-.169-.142-.139.089-.062.051-.017-.017c-.081-.096-.117-.232-.046-.392-.461-.062-.612-.207-.649-.395l.226.016.103-.075-.061-.214h-.167l-.101.008c.045-.244.337-.419.801-.225.114.047-.285-.14-.128-.548l.035.078.105.074.182-.128-.053-.156-.045-.116.001-.001c.394-.172.808.302.859.524 0 0 .039-.285.211-.406.003-.001.025.121.118.22.171.186.153-.036.153-.036-.001-.34.215-.396.215-.396s-.033.391.27.454c.123-.42.585.222.538.029-.105-.425.083-.554.083-.554s.039.51 1.06.568c-.011-.049.026-.335.287-.47.072.983 1.466.992 1.696 1.03.667.107.427.713.427.713" fill="#2b57ac" transform="matrix(7.09242 0 0 -7.09242 163.077637684 158.542642254)"/><path d="m0 0 .169.143-.044.12-.023.02-.174.092c-.263.07-.408-.086-.485-.171 0 0 .18.06.356-.064l.062-.05z" fill="#ea1f29" transform="matrix(7.09242 0 0 -7.09242 121.217465602 156.59790069)"/><path d="m0 0h.166l.061.214-.102.075-.227-.016c-.257-.087-.291-.296-.308-.41 0 0 .107.14.308.145z" fill="#ea1f29" transform="matrix(7.09242 0 0 -7.09242 115.462676014 163.23640581)"/><path d="m0 0-.182.127-.105-.074-.034-.077-.025-.142c0-.271.188-.372.289-.424 0 0-.089.137-.042.318l.045.116z" fill="#ea1f29" transform="matrix(7.09242 0 0 -7.09242 121.800462526 168.489761304)"/><path d="m0 0-.012-.023c-.018-.038-.181-.342-.497-.357l-.022-.003c-.202-.003-.392.146-.392.146s-.029.015-.072-.226c-.03-.191-.152-.188-.152-.188s-.013.288.07.489c.101.258.346.233.346.233h.002l-.041-.122c.001-.114.097-.205.209-.203.115.002.204.097.202.21l-.023.09.369-.022h.024zm-1.248-1.834c-.263-.197-.238-.52-.306-.736-.083-.265-.335-.382-.6-.309-.23.054-.438.207-.443.451-.003.281.485.622.211.992-.211.324-.189.459-.189.459s.058-.094.211-.186c.058-.033.515-.284.63.073.03.09-.035.149-.092.196l-.105.087-.003.182s.121-.179.345-.231c.235-.053.441.039.441.039s.044-.169-.147-.183c-.103-.005-.254-.003-.282-.128-.085-.42.532-.366.718-.348.147.014.216.03.216.03-.134-.171-.357-.189-.593-.365m-1.295 2.467.001.028.002.026.022-.014.331-.163-.068-.067c-.057-.097-.025-.223.072-.282.097-.058.224-.025.282.072l.026.127h.002s.224-.103.184-.377c-.031-.215-.184-.46-.184-.46s-.108.058-.037.241c.082.228.048.231.048.231s-.237-.034-.411.07l-.016.012c-.27.172-.259.517-.254.556m3.656-.604c.113.529-.303.54-.303.54s.178.119.247.343c.118.394-.097.919-.097.919s-.141-.39-.574-.202c0 0 .214.253.045.72-.033-.111-.122-.219-.249-.293-.221-.129-.475-.101-.57.06-.082.142-.014.338.151.472-.062.017-.335.085-.585.013-.266-.078-.67-.346-.67-.346s-.275.215-.138.528c0 0-.415.043-.555-.437-.061-.209-.237-.229-.237-.229s-.032.334-.333.427c-.005.003-.559-.393-.555-1.14-.203-.062-.286-.298-.306-.418-.255-1.524-.649-.801-.644-.827.085-.768.608-.658.608-.658-.092-.534-.646-.25-.646-.25.203-.778.671-.453.671-.453-.332-.571-.081-1.01.097-1.449.187-.406.181-.749.181-.749s.223.118.344.117c.169-.003.115-.185.119-.416.008-.325.139-.421.139-.421l.074.144c.086.133.134.116.134.116s-.045-.408.222-.61c0 0 .375.545.582.506.137-.025.221-.357.221-.357 1.082.685 1.228 2.182 1.431 1.65.055-.13.061-.256.061-.256s.66.393.59 1.85c0 0 .118-.118.323-.174.203-.057.319.007.319.007s-.29.391-.097 1.273" fill="#2b57ac" transform="matrix(7.09242 0 0 -7.09242 87.835572388 130.10771199)"/><path d="m0 0c.516-.169.56.375.572.476.07.553.456.574.525.631-.181-.024-.54.01-.643.228-.122-.06-.333-.084-.57.036l.123-.232c.041-.143-.014-.302-.077-.428-.06-.118-.398-.556.07-.711" fill="#ea1f29" transform="matrix(7.09242 0 0 -7.09242 72.249979438 149.421790134)"/><path d="m0 0-.013.236-.131.04-.19-.075-.034-.022c-.226-.18-.184-.405-.163-.524 0 0 .066.197.293.266l.072.018z" fill="#ea1f29" transform="matrix(7.09242 0 0 -7.09242 27.213112438 143.769840636)"/><path d="m0 0 .23.06.012.138-.015.04-.121.16c-.225.188-.435.105-.551.061 0 0 .232-.031.337-.275l.014-.031z" fill="#ea1f29" transform="matrix(7.09242 0 0 -7.09242 36.880080898 130.87014714)"/><path d="m0 0 .227.061.015.137-.059.113-.079.085c-.224.192-.434.107-.55.062 0 0 .252-.03.352-.305l.01-.03z" fill="#ea1f29" transform="matrix(7.09242 0 0 -7.09242 34.19630917 153.971577564)"/><path d="m0 0c.093.034.141.136.107.229l-.104.105-.22.028-.038-.005c-.307-.052-.386-.284-.426-.409 0 0 .16.147.4.103l.091-.023z" fill="#ea1f29" transform="matrix(7.09242 0 0 -7.09242 29.091185254 160.103683896)"/><path d="m0 0-.145.034-.174-.076-.056-.045c-.231-.211-.17-.448-.137-.575 0 0 .067.263.37.333l.007.001.168.077z" fill="#ea1f29" transform="matrix(7.09242 0 0 -7.09242 34.162265554 165.532931406)"/><path d="m0 0c-.225.108-.587.062-1.02.016-.34-.035-.725-.072-1.114-.032-2.617.262-2.828 1.224-2.723 1.159 0 0 .563-.286 1.419-.453 2.332-.454 2.351.824 2.351.824s.078-.057.101-.198c.024-.164-.087-.387-.087-.387s.292.217.292.541c0 .485-.317.655-.317.655s.065.007.181-.094c.117-.1.184-.347.184-.347s.123.404-.326.779c-1.252 1.047-3.959.841-5.001.99-.914.131-1.153.507-1.086.895.111.637.965.653.965.653-.046-.694.817-1.149 1.637-.967.458.102.735.258 1.06.52.245.196.439.287.439.287-.422.081-.691-.086-.86-.157-.182-.076-.37-.133-.567-.149-.51-.043-.559.297-.559.297s.379-.181.872-.066c1.42.331.957 1.657.957 1.657s-.125-.501-.57-.688c-.42-.174-.768.101-.768.101s.687-.07.834.468c.083.305-.207.464-.207.464s.063-.684-1.578-.583c-.717.045-.715-.568-.715-.568s-.116-.002-.408-.088c-.266-.077-.449-.205-.449-.205.073.198.362.293.362.293-.38 0-.696-.293-.696-.293l.055.18c-.012-.022-.423-.363-.515-1.091-.048-.365.062-.741.301-1.021.394-.463 1.147-.522 1.603-.558.676-.052 1.79-.112 2.774-.247 1.333-.183 1.413-.628 1.237-.912-.194-.319-.788-.326-1.711 0-.926.324-2.782.995-4.117.99-3.526-.015-5.107-1.51-6.16-1.232.03-1.35-.937-1.889-.937-1.889-.146.744-.044-.61-1.478-1.314 0 0-.011.336-.159.365-.193.04-.471-.486-.471-.486-.307.203-.403.52-.403.52l-.074-.151s-.239.15-.291.405c-.052.26.026.455-.089.46-.132.006-.413-.185-.413-.185s.049.446-.156.909c-.113.297-.278.568-.304.89-1.136.213-2.52.668-2.55 1.105-.03.41.043.827-.412.96l.014-.041-.011-.138-.23-.06-.094.153-.014.032c-.262-.154-.155-.625-.155-.625-.206.21-.639.595-.901.35l.04-.05.028-.145c-.024-.094-.122-.155-.218-.131l-.136.119c-.278-.391.294-.857.294-.857-.085-.043-.54-.134-.542-.463l.19.074.131-.039.013-.237-.165-.062-.072-.016c.161-.228.41-.226.566-.159.729.31.914.135 1.232.065.226-.048.429.006.433-.127.002-.109-.104-.19-.443-.148 0 0 .082-.215.452-.256.558-.061.733.076.807-.021.135-.178-.402-.246-.402-.246.438-.334 1.017-.077 1.017-.077.03-.195-.385-.236-.385-.236s.165-.184.492-.103c.123.031.231.089.231.089s-.098-.323.188-.488c0 0 .163.551.391.409.113-.068.128-.184.077-.25-.072-.094-.179-.079-.179-.079.066-.168.36-.168.36-.168s-.356-.22-1.348-.205c-1.316.108-1.24.255-1.56.643-.257.339-.406.359-.523.308l.057-.113-.013-.137-.228-.061-.083.123c-.162-.161-.132-.306-.057-.44-.065.011-.686.1-.796-.186l.22-.027.104-.106c.033-.093-.014-.195-.108-.228l-.19.027-.091.024-.004-.03c-.007-.425.613-.436.919-.449-.13-.078-.27-.194-.237-.38l.173.076.145-.033.034-.252-.169-.077c.406-.268.709.104.856.188.428.244 1.085.216 1.252.036.124-.134-.15-.288-.15-.288.303-.039.525.147.525.147s-.059-.067-.082-.208c-.035-.203.102-.311.102-.311.251.483.443.451.539.36.116-.109-.118-.274-.118-.274.291-.147.667.152.667.152s-.027-.248.114-.383c.191.348.61.316.887.282 0 0-.397-.271-.243-.611.249.241.56.329.982.277.877-.106 2.537-.604 5.386 2.04 1.926 1.786 3.212 1.557 3.212 1.557 1.711-1.389 4.998-1.414 5.84-1.477.406-.029.412-.282.234-.499-.112-.133-.259-.166-.268-.168 0 0-.809.335-1.108-.115l.157-.002.101-.074-.059-.206-.163-.002-.069.008c.036-.149.152-.194.232-.214l.024-.025c-.172-.164-.169-.334-.162-.39l.121.058.121-.02.042-.21-.142-.077-.044-.014c.086-.135.239-.217.474-.126.181.067.23.106.242.124-.019-.037-.08-.17-.015-.275l.028-.037.097.177.115.046.145-.157-.084-.139-.037-.048h.206c.252.05.448.265.504.798.021.18.06.279.105.329.084.096.276.166.276.166s.08-.211-.058-.367c.498-.081.565.702.565.702s.052-.151.164-.253c.11-.102.266-.124.266-.124-.091.558.13.749.235.775.21.052.203-.202.203-.202s.183.122.144.371c-.021.142-.096.278-.096.278s.176.087.27-.15c0 0 .188.303.016.471l.093.01.084-.07s.086.402-.315.596" fill="#2b57ac" transform="matrix(7.09242 0 0 -7.09242 192.164361346 150.609770484)"/><path d="m0 0 .059.205-.101.075-.157.001-.062-.018c-.25-.086-.283-.289-.301-.4 0 0 .117.15.33.143l.069-.007z" fill="#ea1f29" transform="matrix(7.09242 0 0 -7.09242 166.723141564 164.85702378)"/><path d="m0 0-.042.211-.122.018-.12-.057-.068-.057c-.184-.191-.12-.385-.084-.493 0 0 .037.201.25.286l.044.015z" fill="#ea1f29" transform="matrix(7.09242 0 0 -7.09242 167.76076261 170.49549768)"/><path d="m0 0-.146.157-.114-.046-.097-.177-.004-.018c-.06-.259.098-.392.183-.464 0 0-.069.181.057.361l.037.049z" fill="#ea1f29" transform="matrix(7.09242 0 0 -7.09242 174.143231368 172.904083512)"/><path d="m111.178.707c-3.929 11.914-5.114 15.758-7.58 22.918-9.497.158-11.324.219-25.16.365 10.171 7.009 10.588 7.522 19.942 14.286-2.675 9.061-3.421 11.111-7.144 23.77 7.37-5.035 12.618-9.134 19.693-13.861 9.292 6.04 10.954 7.212 21.06 13.679-3.802-11.295-4.684-13.91-7.33-23.284 8.961-6.588 11.44-8.546 20.128-14.711-10.121-.086-15.351-.156-24.974-.244-3.632-8.87-4.649-11.722-8.635-22.918z" fill="#e6e6e6"/><path d="m111.178.712c-.091 19.359-.046 19.801-.062 33.496.01-.019.052.02.062 0 3.751-4.759 4.399-5.602 8.636-10.638-3.896-9.841-4.264-10.464-8.636-22.858zm0 33.496c6.182 1.931 7.765 2.539 13.419 4.317 9.337-6.674 10.42-7.454 19.942-14.53-14.535 4.54-19.478 6.001-33.361 10.213zm-.062 0h-.062c-3.746-5.159-4.06-5.711-7.392-10.517-11.681.211-13.256.222-25.223.365 17.164 5.252 19.317 5.97 32.553 10.213-5.784 1.817-6.8 2.151-12.611 4.012-3.307 10.909-3.917 12.936-7.144 23.831 10.136-14.282 11.962-16.851 19.879-27.843.001-.027 0-.033 0-.06zm0 .061c-.069 6.218-.141 7.757-.186 13.921 9.631 6.293 10.319 6.695 21.06 13.617-10.55-13.993-12.48-16.556-20.874-27.538z" fill="#d4d4d4"/></g></svg>