<?xml version="1.0" encoding="UTF-8"?> <svg xmlns="http://www.w3.org/2000/svg" width="600" height="116" viewBox="0 0 600 116" fill="none"> <path fill-rule="evenodd" clip-rule="evenodd" d="M139.409 92.1854C149.422 92.1854 157.124 84.5033 157.124 72.9801H157.895V43.0199C157.895 32.2649 150.192 23.8146 139.409 23.8146C129.397 23.8146 121.694 31.4967 121.694 43.0199V72.9801C121.694 84.5033 128.626 92.1854 139.409 92.1854ZM103.209 16.9007C113.992 3.07285 128.626 0 138.639 0C155.584 0 181.001 10.755 180.231 39.1788V76.8212C180.231 89.1126 174.839 99.8675 166.367 106.781C158.665 112.927 148.652 116 138.639 116C128.626 116 119.384 112.927 110.911 106.781C102.439 99.8675 97.0474 89.1126 97.0474 76.8212V39.1788C97.0474 30.7285 99.358 23.0464 103.209 16.9007ZM393.581 92.1854C403.594 92.1854 411.296 84.5033 411.296 72.9801H412.066V43.0199C412.066 32.2649 404.364 23.8146 393.581 23.8146C383.568 23.8146 375.866 31.4967 375.866 43.0199V72.9801C375.866 84.5033 382.798 92.1854 393.581 92.1854ZM357.381 16.9007C368.164 3.07285 382.798 0 392.811 0C409.756 0 435.173 10.755 434.403 39.1788V76.8212C434.403 89.1126 429.011 99.8675 420.539 106.781C412.837 112.927 402.824 116 392.811 116C382.798 116 373.556 112.927 365.083 106.781C356.611 99.8675 351.219 89.1126 351.219 76.8212V39.1788C351.219 30.7285 353.53 23.0464 357.381 16.9007ZM534.531 3.84106L505.263 79.894L476.765 3.84106H451.348V112.159H475.224V82.9669L473.684 63.7616L493.71 112.159H504.493H505.263H517.586L536.842 63.7616L536.072 82.9669V112.159H559.948V3.84106H534.531ZM600 3.84106H576.123V112.159H600V3.84106ZM249.551 49.1656H221.053V28.4238H249.551C254.172 28.4238 258.023 34.5695 258.023 39.1788C258.023 43.7881 254.172 49.1656 249.551 49.1656ZM266.495 68.3709C275.738 62.2252 281.9 49.9338 281.9 38.4106C281.9 19.9735 267.266 3.84106 249.551 3.84106H197.176V112.159H221.053V73.7484H241.848L258.023 112.159H284.21L265.725 69.1391L266.495 68.3709ZM52.3748 88.3443H23.8768V70.6754H51.6046C56.2259 70.6754 60.077 74.5165 60.077 79.894C60.8472 83.735 56.9961 88.3443 52.3748 88.3443ZM23.8768 27.6555H50.8344C55.4557 27.6555 59.3068 31.4966 59.3068 36.1059C59.3068 40.7151 55.4557 45.3244 50.8344 45.3244H23.8768V27.6555ZM73.1707 57.6158C73.1707 57.6158 83.1836 49.9337 83.1836 36.8741C83.1836 18.437 68.5494 3.07275 50.8344 3.07275H0V112.159H52.3748C70.0899 112.159 84.724 96.7946 84.724 79.1257C84.724 65.2979 73.1707 57.6158 73.1707 57.6158ZM300.385 92.1854C308.858 92.1854 311.168 88.3444 311.168 79.894H310.398V3.84106H334.275V82.9669C334.275 105.245 324.262 115.232 302.696 115.232C299.615 115.232 296.534 115.232 292.683 114.464V92.1854H300.385Z" fill="#CCEAED"></path> </svg> 