<?xml version="1.0" encoding="utf-8"?><!-- Generator: Adobe Illustrator 25.0.0, SVG Export Plug-In . SVG Version: 6.00 Build 0)  --><svg version="1.1" id="Artwork" xmlns="http://www.w3.org/2000/svg" xmlns:xlink="http://www.w3.org/1999/xlink" x="0px" y="0px" viewBox="0 0 1080 700" style="enable-background:new 0 0 1080 700;" xml:space="preserve"><style type="text/css">
	.st0{fill:#0D0D2D;}
	.st1{fill:#FF5850;}
	.st2{fill:#FFFFFF;}
</style><path class="st0" d="M482.7,699.5h189.5c15.6,0,31.1,0,46.6,0.6c11.9,0.5,26.4,3.2,36.9-4.1c10.8-7.4,11.1-23.3,11.9-35.1
	c1-14.8,0.2-29.6-0.3-44.4c-1.1-31-0.4-62.1-0.4-93.1c0-31.6-0.5-63.2,0.1-94.8c0.3-15.5,1.1-31-0.3-46.5
	c-0.5-5.6-1.3-11.7-5.2-16.1c-3.3-3.7-8.2-5.2-13-5.6c-5.4-0.5-10.8,0.2-16.2,0.5c-7,0.4-14.1,0.2-21.1,0.3c-15.6,0-31.2,0-46.8-0.2
	c-62.8-0.5-125.6-0.4-188.4-0.4c-63.3,0-126.6,0.8-189.9-0.5c-15.8-0.3-31.6-0.6-47.4-0.1c-12.2,0.4-27,0.6-36,10.2
	c-6.9,7.3-7.2,17.9-6.6,27.3c0.7,13,0.8,25.9,0.8,38.9c0,31.3,0.2,62.5,0.2,93.8c0,31-1.5,61.9-2.1,92.9
	c-0.3,15.4-0.2,30.8,0.7,46.2c0.6,9.1,1.7,18.3,9.4,24.3c6.1,4.8,14.2,6.1,21.7,6.5c8.4,0.4,16.7-0.4,25-0.6c14.5-0.4,29.1,0,43.6,0
	h187.2c1,0,1.8-0.8,1.8-1.8c0-1-0.8-1.8-1.8-1.8H298.8c-14.9,0-29.9-0.2-44.8,0c-8,0.1-16.1,0.9-24.1,0.8
	c-7.4-0.1-15.5-0.9-21.7-5.2c-8.7-6-8.5-17-9.1-26.5c-1.6-30,0-59.9,1-89.9c0.9-30.3,0.6-60.7,0.5-91c0-15.3-0.1-30.6-0.1-46
	c0-12.9,0.1-25.8-0.7-38.7c-0.6-9.5-1.1-20.6,6.5-27.7c5-4.6,12-6.4,18.5-7.2c7.2-0.7,14.5-1.1,21.8-1c30.5-0.5,61,0.8,91.5,0.8
	h92.7c61.4,0,122.8-0.2,184.1,0c30.2,0.1,60.5,0.5,90.7,0.5c7.6,0,15.2,0,22.8-0.1c5.2-0.1,10.3-0.8,15.5-0.8
	c5.2,0,10.8,0.4,14.6,4.1c4.9,4.9,4.8,13.3,5.2,19.7c0.9,14.7,0.1,29.5-0.2,44.3c-0.3,15.4-0.1,30.8-0.1,46.2v92.2
	c0,14.9-0.1,29.7,0.4,44.5c0.5,14.6,1.3,29.3,0.5,43.9c-0.3,7.1-1.1,14.1-2.6,21c-1.5,6.6-4.8,12.2-11.2,15
	c-5.5,2.4-11.5,2.5-17.3,2.3c-7.5-0.3-15-0.7-22.5-0.9c-30.3-1-60.8-0.3-91.1-0.3H482.7c-1,0.2-1.6,1.1-1.4,2.1
	C481.4,698.8,482,699.3,482.7,699.5z"></path><path class="st1" d="M435.9,201c0,0-35,8.9-42.9,12s-21.6,8.8-28.7,36.4c-7.1,27.6-16.4,72.4-15.8,101.7c0,0-1.2,15.2,6.7,17
	c7.9,1.8,133.1,16,151.2,12.1l4.7-18.6l4.7-1.4l1.8-19.8l41-8.5l4.7,12.1c0,0,8.5-2.8,8.9,3c0.4,5.9,3,19.4,3,19.4
	s10.9-1.4,11.1-2.8c0.2-1.4-1.8-75.4-7.5-95.4c-5.7-20-11.1-44.5-39.2-47.7l-54.8-13.3c0,0-7.9,8.3-30.7,3.8
	C454.1,210.9,439.1,203.2,435.9,201z"></path><path class="st0" d="M445.9,51.1c0,0,47.4-14.7,68.1,8c0,0,11.2,27.9,15.3,33.3c4.1,5.4,16.1,9.5,19.3,13.2c4.5,5.3,6.9,12.1,6.6,19
	c-0.5,8.4-0.5,12.6,4,15.3s12.4,6.4,14.9,11.4c2.5,4.9,5.2,14.6,4.8,16.7c-0.4,2.1-59.6,16.9-92.3,7.7l-1.1-19
	c0,0,28.5-12.3,29.3-36.1c0,0,8.9-30.7-11-31.6c0,0-17,1.7-21.8-2.5s-16.9-17.8-27.8-14.7L445.9,51.1z"></path><path class="st0" d="M462.2,154.2l22.5,38.8l-0.1-37.5C484.7,155.5,465,155.4,462.2,154.2z"></path><path class="st0" d="M447,50.9c0,0,10.7,18.5,7.1,28.6c-3.6,10-10.9,13.2-6.9,23.2s5.6,17.2-3.8,27.9c0,0-4.5,3.1-3.3,10.7
	c1.1,7.6,0.2,35.7,0.2,35.7l-51.3,0.9c-1,0-1.7-0.7-1.8-1.7c0-0.1,0-0.2,0-0.3c0.8-5.2,3.5-19.2,10.9-24.7
	c9.1-6.9,13.4-10.5,10.5-22.8c-2.9-12.3-0.9-21,10.7-30.6c0,0,4.5-7.4,4.9-19.9S430.8,56.5,447,50.9z"></path><path class="st0" d="M250.6,487c0.7,0,1.4,0.3,1.9,0.8c0.5,0.5,0.8,1.2,0.9,1.9c0,0.7-0.3,1.3-0.7,1.8l-6.7,7.9v7.9
	c0.1,0.8-0.2,1.6-0.8,2.2c-0.6,0.5-1.3,0.8-2.1,0.8c-0.8,0-1.6-0.2-2.2-0.8c-0.6-0.6-0.9-1.4-0.8-2.2v-7.9l-6.7-7.9
	c-0.5-0.5-0.7-1.1-0.7-1.8c0-0.7,0.3-1.4,0.9-1.9c0.5-0.5,1.2-0.8,1.9-0.8c0.8,0,1.5,0.4,2,1l5.7,6.8l5.7-6.8
	C249.1,487.4,249.8,487.1,250.6,487z"></path><path class="st0" d="M260.3,508.9c-1.7-0.9-3.1-2.4-4-4.1c-1.9-3.9-1.9-8.5,0-12.4c0.9-1.7,2.3-3.1,4-4.1c3.8-1.9,8.3-1.9,12.1,0
	c1.7,0.9,3.1,2.3,4,4.1c0.9,1.9,1.4,4.1,1.4,6.2c0.1,2.1-0.4,4.3-1.4,6.2c-0.9,1.7-2.3,3.1-4,4.1
	C268.6,510.8,264.1,510.8,260.3,508.9L260.3,508.9z M270.4,504c1.1-1.6,1.6-3.4,1.5-5.3c0.1-1.9-0.4-3.8-1.5-5.3
	c-2-2.2-5.4-2.4-7.6-0.5c-0.2,0.1-0.3,0.3-0.5,0.5c-1.1,1.6-1.6,3.4-1.5,5.3c-0.1,1.9,0.4,3.8,1.5,5.3c2,2.2,5.4,2.4,7.6,0.5
	C270.1,504.3,270.3,504.2,270.4,504L270.4,504z"></path><path class="st0" d="M285,507.8c-1.7-1.7-2.6-4.1-2.6-7.4V490c0-0.8,0.2-1.5,0.8-2.1c1.2-1.1,3-1.1,4.2,0c0.5,0.6,0.8,1.3,0.8,2.1
	v10.7c-0.1,1.4,0.3,2.7,1.1,3.8c1.7,1.8,4.5,1.8,6.3,0.1c0,0,0,0,0.1-0.1c0.8-1.1,1.2-2.4,1.1-3.8V490c0-0.8,0.2-1.5,0.8-2.1
	c0.6-0.6,1.3-0.8,2.1-0.8c0.8,0,1.6,0.3,2.1,0.8c0.6,0.6,0.8,1.3,0.8,2.1v10.5c0.2,2.7-0.8,5.4-2.6,7.4c-2.1,1.8-4.8,2.7-7.5,2.5
	C289.2,510.4,286.7,509.5,285,507.8z"></path><path class="st0" d="M327.7,507.9c0,0.7-0.3,1.3-0.9,1.7c-0.6,0.5-1.3,0.7-2,0.7c-0.5,0-1-0.1-1.5-0.4c-0.5-0.2-0.9-0.6-1.2-1.1
	l-4.2-6.1c-0.3-0.4-0.6-0.7-1-1c-0.4-0.2-0.8-0.3-1.2-0.3h-2.1v5.8c0.1,0.8-0.2,1.6-0.7,2.2c-0.6,0.5-1.3,0.8-2.1,0.8
	c-1.5,0.1-2.8-1-2.9-2.5c0-0.1,0-0.3,0-0.5V490c-0.1-1.4,0.8-2.6,2.2-2.7c0.2,0,0.4,0,0.5,0h8.1c2.2-0.1,4.4,0.5,6.2,1.8
	c1.4,1.3,2.2,3.2,2.1,5.2c0.1,1.6-0.5,3.1-1.4,4.4c-1,1.2-2.4,2.1-4,2.4c0.7,0.1,1.3,0.3,1.9,0.7c0.6,0.5,1.1,1,1.6,1.7l2,2.9
	C327.5,506.8,327.7,507.3,327.7,507.9z M320.7,496.4c0.6-0.5,0.9-1.2,0.9-2c0.1-0.8-0.3-1.5-0.9-2c-0.9-0.5-1.8-0.7-2.8-0.6h-4.1
	v5.3h4.1C318.9,497.1,319.9,496.9,320.7,496.4z"></path><path class="st0" d="M362.2,487.9c0.5,0.6,0.8,1.3,0.8,2.1v17.3c0,0.8-0.2,1.6-0.8,2.1c-0.5,0.5-1.3,0.8-2,0.8
	c-0.8,0.1-1.7-0.3-2.2-1l-9.8-12.3v10.3c0,0.8-0.2,1.5-0.7,2.1c-0.5,0.6-1.3,0.8-2,0.8c-0.8,0-1.5-0.3-2-0.8
	c-0.5-0.6-0.8-1.3-0.8-2.1V490c0-0.8,0.3-1.5,0.8-2.1c0.5-0.5,1.2-0.8,2-0.8c0.8,0,1.6,0.3,2.2,1l9.8,12.2V490
	c0-0.8,0.2-1.5,0.8-2.1c0.5-0.5,1.2-0.8,2-0.8C361,487.1,361.7,487.3,362.2,487.9z"></path><path class="st0" d="M369.2,509.3c-0.5-0.6-0.8-1.3-0.7-2V490c-0.2-1.4,0.8-2.6,2.2-2.7c0.2,0,0.4,0,0.6,0h11.2
	c0.7-0.1,1.5,0.2,2.1,0.6c0.5,0.4,0.8,1,0.7,1.7c0,1.6-0.9,2.3-2.8,2.3h-8.2v4.3h7.5c1.9,0,2.8,0.8,2.8,2.3c0,0.6-0.2,1.3-0.7,1.7
	c-0.6,0.4-1.4,0.6-2.1,0.6h-7.5v4.7h8.2c1.9,0,2.8,0.8,2.8,2.3c0,0.6-0.2,1.3-0.7,1.7c-0.6,0.4-1.4,0.6-2.1,0.6h-11.2
	C370.5,510.1,369.7,509.9,369.2,509.3z"></path><path class="st0" d="M418.3,487.5c0.5-0.3,1-0.5,1.6-0.5c0.7,0,1.3,0.2,1.9,0.7c0.5,0.5,0.8,1.1,0.8,1.8c0,0.4-0.1,0.9-0.3,1.3
	l-6.5,17.6c-0.2,0.6-0.6,1.1-1.2,1.4c-1.2,0.7-2.6,0.7-3.8,0c-0.6-0.3-1-0.8-1.2-1.4l-4.2-12l-4.4,12c-0.2,0.6-0.7,1.1-1.2,1.4
	c-0.6,0.3-1.2,0.5-1.8,0.5c-0.7,0-1.3-0.2-1.9-0.5c-0.6-0.3-1-0.8-1.2-1.4l-6.5-17.6c-0.1-0.4-0.2-0.8-0.2-1.2
	c0-0.7,0.3-1.4,0.9-1.9c0.6-0.5,1.3-0.7,2-0.7c0.6,0,1.2,0.2,1.7,0.5c0.5,0.3,0.9,0.8,1.1,1.4l4.4,12.7l4.7-12.8
	c0.2-0.6,0.6-1.1,1.1-1.4c0.5-0.3,1-0.5,1.6-0.5c1.2,0,2.3,0.8,2.6,1.9l4.4,13l4.7-13C417.5,488.3,417.9,487.8,418.3,487.5z"></path><path class="st0" d="M263.4,527.4c1.1-0.7,2.5-0.6,3.5,0.2c0.5,0.5,0.8,1.1,0.8,1.8c0,0.4-0.1,0.9-0.3,1.3l-6.5,17.6
	c-0.2,0.6-0.6,1.1-1.2,1.4c-0.6,0.3-1.2,0.5-1.9,0.5c-0.7,0-1.3-0.2-1.9-0.5c-0.6-0.3-1-0.8-1.2-1.4l-4.2-12l-4.4,12
	c-0.2,0.6-0.7,1.1-1.2,1.4c-0.6,0.3-1.2,0.5-1.8,0.5c-0.7,0-1.3-0.2-1.9-0.5c-0.6-0.3-1-0.8-1.2-1.4l-6.5-17.6
	c-0.1-0.4-0.2-0.8-0.2-1.2c0-0.7,0.3-1.4,0.9-1.9c0.6-0.5,1.3-0.7,2-0.7c0.6,0,1.2,0.2,1.7,0.5c0.5,0.3,0.9,0.8,1.1,1.4l4.4,12.8
	l4.7-12.8c0.2-0.6,0.6-1.1,1.1-1.4c0.5-0.3,1-0.5,1.6-0.5c1.2,0,2.3,0.8,2.6,1.9l4.5,12.9l4.6-13
	C262.5,528.2,262.9,527.8,263.4,527.4z"></path><path class="st0" d="M272.7,549.2c-0.5-0.6-0.8-1.3-0.7-2v-17.3c-0.1-1.4,0.8-2.6,2.2-2.7c0.2,0,0.4,0,0.5,0h11.2
	c0.8-0.1,1.5,0.2,2.1,0.6c0.5,0.4,0.7,1,0.7,1.7c0,1.6-0.9,2.3-2.8,2.3h-8.2v4.3h7.5c1.9,0,2.8,0.8,2.8,2.3c0,0.6-0.2,1.3-0.7,1.7
	c-0.6,0.4-1.4,0.6-2.1,0.6h-7.5v4.7h8.2c1.9,0,2.8,0.8,2.8,2.4c0,0.6-0.2,1.3-0.7,1.7c-0.6,0.4-1.4,0.6-2.1,0.6h-11.2
	C274,550,273.3,549.7,272.7,549.2z"></path><path class="st0" d="M311,540.2c0.7,1,1.1,2.3,1.1,3.5c0,1.2-0.3,2.3-1,3.3c-0.7,1-1.7,1.7-2.8,2.2c-1.4,0.5-2.8,0.8-4.3,0.8h-8.6
	c-1.4,0.2-2.6-0.8-2.8-2.2c0-0.2,0-0.4,0-0.5v-17.3c-0.1-1.4,0.8-2.6,2.2-2.7c0.2,0,0.4,0,0.5,0h8.3c2-0.1,4,0.5,5.7,1.6
	c1.4,1,2.2,2.6,2.1,4.3c0,2.3-1.4,4.3-3.6,5C309.1,538.4,310.2,539.1,311,540.2z M298.4,536.1h4.2c0.9,0.1,1.7-0.1,2.5-0.5
	c0.5-0.4,0.8-1,0.8-1.7c0.1-0.7-0.2-1.3-0.8-1.8c-0.7-0.4-1.6-0.6-2.5-0.6h-4.2V536.1z M305.8,544.9c0.5-0.5,0.8-1.2,0.8-1.9
	c0.1-0.7-0.2-1.4-0.8-1.9c-0.8-0.4-1.7-0.6-2.5-0.6h-4.8v4.8h4.8C304.1,545.5,305,545.3,305.8,544.9L305.8,544.9z"></path><path class="st0" d="M320.2,549.7c-1.3-0.3-2.5-0.8-3.6-1.6c-0.3-0.2-0.6-0.5-0.8-0.9c-0.4-0.9-0.3-2,0.3-2.9
	c0.3-0.4,0.8-0.7,1.4-0.7c0.3,0,0.6,0,0.8,0.1c0.3,0.1,0.7,0.3,1,0.5c0.8,0.5,1.7,0.8,2.6,1.1c1,0.2,2,0.3,3,0.3
	c1,0.1,2-0.1,2.9-0.6c0.6-0.3,1-1,1-1.7c0-0.6-0.4-1.1-0.9-1.3c-1.1-0.5-2.3-0.9-3.5-1.1c-1.7-0.3-3.4-0.9-5-1.6
	c-1-0.5-1.9-1.2-2.5-2.2c-1.1-2.2-0.9-4.8,0.5-6.8c0.9-1.2,2-2.1,3.4-2.6c1.5-0.6,3.1-1,4.8-0.9c1.4,0,2.8,0.2,4.2,0.5
	c1.2,0.3,2.3,0.9,3.4,1.6c0.3,0.2,0.6,0.5,0.8,0.9c0.2,0.4,0.3,0.8,0.2,1.2c0,0.6-0.2,1.2-0.6,1.7c-0.3,0.4-0.8,0.7-1.3,0.7
	c-0.3,0-0.5,0-0.8-0.1c-0.4-0.1-0.7-0.3-1-0.5c-0.1-0.1-0.4-0.2-0.9-0.5c-0.6-0.3-1.2-0.5-1.8-0.6c-0.7-0.2-1.5-0.3-2.2-0.3
	c-0.9,0-1.9,0.2-2.7,0.6c-0.6,0.3-1,1-1,1.7c0,0.4,0.1,0.7,0.3,1c0.4,0.3,0.8,0.6,1.3,0.8c0.9,0.3,1.9,0.6,2.9,0.8
	c1.7,0.3,3.3,0.9,4.9,1.6c1,0.5,1.9,1.3,2.5,2.2c0.5,0.9,0.8,1.9,0.7,3c0,1.4-0.4,2.7-1.2,3.8c-0.9,1.1-2,2-3.4,2.5
	c-1.6,0.6-3.3,0.9-5,0.8C323.4,550.2,321.8,550.1,320.2,549.7z"></path><path class="st0" d="M340,549.4c-0.6-0.6-0.8-1.4-0.8-2.2v-17.3c0-0.8,0.3-1.5,0.8-2.1c0.6-0.5,1.4-0.8,2.1-0.8
	c0.8,0,1.6,0.2,2.2,0.8c0.6,0.6,0.8,1.3,0.8,2.1v17.3c0,0.8-0.2,1.6-0.8,2.2c-0.6,0.6-1.4,0.8-2.2,0.8
	C341.3,550.2,340.6,549.9,340,549.4z"></path><path class="st0" d="M356.5,549.3c-0.6-0.6-0.9-1.3-0.8-2.1v-15.2h-4.6c-0.8,0.1-1.5-0.1-2.1-0.6c-0.5-0.5-0.8-1.1-0.7-1.8
	c-0.1-0.7,0.2-1.3,0.7-1.8c0.6-0.4,1.4-0.6,2.1-0.6h15.2c0.8-0.1,1.5,0.1,2.1,0.6c0.5,0.5,0.8,1.1,0.7,1.8c0.1,0.7-0.2,1.4-0.7,1.8
	c-0.6,0.4-1.4,0.7-2.1,0.6h-4.6v15.2c0,0.8-0.3,1.6-0.8,2.1C359.7,550.4,357.8,550.4,356.5,549.3L356.5,549.3z"></path><path class="st0" d="M373,549.2c-0.5-0.6-0.8-1.3-0.7-2v-17.3c-0.1-1.4,0.8-2.6,2.2-2.7c0.2,0,0.4,0,0.5,0h11.2
	c0.7-0.1,1.5,0.2,2.1,0.6c0.5,0.4,0.8,1,0.7,1.7c0,1.6-0.9,2.3-2.8,2.3h-8.2v4.3h7.5c1.9,0,2.8,0.8,2.8,2.3c0,0.6-0.2,1.3-0.7,1.7
	c-0.6,0.4-1.4,0.6-2.1,0.6h-7.5v4.7h8.2c1.9,0,2.8,0.8,2.8,2.4c0,0.6-0.2,1.3-0.7,1.7c-0.6,0.4-1.4,0.6-2.1,0.6h-11.2
	C374.3,550,373.6,549.7,373,549.2z"></path><path class="st0" d="M312.8,155.1c-3.3-2.7-7.9-2.6-11.9-2.3c-4.8,0.4-9.6,0.5-14.4,0.6c-9.6,0.3-19.3,0.5-28.9,0.6
	c-2.1,0-4.2,0.1-6.3,0.2c-1.8-0.1-3.6,0.4-5.2,1.4c-2.7,1.8-3.4,5.2-3.4,8.2c-0.2,9.5,0,18.9,0,28.4c0,3.2-0.1,6.4-0.4,9.6
	c-0.4,3-0.3,6,0.3,9c0.6,2.9,3,5,5.9,5.2c1.9,0.2,3.8,0,5.7,0c2.5,0,5-0.1,7.4-0.2c9.6-0.3,19.2-0.8,28.7-1.5
	c4.6-0.3,9.2-0.7,13.8-1.1c3.6-0.3,7.8-0.4,10.5-3.2c2.7-2.8,2.3-6.8,2.1-10.4c-0.3-5.3-0.2-10.7-0.3-16.1
	c-0.2-5.3-0.4-10.7-0.6-16.1C315.6,163.4,316,158.2,312.8,155.1c-1.7-1.5-4.3,1-2.6,2.6c1,1,1.5,2.4,1.6,3.8
	c0.3,2.1,0.3,4.3,0.4,6.5c0.2,4.4,0.4,8.7,0.6,13.1c0.1,4.4,0.2,8.7,0.3,13.1c0,1.8,0,3.7,0.1,5.6c0.1,1.5,0.2,3.1,0.1,4.7
	c-0.4,3.5-3.3,4.6-6.4,4.9c-3.9,0.4-7.9,0.6-11.8,0.9c-8.8,0.7-17.6,1.2-26.4,1.6c-4.2,0.2-8.5,0.3-12.7,0.5c-1.9,0-3.8,0-5.6,0.1
	c-1.3,0-2.6,0.1-3.5-1c-1.3-1.8-1.2-4.6-1.1-6.7c0.1-2.5,0.5-4.9,0.6-7.4c0.2-8.5,0-17,0-25.5v-6.1c-0.1-1.6,0-3.2,0.4-4.8
	c0.9-3.3,4-3.1,7-3.2c9.7-0.4,19.4-0.3,29-0.6c4.9-0.1,9.9-0.2,14.8-0.4c2.3-0.1,4.6-0.4,6.9-0.4c1.9,0,4.4,0.1,5.9,1.4
	C312.1,159,314.6,156.5,312.8,155.1z"></path><path class="st0" d="M270.3,199.8c-0.2-9.9-0.5-19.8-0.9-29.6l-1.3,1.7c4.1-1.2,15.8-4.6,16.3,2.6c0.4,7-8.9,8.4-13.9,9
	c-2.3,0.2-2.3,3.8,0,3.6c4.1-0.4,8.4-0.9,12.5,0c1.9,0.4,3.7,1.1,5.3,2.3c1.2,0.9,2.8,2.7,2.4,4.4s-2.8,2.6-4.1,3.1
	c-1.7,0.6-3.5,1-5.3,1.1c-1.9,0.1-3.8,0-5.7,0.1c-2.2,0.2-4.4,0.2-6.7,0c-2.3-0.4-3.2,3.1-1,3.5c2.7,0.3,5.5,0.3,8.2,0.1
	c2.4,0.1,4.9,0,7.3-0.3c3.9-0.6,10.1-2.5,10.8-7.1c0.7-4.8-3.8-8.4-7.8-9.9c-5.1-1.9-10.8-1.5-16.1-0.9v3.6c4.4-0.5,9-1,12.6-3.6
	c3.2-2,5.1-5.6,4.9-9.4c-1-10.3-14.1-7.7-20.8-5.7c-0.8,0.2-1.3,0.9-1.3,1.7c0.5,9.9,0.8,19.8,0.9,29.6
	C266.7,202,270.3,202,270.3,199.8L270.3,199.8z"></path><path class="st0" d="M285.5,272.6c-1.5-1.1-3.3-1.6-5.2-1.4c-2.3,0.1-4.5,0.2-6.8,0.2c-4.7,0.1-9.4,0.2-14.1,0.4
	c-9.2,0.4-18.3,0.9-27.4,1.5c-4.3,0.3-8.7,0.7-13,0.9c-3.4,0.2-7.1,0.9-7.7,4.8c-0.2,1.6-0.2,3.1-0.2,4.7c-0.1,2.5-0.1,4.9-0.2,7.4
	c-0.1,4.6-0.2,9.2-0.2,13.8c-0.1,4.8-0.1,9.6-0.1,14.4c0,3.3-0.3,6.9,0.9,10c2.7,7.2,12.3,6.2,18.5,5.6c9-0.9,18-1.5,26.9-2.1
	l13.6-1l7.1-0.5c2.2,0,4.4-0.2,6.6-0.6c2.4-0.6,2.6-2.7,2.6-4.8c0.1-2.8,0.1-5.5,0.2-8.3c0.1-5.1,0.2-10.2,0.2-15.3
	c0-5.3,0-10.6-0.1-15.9c0-2.6-0.1-5.1-0.1-7.7C286.8,276.5,287,274.4,285.5,272.6c-1.5-1.6-4.1,0.9-2.5,2.6c0.4,0.5,0.3,1.4,0.3,2
	v3.2c0,2.2,0.1,4.3,0.1,6.5c0.1,4.1,0.1,8.3,0.1,12.4c0,8.5-0.1,16.9-0.3,25.4c0.1,0.8,0.1,1.7,0,2.5c-0.2,0.3-2.2,0.2-2.7,0.2
	l-6.5,0.5l-13,1c-8.2,0.6-16.5,1-24.8,1.8c-3.7,0.3-7.3,0.9-11,1.1c-2.8,0.1-6.9,0.3-9.1-1.6c-1.9-1.6-1.9-4.7-1.9-6.9
	c0-4.1,0-8.1,0-12.2c0.1-8.5,0.2-17,0.4-25.5c0-1.6,0.1-3.2,0.1-4.8c0-1.6,0.4-2.1,2-2.5c1.6-0.2,3.2-0.3,4.8-0.3
	c2.1-0.1,4.3-0.3,6.4-0.5c9.3-0.7,18.7-1.3,28-1.7c4.6-0.2,9.2-0.3,13.8-0.5c2.4-0.1,4.8-0.1,7.2-0.2c1.1,0,2.2-0.1,3.3-0.1
	c0.9,0,2.2-0.2,2.9,0.4C284.7,276.6,287.2,274.1,285.5,272.6z"></path><path class="st0" d="M226.8,292.9l24.2-0.6c2.3-0.1,2.3-3.7,0-3.6l-24.2,0.6C224.5,289.4,224.5,293,226.8,292.9z"></path><path class="st0" d="M227.6,305c11.3-0.4,22.5-1.2,33.7-2.4c2.3-0.2,2.3-3.8,0-3.6c-11.2,1.2-22.4,2-33.7,2.4
	C225.3,301.5,225.3,305.1,227.6,305z"></path><path class="st0" d="M227.6,317c14.3,0.1,28.6-0.1,42.9-0.6c2.3-0.1,2.3-3.7,0-3.6c-14.3,0.5-28.6,0.7-42.9,0.6
	c-1,0-1.8,0.8-1.8,1.8C225.8,316.2,226.6,317,227.6,317z"></path><path class="st0" d="M370.1,23.9c-3.7-2-7.9-1.6-12-1.6c-5-0.1-10-0.1-15,0c-5,0-9.9,0.2-14.9,0.4c-5,0.2-9.8,0-14.8,0
	c-2.4,0-4.8,0.1-7.1,0.2c-1.5,0-3.1,0.2-4.5,0.7c-3.5,1.4-4.1,5.6-4,9c0.3,9.7-0.1,19.5-0.1,29.3c0,5,0,10,0.1,15
	c0,3.4-0.8,7.8,1.2,10.8c2.1,3.3,6.3,4.2,9.9,4.6c4.2,0.4,8.5,0.3,12.7,0.4c10,0.1,20,0,30-0.4c5-0.2,10-0.5,15-0.8
	c1.9-0.1,4.1,0,5.4-1.7c1.3-1.7,1.4-4.3,1.6-6.3c0.4-4.9,0.6-9.8,0.5-14.7c0-5,0.1-10,0.1-15.1c0-5,0-10,0-15.1
	c0-3.5,1-7.4-0.4-10.7C373,26.2,371.7,24.8,370.1,23.9c-1.9-1.2-3.7,1.9-1.8,3.1c3.2,1.9,2.6,5.3,2.3,8.5c-0.3,4.3,0,8.8,0,13.1
	c0,9,0,18.1-0.1,27.1c0,2.1-0.1,4.2-0.3,6.3c-0.1,1-0.2,1.9-0.4,2.9c-0.2,1-0.1,2.3-1,2.7c-1,0.2-2,0.3-3.1,0.2l-3.2,0.2
	c-2.4,0.1-4.7,0.3-7.1,0.4c-9,0.4-18,0.6-27.1,0.6c-4.4,0-8.8-0.1-13.2-0.1c-3.4,0-6.9,0.1-10.1-1.1c-1.5-0.4-2.7-1.5-3.3-2.9
	c-0.3-1.5-0.4-3.1-0.2-4.7c0.1-4.4-0.1-8.9-0.1-13.3c0-9.1,0-18.1,0.1-27.1c0-2,0.1-4.1,0-6.1c-0.1-1.9-0.3-4,0.6-5.7
	c0.5-0.8,1.3-1.3,2.2-1.3c1.9-0.2,3.8-0.3,5.7-0.3c5-0.2,10,0.1,15.1,0c5-0.1,10-0.4,15.1-0.5c5,0,10.2,0,15.3,0c2.3,0,4.5,0,6.8,0
	c2.1-0.1,4.1,0.3,6,1.2C370.3,28.1,372.1,25,370.1,23.9z"></path><path class="st0" d="M321.4,54.5l14.7-0.2l7.2-0.1c0.4,0,1.3-0.2,1.6,0s0.2,0.2,0.3,0.7c0.2,1.3,0.4,2.5,0.6,3.8
	c0.6,4.8,0.9,9.6,0.8,14.4c0,1.1,0,2.2-0.1,3.2c0,0.3,0,0.5,0,0.8v0.3c0.4-0.3,0.4-0.4,0-0.3c-0.7-0.1-1.3-0.1-2,0.1l-7.3,0.3
	L320.4,78l1.8,1.8L322,53c0-1-0.8-1.8-1.8-1.8c-1,0-1.8,0.8-1.8,1.8l0.2,26.8c0,1,0.8,1.8,1.8,1.8l17.4-0.7l8.4-0.3
	c1.1,0.1,2.3-0.3,3.1-1.1c0.7-1.1,1-2.3,0.8-3.6c0.3-5.6,0-11.2-0.6-16.8c-0.2-1.3-0.3-2.6-0.6-4c0-1.2-0.4-2.4-1.1-3.5
	c-1.5-1.9-4.9-1.2-7-1.2l-19.4,0.3C319.2,50.8,319.2,54.4,321.4,54.5L321.4,54.5z"></path><path class="st0" d="M322.4,51.8c-2.1-3.1-2-7.2,0.1-10.3c2.2-3,5.6-4.7,9.3-4.7c7.3,0,15.5,6.7,13.8,14.6c-0.5,2.3,3,3.2,3.5,1
	c1.7-7.8-3.8-15.1-10.9-17.9s-16.4-0.4-19.7,7c-1.8,3.9-1.5,8.6,0.9,12.2C320.5,55.6,323.7,53.8,322.4,51.8z"></path><path class="st0" d="M688.9,75.9c-4.4-1.6-9.4-0.5-14-0.4l-15.4,0.3c-9.5,0.2-18.9,0.2-28.4,0.6c-3.1,0.1-6.6,0.5-9.1,2.5
	c-3.6,2.8-2.3,7.4-2.3,11.4c0,10.1-0.2,20.1-0.1,30.2c0,4.5,0,9,0,13.5c0,3.8,1.2,7.2,4.9,8.8c3.7,1.6,8,1.4,11.9,1.5
	c5,0.1,10,0.2,15,0.2c10,0,20.1,0,30.2-0.4c3.7-0.2,8.4,0.3,11.4-2.1c2.4-1.9,3-5.1,3.1-8c0.1-9.7-0.2-19.6-0.8-29.3
	c-0.3-5-0.7-10-1.2-14.9c-0.3-3.3,0.2-7.2-1.3-10.4c-0.7-1.5-2-2.6-3.5-3.3c-2.1-0.9-3.9,2.2-1.8,3.1c3,1.3,2.6,4.6,2.7,7.4
	c0.2,4.3,0.7,8.5,1.1,12.8c0.7,9.1,1,18.3,1,27.4c0,2,0.1,4.1,0.1,6.2c0.1,1.5,0,3-0.5,4.4c-1.1,2.9-4.3,2.8-6.9,2.9
	c-9.1,0.6-18.3,0.5-27.5,0.6c-8.9,0-17.8,0.2-26.7-0.3c-3-0.2-6.8-0.8-7.5-4.2c-0.2-1.7-0.2-3.4-0.1-5c0.1-2.1,0-4.2-0.1-6.3
	c-0.2-9.3-0.2-18.5,0-27.8c0-2.2,0-4.4,0.1-6.5c0-1.1,0-2.1,0-3.2c0-1.1-0.3-2.1-0.2-3.2c0.1-3.2,3.9-3.9,6.4-4.1
	c4.1-0.4,8.4-0.2,12.5-0.3l15.5-0.3l15.4-0.3c2.5,0,5-0.2,7.5-0.3c2.6-0.4,5.2-0.2,7.6,0.6C690.1,80.2,691,76.7,688.9,75.9z"></path><path class="st0" d="M661.3,98.3c-4.7-1.3-9.8-0.2-13.6,2.9c-4,3.2-6.5,7.9-7.2,13c-0.6,4.2-0.5,10.3,4.7,11.4
	c5.2,1.1,9.1-4,11.4-8.1c2.9-5.2,4.4-11,5.9-16.8l-3.5-0.5c0,5.5,1.1,11,3.2,16.1c1.6,3.9,4.2,8.2,9,8.4c2.3,0.1,2.3-3.5,0-3.6
	c-3.6-0.1-5.3-5-6.3-7.8c-1.5-4.2-2.2-8.7-2.3-13.2c0.1-1-0.6-1.9-1.6-2s-1.9,0.6-2,1.6l0,0c-0.9,4.1-2.1,8.1-3.6,12
	c-1.4,3.4-3.4,7.8-6.7,9.8c-1.4,0.8-3.4,1-4.3-0.6c-0.9-1.6-0.7-3.6-0.5-5.2c0.4-4,2.1-7.7,4.8-10.5c3-3.1,7.5-4.3,11.7-3.3
	c1,0.2,1.9-0.4,2.2-1.3C662.7,99.5,662.2,98.6,661.3,98.3L661.3,98.3z"></path><path class="st0" d="M740.2,192.4c-4.3-2.1-9-1.2-13.6-1.1c-5.2,0.1-10.3,0-15.5,0.1c-5.2,0.1-10.5,0.1-15.8,0.3
	c-4.8,0.1-9.8,0-14.6,0.6c-4,0.4-7.4,2.2-9.2,6c-1.7,3.8-1.4,8.1-1.3,12.2c0.3,10.6,0.4,21.3,0.4,31.9c0,2.5,0,5.1-0.3,7.6
	c-0.3,2.4-0.3,4.8,0.1,7.2c0.5,3.3,3.2,5.9,6.6,6.1c3.2,0.3,6.6-0.4,9.8-0.5c5.3-0.1,10.7-0.2,16-0.3c10.3-0.3,20.7-0.7,31-1.4
	c2.9-0.2,6.1-0.3,8.6-2c2.9-1.9,4-5.3,4.4-8.6c0.6-5.1-0.1-10.3-0.2-15.4c-0.1-5.1-0.3-10.5-0.6-15.8c-0.3-4.6-0.9-9.2-1-13.8
	c-0.1-3.3-0.1-6.7-1.6-9.7C742.8,194.3,741.7,193.1,740.2,192.4c-0.9-0.5-2-0.2-2.4,0.7c-0.4,0.8-0.2,1.9,0.6,2.4
	c2.6,1.5,2.9,4.8,3,7.4c0.2,3.6,0.4,7.1,0.7,10.6c0.8,9.5,0.7,19.1,1.3,28.6c0.2,3.9,0.8,8.8-1.3,12.3c-1.2,2-3.4,2.6-5.5,2.8
	c-4.1,0.5-8.2,0.6-12.3,0.8c-4.7,0.2-9.5,0.4-14.2,0.6c-5,0.2-9.9,0.3-14.8,0.4c-4.1,0.1-8.4-0.1-12.5,0.3c-2.2,0.2-5.7,1.1-7.5-0.5
	c-1.1-1-1.3-2.7-1.4-4.1c0-2.4,0.1-4.7,0.4-7.1c0.3-4.8,0.1-9.6,0-14.4c-0.1-4.8-0.1-9.7-0.2-14.6c-0.1-4.4-0.3-8.8-0.3-13.2
	c0-3.5,0.8-7.7,4.4-9.2c1.9-0.6,3.8-0.9,5.8-0.8c2.5-0.1,5-0.2,7.6-0.3c5.5-0.2,10.9-0.3,16.4-0.3c5.5-0.1,10.6-0.1,15.9-0.1
	c2.5,0,5.1-0.2,7.6-0.3c2.4-0.3,4.8,0,7,0.9C740.5,196.5,742.3,193.4,740.2,192.4z"></path><path class="st0" d="M703.5,215.9c2,3.9,4.1,7.8,6.1,11.7l1.5,2.8c0.4,1,1,2,1.6,2.9c1.7,1.9,3.9,0.2,5.6-0.9l2.8-1.8
	c1-0.5,1.9-1.2,2.8-2c1.8-2-0.4-4.4-1.5-6c-2.6-3.9-5.1-8-7.9-11.9c-0.6-1.1-1.6-1.8-2.8-2c-1.1,0-2.1,0.4-3,1
	c-1.8,1.1-3.4,2.4-4.9,3.8c-1.7,1.6,0.9,4.1,2.6,2.5c1.2-1.1,2.5-2.2,3.9-3.1c0.4-0.2,0.7-0.4,1-0.6c0.3-0.3-0.1,0.2-0.1-0.1
	c0,0.1,0.2,0.3,0.3,0.4c0.7,1,1.4,2,2,3.1l3.8,5.8l1.9,2.9l1,1.4c0.2,0.3,0.8,0.9,0.7,1.2l0.3-0.9c-0.2,0.4-1,0.7-1.4,1l-1.9,1.2
	l-1.7,1.1c-0.6,0.5-1.2,0.8-1.9,1.1h1c0.3,0.3,0.3,0.3,0.1,0l-0.2-0.3c-0.2-0.3-0.3-0.7-0.5-1c-0.4-0.7-0.7-1.4-1.1-2.1
	c-0.8-1.5-1.6-3-2.3-4.5c-1.5-2.9-3-5.8-4.5-8.7C705.6,212,702.5,213.8,703.5,215.9L703.5,215.9z"></path><path class="st0" d="M716.8,215.8c1.4-1.4,3-2.5,4.7-3.5c0.8-0.5,1.7-0.9,2.5-1.2c0.4-0.2,0.8-0.3,1.3-0.4l0.6-0.2h0.1h0.2
	c0.1,0,0.6,0,0.3,0h0.3c0.3,0.1-0.2-0.1,0.1,0c0.1,0,0.2,0.1,0.2,0.1c0,0-0.1-0.1,0,0s-0.1-0.2,0,0c0.1,0.2-0.1-0.2,0,0
	c0,0,0.1,0.4,0.1,0.2s0,0.1,0,0.1c0,0,0,0.2,0,0.3c0,0.3,0.1-0.2,0,0c-0.1,0.4-0.2,0.8-0.3,1.1c-0.7,1.6-1.8,3-3.1,4.1
	c-1.5,1.4-3.2,2.5-5,3.3c-0.8,0.5-1.1,1.6-0.6,2.4c0.5,0.8,1.6,1.1,2.5,0.6c2.1-0.9,4-2.2,5.7-3.8c1.7-1.6,3.1-3.5,4-5.7
	c0.9-2.4,0.4-5.4-2.3-6.3c-2.3-0.8-5,0.4-7.1,1.4c-2.5,1.2-4.8,2.8-6.8,4.7c-0.7,0.7-0.7,1.8,0,2.5c0.7,0.7,1.8,0.7,2.5,0
	L716.8,215.8z"></path><path class="st0" d="M705.2,218c-3.5,2.2-6.8,4.7-10,7.5c-3.1,2.5-5.8,5.4-8.1,8.7c-1.1,1.6-1.9,3.4-2,5.3c0,2.3,2,3.2,4.1,3.2
	c4.1,0.1,7.7-2.2,10.9-4.5c3.9-2.9,7.7-5.9,11.3-9.1c1.7-1.5-0.8-4.1-2.5-2.5c-3.2,2.9-6.5,5.7-10,8.2c-1.6,1.2-3.4,2.3-5.2,3.3
	c-0.9,0.4-1.8,0.8-2.7,0.9c-0.9,0.3-1.8,0.2-2.7-0.1l0.6,0.6c-0.4-0.5,0.4-1.8,0.7-2.3c0.5-0.9,1.1-1.8,1.8-2.6
	c1.5-1.7,3.1-3.4,4.8-4.9c3.4-3.2,7.1-6.1,11.1-8.6C709.1,219.9,707.2,216.7,705.2,218L705.2,218z"></path><circle class="st1" cx="656.5" cy="194.8" r="5.1"></circle><circle class="st1" cx="344" cy="158.1" r="5.1"></circle><circle class="st1" cx="467.5" cy="6.1" r="5.1"></circle><path class="st0" d="M451.6,72.1c1.4,6.7-1,13.6-4.2,19.4c-1.7,3.1-3.5,6.4-3.2,10s2.6,6,3.8,9.2c2.3,5.9,0.9,12.6-3.5,17.1
	c-2.6,2.6-5.3,4.6-5.9,8.5c-0.6,3.9-0.2,7.9-0.2,11.8l0.1,29.3l1.8-1.8H410c-5,0-10.1-0.1-15.2,0c-1.5,0-3.4,0.4-4.8-0.4
	c-0.9-0.7-1.4-1.8-1.4-2.9c-0.1-2.8,1.2-5.5,2.6-7.9c1.5-2.6,3.2-5,5.2-7.3c4.5-5.1,11.3-8.4,14-14.9c3.6-8.5-2.4-16.7-1.9-25.2
	c0.2-4.2,1.9-8.2,4.8-11.3c2.6-2.8,5.9-5,8.4-8c2.5-3.3,4-7.4,4-11.6c0.3-4.2-0.2-8.5,0.7-12.7c1.6-7.4,6.8-13.5,13.1-17.6
	c7.5-4.9,16.5-7,25.3-7.8c8-0.8,16-0.6,24,0.7c7.1,1.3,14.4,3.7,19.9,8.4c6.6,5.6,9.4,13.6,12.2,21.5c2.6,7.4,5.6,15.3,11.9,20.4
	c3.3,2.7,7.3,3.8,11.1,5.7c3.4,1.7,5.9,4.7,7.2,8.2c1.3,3.5,1.9,7.2,1.8,10.9c0,3.9-0.4,7.9,0.7,11.7c1.2,3.6,3.8,6.6,7.2,8.2
	c2.9,1.5,6.4,2.5,8.9,4.8c3.8,3.6,7.2,9.6,7,14.9c0,2.5-1.6,4.7-4,5.5c-3.6,1.3-7.5,1.5-11.1,2.3c-19.7,4.2-39.9,5.6-59.9,4.1
	c-4.9-0.4-9.8-0.9-14.7-1.6c-1-0.2-1.9,0.3-2.2,1.3c-0.3,0.9,0.3,1.9,1.2,2.2c20.8,3,41.9,2.9,62.6-0.1c5.1-0.7,10.2-1.7,15.3-2.8
	c3.7-0.8,7.7-0.9,11.2-2.6c6.1-2.9,5.7-10.3,3.6-15.7c-1.2-3-2.8-5.8-4.9-8.2c-2-2.4-4.6-4.2-7.5-5.4c-3.5-1.6-7.5-3.1-9.1-7
	s-0.8-8.2-0.9-12.3c-0.1-7.6-2.2-15.9-8.8-20.4c-3.7-2.5-8.4-3.2-12-6c-3.1-2.6-5.7-5.8-7.4-9.5c-4.1-8-5.6-17.1-10.3-24.8
	c-4.2-6.6-10.5-11.7-17.9-14.4c-7.4-2.7-15.3-4.1-23.2-4.1c-9.3-0.2-18.8,0.6-27.7,3.4c-8,2.6-15.6,7-20.8,13.7
	c-2.4,3-4.2,6.5-5.3,10.3c-1.2,4.3-0.9,8.8-1,13.2c-0.1,4.4-1,8.5-4.2,11.9c-2.8,2.9-6.2,5.2-8.7,8.5c-2.7,3.6-4.2,7.8-4.4,12.3
	c-0.2,4.6,1.3,9,2.4,13.3c1.1,4.4,1.2,8.6-1.4,12.4c-2.3,3.3-5.7,5.6-8.7,8.2c-4.7,4.1-8.4,9.2-10.8,14.9c-1.1,2.6-1.9,5.8-0.9,8.5
	c1.2,3.6,4.5,4.7,8.1,4.6c10.4-0.4,20.9-0.1,31.4-0.1h15.5c1,0,1.8-0.8,1.8-1.8l-0.1-26.2c0-4.2-0.2-8.4,0-12.5
	c0-1.8,0.5-3.5,1.5-4.9c1.1-1.4,2.6-2.4,3.8-3.6c4.4-4.7,6.2-11.3,4.9-17.6c-0.7-3.4-2.7-5.9-4-9.1c-1.5-3.6,0.4-6.9,2.2-10
	c3.7-6.7,6.2-14.5,4.6-22.2C454.7,68.9,451.2,69.9,451.6,72.1L451.6,72.1z"></path><path class="st0" d="M453.4,73.3c5.3,0.5,10.4,2.2,14.9,5c4.4,2.6,8,6.3,12.3,9c2.2,1.5,4.6,2.4,7.2,2.9c2.8,0.3,5.6,0.4,8.4,0.3
	c2.9-0.1,5.8,0.2,8.6,0.9c2.3,0.6,5.3,1.5,6.6,3.6c1.3,2.1,1.5,4.9,1.8,7.2c0.9,8.1,0.1,16.4-2.3,24.2c-3.2,10.3-9,20-19,24.6
	c-5.1,2.2-10.6,3.3-16.2,3.2c-4.8,0.1-9.3-1.2-13.8-2.4c-2.2-0.6-3.2,2.9-1,3.5c4.4,1.2,8.9,2.5,13.5,2.6c5.3,0.2,10.5-0.6,15.5-2.2
	c5.2-1.7,9.8-4.5,13.7-8.4c4-4.4,7.1-9.6,9.2-15.2c4.4-10.8,5.6-22.7,3.5-34.2c-0.4-2.6-1.6-5-3.6-6.8c-2.3-1.6-4.9-2.7-7.6-3.3
	c-3-0.7-6.1-0.9-9.3-0.8c-3,0.3-6,0-9-0.6c-2.9-1-5.5-2.6-7.8-4.7c-2.4-2-4.9-3.9-7.5-5.6c-5.4-3.6-11.6-5.8-18-6.3
	c-2.3-0.2-2.3,3.4,0,3.6L453.4,73.3z"></path><path class="st0" d="M462.7,100.8c4.1-3.1,9.4-4,14.3-2.5c2.2,0.7,3.2-2.8,1-3.5c-6.1-1.8-12.8-0.5-17.8,3.5c-0.7,0.7-0.7,1.8,0,2.5
	C460.8,101.5,462,101.5,462.7,100.8L462.7,100.8z"></path><path class="st0" d="M490.6,99.2c4.2-2.4,9.3-2.6,13.7-0.6c0.9,0.5,1.9,0.2,2.5-0.6c0.4-0.8,0.2-1.9-0.6-2.4
	c-5.5-2.6-12-2.4-17.3,0.6c-0.8,0.5-1.1,1.6-0.6,2.5C488.8,99.5,489.8,99.7,490.6,99.2L490.6,99.2z"></path><path class="st0" d="M467,114c0.3-0.2,0.7-0.5,1.1-0.7l0.6-0.3c-0.2,0.1-0.1,0.1,0,0l0.3-0.1c0.4-0.1,0.8-0.2,1.2-0.3l0.6-0.1
	c-0.2,0-0.2,0,0,0h0.4c0.4,0,0.8,0,1.3,0h0.3h0.1h0.2l0.3,0.1c0.4,0.1,0.8,0.2,1.2,0.3l0.3,0.1c0.3,0.1-0.2-0.1,0,0l0.6,0.3
	c0.8,0.6,1.9,0.5,2.5-0.3s0.5-1.9-0.3-2.5c-0.1-0.1-0.3-0.2-0.4-0.2c-3.8-2.1-8.5-1.9-12.1,0.6c-0.8,0.5-1.1,1.6-0.6,2.5
	C465,114.2,466.1,114.4,467,114L467,114z"></path><path class="st0" d="M492.9,111.2c0.3-0.2,0.7-0.5,1-0.7l0.6-0.3c0.2-0.1,0.2-0.1,0,0l0.3-0.1c0.4-0.1,0.8-0.3,1.2-0.3l0.6-0.1
	c-0.2,0-0.2,0,0,0h0.4c0.4,0,0.8,0,1.2,0h0.3c0,0,0.4,0,0.1,0c-0.2,0,0.1,0,0.1,0h0.3c0.4,0.1,0.8,0.2,1.2,0.3l0.3,0.1
	c0.3,0.1-0.2-0.1,0,0l0.6,0.3c0.8,0.5,2,0.3,2.5-0.6c0.5-0.8,0.3-2-0.6-2.5c0,0-0.1,0-0.1-0.1c-3.8-2-8.3-1.8-11.9,0.6
	c-0.8,0.5-1.1,1.6-0.6,2.5C490.9,111.3,492,111.6,492.9,111.2L492.9,111.2z"></path><path class="st0" d="M485,114.1c0.8,2.3,1.5,4.6,2.2,6.8c0.3,1.1,0.7,2.2,1,3.3c0.2,0.6,0.3,1.2,0.5,1.8l0.3,0.9l0.1,0.3
	c0.1,0.3,0.1,0.3,0-0.1l0.5-0.8c-0.1,0.2-0.6,0.3-0.9,0.4c-0.5,0.2-1,0.4-1.5,0.5c-1,0.3-2,0.5-2.9,0.7c-1,0.3-1.5,1.3-1.3,2.2
	c0.3,0.9,1.3,1.5,2.2,1.3c1.8-0.3,3.6-0.9,5.3-1.5c1.1-0.5,2.2-1.1,2.2-2.4c-0.1-1-0.3-1.9-0.6-2.8c-1.1-3.9-2.3-7.7-3.5-11.5
	c-0.3-0.9-1.3-1.5-2.2-1.3C485.3,112.3,484.7,113.2,485,114.1L485,114.1z"></path><path class="st0" d="M469.9,134.7c0.8,3,2.7,5.6,5.4,7c3.1,1.6,6.8,1.7,10,0.2c0.8-0.5,1.1-1.6,0.6-2.5c-0.5-0.8-1.6-1.1-2.5-0.6
	c-3.7,1.7-8.1,0-9.7-3.7c-0.2-0.4-0.3-0.9-0.5-1.3c-0.3-1-1.3-1.5-2.2-1.3C470.2,132.8,469.6,133.8,469.9,134.7L469.9,134.7z"></path><path class="st0" d="M483.3,156.7c-0.5,14.3-0.4,28.6,0.3,42.8c0.1,2.3,3.7,2.3,3.6,0c-0.8-14.3-0.9-28.5-0.3-42.8
	C487,154.4,483.4,154.4,483.3,156.7z"></path><path class="st0" d="M434.7,178.6l0.4,11.2l0.2,5.3c-0.1,1.9,0,3.7,0.3,5.6c0.7,2.6,3.9,4.6,6,6.1c2.2,1.6,4.7,2.9,7.2,3.9
	c5.4,2,11.1,3.1,16.8,3c4.8,0.1,10.3,0.7,14.8-1.2c5.7-2.3,7.5-9.7,6.6-15.3c-0.4-2.3-3.8-1.3-3.5,1c0.6,3.8-0.7,9.7-4.8,11.1
	s-8.6,0.8-12.7,0.8c-4.9,0-9.8-0.7-14.5-2.2c-2.3-0.8-4.4-1.8-6.5-3.1c-1-0.6-1.9-1.3-2.8-2c-1.1-0.7-2.2-1.6-3-2.7
	c-0.8-1.2-0.4-3.6-0.4-5l-0.2-5.3l-0.4-11.2C438.2,176.3,434.6,176.2,434.7,178.6L434.7,178.6z"></path><path class="st0" d="M484,208.3c13.2,5,27.3,7.3,41.1,10c12.9,2.5,27.8,4.8,37.3,14.7c9.3,9.6,12.4,23.9,14.7,36.6
	c2.8,15.6,3.8,31.6,4.7,47.4c0.5,8.9,0.9,17.9,1.3,26.8c0.2,4.6,0.4,9.1,0.5,13.7c0,1.1,0.1,2.2,0.1,3.3c0,1.1,0,1.5-1,2
	c-1.9,0.8-4,1.3-6.1,1.4c-2.3,0.1-2.3,3.7,0,3.6c1.9-0.1,3.8-0.5,5.6-1c1.6-0.5,3.4-1.1,4.4-2.6c1-1.5,0.7-3.2,0.6-4.9l-0.3-6.5
	c-0.3-8.4-0.6-16.9-1.1-25.3c-0.8-16.8-1.8-33.6-4.1-50.2c-1-7.7-2.5-15.4-4.5-22.9c-1.7-6.6-4.4-12.8-8.1-18.5
	c-3.8-5.7-9.1-10.2-15.2-13.2c-6.5-3.1-13.5-4.8-20.4-6.3c-16.3-3.5-33-5.7-48.7-11.6C482.9,204,481.9,207.5,484,208.3L484,208.3z"></path><path class="st0" d="M534.7,276.9c0,18.5,0.8,37,2.4,55.5c0.2,2.3,3.8,2.3,3.6,0c-1.6-18.4-2.4-36.9-2.4-55.5c0-1-0.8-1.8-1.8-1.8
	S534.7,275.9,534.7,276.9z"></path><path class="st2" d="M562.6,343.1l-2.6-9.1c-0.1-0.6-0.4-1.2-0.9-1.6c-0.7-0.4-1.5-0.5-2.3-0.3c-12.9,1.7-25.7,4-38.4,6.9
	c-0.6,0.1-1.2,0.3-1.6,0.7c-0.4,0.5-0.5,1.2-0.5,1.8l-1,16.9l2.3,25l1.5,14c0,0.5,0.2,1,0.5,1.5c0.5,0.4,1.1,0.7,1.8,0.6
	c3.6,0.2,7.2,0.1,10.8-0.3c9.6-0.7,19.2-1.5,28.9-2.4c2.8-0.1,5.6-0.6,8.2-1.5c0.7-0.2,1.3-0.6,1.7-1.2c0.2-0.6,0.3-1.2,0.2-1.7
	c-0.4-6.6-1.4-13.1-2.7-19.5L562.6,343.1z"></path><path class="st0" d="M564.4,342.7l-2.3-8.2c-0.6-2.1-1.4-4.1-3.9-4.2c-2.5-0.1-5.3,0.6-7.8,1c-2.8,0.4-5.6,0.9-8.4,1.3
	c-5.6,0.9-11.2,2-16.8,3.2c-2.6,0.4-5.2,1-7.8,1.8c-2.7,1-2.5,3.6-2.7,6l-0.5,8.5c-0.1,2.1-0.4,4.3-0.4,6.5c0,1.4,0.3,2.7,0.4,4.1
	l1.5,15.9c0.6,5.9,1.2,11.9,1.9,17.8c0.3,2.2,0.5,4.4,3.1,4.9c2.6,0.4,5.3,0.4,7.9,0.1c5.6-0.3,11.1-0.8,16.7-1.2
	c5.5-0.4,11.3-0.9,17-1.4c3.9-0.4,11.3-0.7,11.1-6c-0.2-7.4-1.7-14.7-3.2-21.9l-5.5-27.3L564.4,342.7c-0.4-2.2-3.8-1.2-3.4,1
	l4.6,23.1c0.7,3.5,1.5,7,2.1,10.5c0.5,2.6,0.9,5.2,1.2,7.8c0.1,1.2,0.3,2.5,0.4,3.8c0.2,1.3,0.3,2.6,0.3,3.9c-0.2,1.6-4.4,1.8-5.7,2
	c-2.5,0.3-5.1,0.5-7.6,0.7c-5.2,0.5-10.4,0.9-15.6,1.3c-5.2,0.4-10.2,1-15.4,1c-1.2,0.1-2.5,0.1-3.7-0.1c-0.5-0.2-0.2,0.1-0.5-0.3
	c-0.2-0.7-0.3-1.4-0.2-2l-0.9-7.9c-0.2-1.9-0.4-3.8-0.6-5.7l-1.3-13.7c-0.3-3.2-0.8-6.5-0.9-9.7c-0.1-2.5,0.3-5.1,0.5-7.6l0.5-7.6
	c-0.1-0.7,0-1.3,0.1-2c0.2-0.5,0.5-0.5,1.1-0.6c1.3-0.3,2.7-0.6,4-0.9c2.5-0.5,5-1.1,7.5-1.6c5.1-1,10.2-1.9,15.4-2.8
	c2.6-0.4,5.2-0.8,7.9-1.2c1.2-0.3,2.4-0.5,3.6-0.5c0.8,0.2,0.9,1.7,1.1,2.4l2.1,7.4c0.5,0.9,1.6,1.2,2.4,0.7
	C564,344,564.4,343.3,564.4,342.7z"></path><path class="st2" d="M510,361.2c1.4-0.4,2.8-0.6,4.2-0.6c3.9-0.2,7.9-0.4,11.6,1c3.7,1.4,6.9,4.7,6.9,8.6c-0.2,3-1.7,5.8-4.3,7.5
	c-2.5,1.6-5.3,2.7-8.3,3.1c-4.4,1-9,1-13.4,0.2"></path><path class="st0" d="M510.5,362.9c2.5-0.6,5-0.8,7.5-0.7c2.3-0.1,4.7,0.2,6.9,0.9c3.3,1.1,6.6,4.3,5.9,8.1c-0.8,4.3-5.2,6.4-9,7.3
	c-4.8,1.3-9.8,1.5-14.7,0.7c-2.3-0.5-3.2,3-0.9,3.5c4.6,0.9,9.3,0.8,13.9-0.1c4.2-0.8,8.6-2.1,11.5-5.3c2.7-2.8,3.6-7,2.1-10.6
	c-1.7-3.6-4.9-6.2-8.8-7.2c-2.4-0.6-4.9-0.9-7.4-0.8c-2.7-0.1-5.4,0.2-8,0.8C507.4,360.1,508.3,363.6,510.5,362.9L510.5,362.9z"></path><path class="st2" d="M575,367.2c-5.4,4.8-13.1,5.9-19.6,2.7c-1.1-0.5-2.1-1.3-2.8-2.3c-0.8-1.4-1.1-3.1-0.9-4.7
	c0.1-4.8,1.8-9.5,4.7-13.3c3-3.8,7.6-6,12.5-6c0.7,0,1.3,0.2,1.9,0.5c0.4,0.4,0.8,0.8,1,1.4c3.2,6.6,2.9,14.3,2.4,21.6"></path><path class="st0" d="M573.8,365.9c-3.3,3-7.7,4.4-12.1,4c-2.3-0.2-4.4-0.9-6.3-2.1c-2-1.4-1.8-3.9-1.6-6.1c0.3-5,2.6-9.7,6.4-13
	c1.9-1.6,4.1-2.6,6.5-3c1-0.3,2.1-0.3,3.1,0c0.9,0.5,1.4,2.5,1.7,3.4c1.9,5.8,1.5,12.1,1.1,18.1c-0.1,2.3,3.5,2.3,3.6,0
	c0.4-6.5,0.8-13.4-1.5-19.7c-0.4-1.5-1.1-2.9-2.1-4.2c-1.2-1-2.7-1.5-4.3-1.3c-3.1,0.1-6,1-8.6,2.7c-5.1,3.6-8.5,9.1-9.3,15.3
	c-0.4,2.9-0.8,6.3,0.9,8.8c1.6,2.3,4.6,3.6,7.3,4.3c6.3,1.5,13-0.1,17.8-4.5C578,366.9,575.5,364.4,573.8,365.9L573.8,365.9z"></path><path class="st0" d="M517.8,400.9c-0.6,11,5,22.9,15.9,26.7c3.2,1,6.5,1.6,9.8,1.7c3.3,0.2,6.7,0.1,10-0.5
	c5.9-1.2,11.1-4.9,14.1-10.2c3.7-6.6,5-14.3,3.6-21.8c-0.4-2.3-3.8-1.3-3.5,1c1.8,10.6-2.3,24.1-13.7,27.2c-2.8,0.7-5.6,1-8.5,0.8
	c-3,0-6-0.3-8.9-1c-4.8-1.2-9-4.3-11.5-8.5c-2.8-4.6-4.1-9.9-3.7-15.3C521.5,398.6,517.9,398.6,517.8,400.9L517.8,400.9z"></path><path class="st0" d="M522.5,401.8c0.7,4.5,2.4,8.7,4.9,12.5c2.9,3.8,7,6.4,11.7,7.3c9.1,1.9,19-1.4,23.8-9.6
	c2.6-4.3,3.4-9.5,2.3-14.4c-0.5-2.3-4-1.3-3.5,1c1,4.7-0.1,9.5-3.1,13.3c-3.1,3.8-7.7,6.2-12.6,6.6c-5,0.4-10.6-0.8-14.3-4.5
	c-3.6-3.7-4.9-8.4-5.9-13.1C525.5,398.6,522,399.6,522.5,401.8L522.5,401.8z"></path><path class="st0" d="M631.1,458.4c6.4,0,12.8,0,19.3,0.1c5.9,0,11.9-0.3,17.7,0.4c4.9,0.6,10.2,2,12.6,6.7c2,3.8,2.2,8.5,2.2,12.7
	c0,4.2-0.3,8.4-0.2,12.6c0.2,6.4,0.5,12.8,0.7,19.2l1.4,38.6l1.4,38.5c0.2,5,0.3,10.1,0.8,15.1c0.4,3.8,0.9,7.8,0.2,11.5
	c-0.5,3.8-3.3,6.9-7.1,7.7c-5.3,1.5-10.9,0.7-16.3,1c-12.7,0.6-25.5,1.2-38.2,1.7c-25.7,1-51.5,1.7-77.3,2.2
	c-12.9,0.3-25.9,0.5-38.8,0.8l-19.4,0.3c-1.3,0.2-2.6,0.2-3.9,0c-1.2-0.3-1.1-2.2-1.2-3.2c-0.3-3.2-0.5-6.3-0.7-9.5
	c-1.8-25.6-2.6-51.2-2.4-76.8c0.1-12.7,0.6-25.5,1.1-38.2c0.3-5.8,0.7-11.5,0.6-17.3c-0.1-4.8-0.6-10,1-14.6
	c1.2-3.4,4.1-5.1,7.4-6.1c3.7-1,7.6-1.6,11.5-1.7c10.6-0.5,21.2-0.6,31.8-0.9c25.7-0.6,51.4-0.9,77-0.9
	C618.5,458.3,624.8,458.3,631.1,458.4c0.9-0.1,1.7-0.9,1.7-1.9c0-1-0.8-1.8-1.8-1.8c-26.7-0.1-53.3,0.1-80,0.6
	c-13.3,0.2-26.6,0.6-39.8,1c-7.6,0.2-15.8-0.1-22.9,3.1c-3.5,1.5-6.2,4.5-7.3,8.1c-1.5,5-1.1,10.3-0.9,15.4c0.2,6-0.4,12-0.6,18
	c-0.3,6.5-0.6,13.1-0.7,19.6c-0.8,26.6-0.4,53.2,1.1,79.7c0.4,6.6,0.8,13.2,1.3,19.8c0.1,1.6,0.3,3.2,0.4,4.8c0,1.3,0.3,2.7,0.8,3.9
	c1.3,2.5,4.1,2.4,6.6,2.4l40.3-0.7c26.6-0.5,53.3-1.1,80-2c13.3-0.4,26.6-1,39.8-1.6c6.4-0.3,12.9-0.8,19.3-0.8
	c5.5,0,11.3,0.2,16.4-2.4c7.7-4,6.7-14.1,6-21.3c-0.5-5.2-0.6-10.5-0.8-15.7l-0.7-20l-1.4-40.4l-0.7-19.8c-0.2-6-0.6-12.1-0.6-18.1
	c0-4.6,0.4-9.2,0.1-13.8c-0.3-4.3-1-9-3.6-12.6c-3.3-4.5-8.9-6.1-14.1-6.7c-5.9-0.7-12-0.4-18-0.4c-6.5,0-13.1-0.1-19.6-0.1
	c-1,0-1.8,0.8-1.8,1.8C629.3,457.6,630.1,458.4,631.1,458.4z"></path><path class="st0" d="M200.7,399.3c41.4,0,82.8,0.1,124.3,0.3s82.8,0.4,124.1,0.5c23.3,0.1,46.5,0.1,69.8,0.1c1,0,1.8-0.8,1.8-1.8
	s-0.8-1.8-1.8-1.8c-41.4,0-82.9-0.1-124.3-0.3c-41.4-0.2-82.8-0.4-124-0.5c-23.3-0.1-46.6-0.1-69.8-0.1c-1,0-1.8,0.8-1.8,1.8
	C198.9,398.5,199.7,399.3,200.7,399.3L200.7,399.3z"></path><path class="st0" d="M572,396.1c25,0,50,0,75-0.1c25.2,0,50.4,0,75.5-0.1c14,0,28,0,42.1,0c1,0,1.8-0.8,1.8-1.8c0-1-0.8-1.8-1.8-1.8
	c-25,0-50,0-75,0l-75.6,0.1h-42.1c-1,0-1.8,0.8-1.8,1.8C570.1,395.2,570.9,396,572,396.1L572,396.1z"></path><path class="st0" d="M704.9,415.8h21.3c1,0,1.8-0.8,1.8-1.8s-0.8-1.8-1.8-1.8h-21.3c-1,0-1.8,0.8-1.8,1.8S703.9,415.8,704.9,415.8z"></path><path class="st0" d="M704.5,425.6h23.2c1,0,1.8-0.8,1.8-1.8c0-1-0.8-1.8-1.8-1.8h-23.2c-1,0-1.8,0.8-1.8,1.8
	C702.7,424.7,703.5,425.6,704.5,425.6z"></path><path class="st0" d="M707.7,436.2c6.2,0.1,12.4-0.2,18.5-1c1,0,1.8-0.8,1.8-1.8c0-1-0.8-1.8-1.8-1.8c-6.1,0.7-12.3,1.1-18.5,1
	c-1,0-1.8,0.8-1.8,1.8S706.7,436.2,707.7,436.2z"></path><path class="st0" d="M215.5,387.2c3,1.5,6.2-0.3,8.1-2.8c1.7-2.2,2.1-5.7-0.1-7.7c-1.7-1.5-4.1-1.8-6.2-1c-2.2,0.7-3.8,2.5-4.2,4.7
	C212.5,382.9,213.1,385.9,215.5,387.2c0.8,0.4,1.9,0.2,2.4-0.6c0.5-0.9,0.2-2-0.6-2.5L217,384c-0.1,0-0.3-0.2,0,0c0.3,0.2,0,0,0-0.1
	c-0.1-0.1-0.1-0.1-0.2-0.2c-0.2-0.2,0.2,0.4,0.1,0.1c-0.1-0.2-0.1-0.2-0.1-0.2l-0.1-0.2c0,0,0-0.1-0.1-0.1c-0.1-0.2,0.1,0.4,0.1,0.2
	c0-0.2-0.1-0.3-0.2-0.5s0-0.2-0.1-0.3c0,0,0-0.1,0-0.1c-0.1-0.3,0,0.4,0,0.2c0-0.4,0-0.8,0-1.1c0-0.1,0-0.5,0-0.1s0,0,0,0
	c0-0.2,0.1-0.4,0.1-0.6c0-0.1,0.1-0.2,0.1-0.2c0-0.1,0.2-0.4,0-0.1s0,0,0,0l0.1-0.3c0,0,0.3-0.4,0.3-0.4s-0.3,0.4-0.1,0.2l0.1-0.1
	l0.2-0.2l0.2-0.2c0.1-0.1-0.2,0.2-0.2,0.2l0.1-0.1l0.5-0.3l0.3-0.1c0.1,0,0.3-0.2,0,0h0.1l0.3-0.1c0.2-0.1,0.3-0.1,0.5-0.1h0.2
	c0.2,0-0.5,0-0.2,0h0.2h0.9c0.3,0-0.2,0-0.2,0c0.2,0.1,0.3,0.1,0.5,0.1l0.2,0.1c0.1,0,0.2,0.2-0.2-0.1h0.1c0.1,0.1,0.3,0.2,0.4,0.3
	s-0.2-0.2-0.2-0.2l0.1,0.1l0.2,0.2l0.1,0.1c0.1,0.1-0.2-0.2-0.2-0.2c0,0,0.1,0.2,0.2,0.2l0.1,0.2c0,0,0,0.1,0.1,0.1
	c-0.2-0.4-0.1-0.3-0.1-0.1c0,0.1,0.1,0.2,0.1,0.4c0.1,0.3,0-0.4,0,0c0,0.1,0,0.3,0,0.4v0.2c0,0.3,0-0.1,0-0.2
	c-0.1,0.2-0.1,0.5-0.2,0.8c0,0,0,0.1-0.1,0.2c-0.1,0.2,0.1-0.2,0.1-0.2s-0.1,0.3-0.2,0.4c-0.1,0.2-0.3,0.5-0.5,0.7l0,0
	c0.2-0.2,0,0,0,0l-0.3,0.3c-0.2,0.2-0.4,0.4-0.6,0.6l0,0c0.2-0.2,0,0-0.1,0l-0.3,0.2l-0.4,0.2l-0.2,0.1c-0.3,0.2,0.3-0.1,0.1,0
	s-0.5,0.2-0.8,0.2c-0.3,0.1-0.2,0,0.2,0h-0.2c-0.1,0-0.3,0-0.4,0c-0.1,0,0.4,0.1,0.2,0h-0.2l-0.2-0.1c-0.2,0,0.4,0.2,0.1,0
	c-0.9-0.5-2-0.1-2.4,0.7C214.4,385.7,214.7,386.8,215.5,387.2L215.5,387.2z"></path><path class="st0" d="M235.7,386.4c3,1.5,6.2-0.3,8.1-2.8c1.7-2.2,2.1-5.7-0.1-7.7c-1.7-1.5-4.2-1.8-6.3-1c-1,0.3-2,0.9-2.7,1.7
	c-0.7,0.9-1.2,1.9-1.5,3C232.7,382.1,233.2,385.2,235.7,386.4c0.9,0.5,2,0.2,2.5-0.6c0.5-0.9,0.2-2-0.6-2.5l0,0l-0.2-0.1
	c-0.1,0-0.3-0.2,0,0c0.3,0.2,0,0,0-0.1l-0.2-0.2c-0.2-0.2,0.2,0.4,0.1,0.1l-0.1-0.2l-0.1-0.2l-0.1-0.1c-0.1-0.2,0.1,0.4,0.1,0.2
	c0-0.2-0.1-0.3-0.2-0.5c0-0.1,0-0.2-0.1-0.3c0,0,0-0.1,0-0.1c-0.1-0.3,0,0.4,0,0.2c0-0.4,0-0.8,0-1.1c0-0.1,0-0.5,0-0.1s0,0,0-0.1
	c0-0.1,0.1-0.4,0.2-0.6c0-0.1,0-0.2,0.1-0.2c0-0.1,0.2-0.4,0-0.1s0,0,0,0l0.1-0.3c0.1-0.1,0.2-0.3,0.3-0.4c0,0-0.3,0.4-0.1,0.2
	l0.1-0.1l0.2-0.2l0.2-0.2c0.1-0.1-0.2,0.2-0.2,0.2l0.1-0.1l0.5-0.3l0.3-0.1c0.1,0,0.4-0.2,0,0s0,0,0.1,0l0.3-0.1l0.5-0.1h0.2
	c0.2,0-0.4,0-0.2,0h0.2h0.5h0.4c0.3,0-0.2,0-0.2,0c0.2,0.1,0.3,0.1,0.5,0.1l0.2,0.1c0.1,0,0.2,0.1-0.2-0.1l0.1,0.1l0.4,0.3
	c0.1,0.1-0.2-0.2-0.2-0.2l0.1,0.1l0.2,0.2l0.1,0.1c0.1,0.1-0.2-0.2-0.2-0.2c0.1,0.1,0.1,0.2,0.2,0.3l0.1,0.2c0,0,0,0.1,0,0.1
	c-0.2-0.4-0.1-0.3-0.1-0.1c0,0.1,0.1,0.2,0.1,0.4c0.1,0.3,0-0.4,0,0c0,0.1,0,0.2,0,0.4v0.2c0,0.2,0-0.1,0-0.2
	c-0.1,0.2-0.1,0.5-0.2,0.7c0,0,0,0.1-0.1,0.2c-0.1,0,0.1-0.2,0.1-0.2s-0.1,0.3-0.2,0.4c-0.1,0.3-0.3,0.5-0.5,0.7c0,0-0.2,0.3,0,0
	c0.2-0.3,0,0,0,0s-0.2,0.2-0.3,0.3c-0.1,0.1-0.4,0.4-0.6,0.6c-0.2,0.2-0.2,0.2,0,0c0.2-0.2,0,0-0.1,0.1l-0.3,0.2l-0.4,0.2l-0.2,0.1
	c-0.3,0.2,0.3-0.1,0.1,0s-0.5,0.2-0.8,0.2c-0.3,0.1-0.2-0.1,0.2,0c-0.1,0-0.1,0-0.2,0c-0.1,0-0.3,0-0.4,0s0.4,0.1,0.2,0h-0.2
	l-0.2-0.1c-0.2,0,0.4,0.2,0.1,0c-0.9-0.5-1.9-0.2-2.5,0.6C234.7,385,234.9,385.9,235.7,386.4z"></path><path class="st0" d="M257.4,386.1c3,1.5,6.2-0.3,8.1-2.8c1.7-2.2,2.1-5.7-0.1-7.7c-1.7-1.5-4.1-1.8-6.2-1c-2.2,0.7-3.8,2.5-4.2,4.7
	C254.4,381.8,255,384.9,257.4,386.1c0.8,0.5,2,0.3,2.5-0.6c0.5-0.8,0.3-2-0.6-2.5c0,0-0.1,0-0.1-0.1l-0.2-0.1c-0.1,0-0.3-0.2,0,0
	c0.3,0.2,0,0,0,0l-0.2-0.2c-0.2-0.2,0.3,0.4,0.1,0.1c-0.2-0.2-0.1-0.1-0.1-0.2c0-0.1-0.1-0.1-0.1-0.2v-0.1c-0.1-0.2,0.1,0.4,0.1,0.2
	c0-0.2-0.1-0.3-0.2-0.5c0-0.1,0-0.2-0.1-0.3c0,0,0-0.1,0-0.1c-0.1-0.3,0,0.4,0,0.2c0-0.4,0-0.8,0-1.1c0-0.1,0-0.5,0-0.1s0,0,0-0.1
	c0-0.2,0.1-0.4,0.1-0.6c0-0.1,0.1-0.2,0.1-0.2c0-0.1,0.2-0.4,0-0.1s0,0,0,0l0.1-0.3c0.1-0.2,0.2-0.3,0.3-0.5c0,0-0.3,0.4-0.1,0.2
	l0.1-0.1l0.2-0.2l0.2-0.2l-0.2,0.2c0,0,0.1-0.1,0.1-0.1l0.5-0.3l0.3-0.1c0.1,0,0.3-0.2,0,0s0,0,0.1,0l0.3-0.1l0.5-0.1h0.2
	c0.2,0-0.5,0-0.2,0h0.2c0.2,0,0.4,0,0.5,0h0.4c0.3,0-0.2,0-0.2,0c0.2,0.1,0.3,0.1,0.5,0.1l0.2,0.1c0.1,0,0.2,0.1-0.2-0.1l0.1,0.1
	l0.4,0.3c0.1,0.1-0.2-0.2-0.2-0.2l0.1,0.1c0.1,0,0.1,0.1,0.2,0.2l0.1,0.1c0.1,0.1-0.2-0.2-0.2-0.2c0.1,0.1,0.1,0.2,0.2,0.3
	c0,0.1,0.1,0.1,0.1,0.2c0,0,0,0.1,0.1,0.1c-0.3-0.4-0.1-0.3-0.1-0.1c0,0.1,0.1,0.2,0.1,0.4c0.1,0.3,0-0.4,0,0c0,0.1,0,0.3,0,0.4
	c0,0.1,0,0.1,0,0.2c0,0.3,0-0.1,0-0.1c-0.1,0.2-0.1,0.5-0.2,0.7c0,0,0,0.1-0.1,0.2c-0.1,0.2,0.1-0.2,0.1-0.2s-0.1,0.3-0.2,0.4
	c-0.1,0.2-0.3,0.5-0.5,0.7c0,0.1-0.2,0.3,0,0l0,0l-0.3,0.3c-0.2,0.2-0.4,0.4-0.6,0.6c0,0-0.2,0.2,0,0c0.2-0.2,0,0-0.1,0.1l-0.3,0.2
	l-0.4,0.2l-0.2,0.1c-0.3,0.2,0.3-0.1,0.1,0c-0.3,0.1-0.5,0.2-0.8,0.2c-0.2,0-0.2,0,0.2,0c-0.1,0-0.1,0-0.2,0c-0.1,0-0.3,0-0.4,0
	c0,0,0.4,0.1,0.2,0h-0.2l-0.2-0.1c-0.2,0,0.4,0.2,0.1,0c-0.8-0.4-1.9-0.2-2.4,0.6C256.4,384.6,256.7,385.6,257.4,386.1z"></path><path class="st1" d="M356,136.1c12.3-10,22.1-22.8,28.5-37.3c0.9-2.1-2.2-3.9-3.1-1.8c-6.3,14.2-15.8,26.8-27.9,36.6
	C351.6,135,354.2,137.5,356,136.1L356,136.1z"></path><path class="st1" d="M395.7,82.6c8.5-19.5,21.4-36.8,37.6-50.7c4.6-3.9,9.4-7.5,14.4-10.8c1.9-1.2,0.1-4.4-1.8-3.1
	c-18.2,11.8-33.6,27.7-44.8,46.3c-3.2,5.3-6,10.8-8.5,16.4C391.6,82.8,394.7,84.6,395.7,82.6L395.7,82.6z"></path><path class="st1" d="M347.2,185.9c16-10.1,28.7-24.6,36.7-41.7c1-2.1-2.1-3.9-3.1-1.8c-7.7,16.6-20,30.6-35.4,40.4
	C343.4,184,345.2,187.1,347.2,185.9L347.2,185.9z"></path><path class="st1" d="M263.3,252.4c21.8,1.3,43.6-4.1,62.3-15.5c5.3-3.2,10.3-6.9,14.9-11.1c1.7-1.5-0.8-4.1-2.5-2.5
	c-20.5,18.1-47.4,27.3-74.6,25.5C261,248.6,261,252.2,263.3,252.4z"></path><path class="st1" d="M360.4,218.2c9.2-4.9,16.5-12.7,20.9-22.1c0.4-0.8,0.2-1.9-0.6-2.4c-0.9-0.5-2-0.2-2.5,0.6
	c-4.2,8.9-11.1,16.2-19.7,20.8C356.5,216.2,358.4,219.3,360.4,218.2L360.4,218.2z"></path><path class="st1" d="M581.8,204.8c20.2-18.5,46.9-27.2,73.1-33.4c7.5-1.8,15-3.3,22.5-4.8c2.3-0.5,1.3-3.9-1-3.5
	c-27,5.5-54.8,11.3-78.7,25.5c-6.6,3.9-12.8,8.5-18.5,13.6C577.5,203.9,580,206.4,581.8,204.8L581.8,204.8z"></path><path class="st1" d="M692.2,178.1c18.1-6.8,33.3-19.7,43-36.4c2.7-4.7,5-9.7,6.7-14.9c0.7-2.2-2.7-3.1-3.5-1
	c-6,17.3-17.7,32.1-33.3,41.8c-4.4,2.8-9.1,5.1-14,6.9C689.1,175.4,690.1,178.9,692.2,178.1L692.2,178.1z"></path><path class="st1" d="M596.8,230c11.7-11.3,26.3-19.2,42.1-23c2.3-0.5,1.3-4-0.9-3.5c-16.4,4-31.5,12.3-43.7,24
	C592.6,229.1,595.2,231.6,596.8,230L596.8,230z"></path><path class="st1" d="M614.9,252.9c10.6-6,21.6-11.2,33.1-15.3c2.2-0.8,1.2-4.3-1-3.5c-11.7,4.2-23.1,9.5-33.9,15.7
	c-0.8,0.5-1.1,1.6-0.6,2.5C613,253.1,614.1,253.4,614.9,252.9z"></path><path class="st0" d="M239.5,442.7H322c1,0,1.8-0.8,1.8-1.8s-0.8-1.8-1.8-1.8h-82.5c-1,0-1.8,0.8-1.8,1.8S238.5,442.7,239.5,442.7z"></path><path class="st0" d="M364.4,607.8c-0.3,1.3-1,1.7-2.2,2c-1.3,0.3-2.6,0.5-3.9,0.6c-2.6,0.3-5.3,0.3-8,0.3c-5.5,0-10.9,0-16.4,0
	c-11.1,0-22.2-0.2-33.4-0.2c-11.1,0-22.5-0.1-33.7,0.4c-5.4,0.2-10.7,0.8-16.1,0.7c-2.6,0-5.2-0.1-7.8-0.6c-1.5-0.2-2.9-0.7-4.1-1.6
	c-2.3-2-2.2-5.5-2.1-8.2c0.2-4.8-0.5-9.7-0.2-14.5c0.2-3.2,0.9-8.9,4.8-9.8c2.5-0.4,5.1-0.5,7.6-0.4c2.6,0,5.3-0.1,7.9-0.1
	c22.1-0.6,44.3-0.2,66.4,0c11.2,0.1,22.3,0.1,33.5-0.2l3.9-0.1c0.9,0,2.6-0.4,3.1,0.6c0.4,1.1,0.5,2.2,0.5,3.4
	c0.1,1.4,0.1,2.9,0.1,4.3c0,2.7-0.1,5.3,0,8c0.1,2.7,0.4,5.2,0.5,7.7C365,602.6,364.9,605.2,364.4,607.8c-0.3,2.3,3.1,3.2,3.5,1
	c0.9-5.6,0.2-11.1,0-16.8c-0.1-2.9,0-5.7,0-8.6c0-2.6,0.1-5.7-0.9-8.2c-1-2.5-3.2-2.9-5.5-2.8c-3,0-6,0.2-9,0.2
	c-6.1,0.1-12.2,0.2-18.2,0.2c-24,0-48-0.6-71.9-0.2c-5.8,0.1-11.6,0.1-17.4,0.4c-2.3,0.1-4.9,0.1-6.9,1.4c-1.6,1.1-2.8,2.6-3.4,4.4
	c-2,4.8-1.8,10.1-1.6,15.2c0.1,2.6,0.2,5.1,0.1,7.7c-0.1,1.9,0,3.8,0.4,5.7c0.8,3.2,3.2,5.7,6.3,6.7c2.4,0.7,4.9,1.1,7.4,1.1
	c2.9,0.2,5.7,0.1,8.6,0c5.9-0.3,11.8-0.7,17.7-0.8c5.9-0.1,12.2-0.2,18.2-0.2c12.1,0,24.1,0.1,36.2,0.2c6,0,11.9,0,17.9,0
	c5.7,0,11.7,0.3,17.2-1.1c2.3-0.4,4.2-2.2,4.7-4.5C368.4,606.4,365,605.5,364.4,607.8z"></path><path class="st1" d="M667.9,335.6c30-10,62-13.8,91.1-26.7c23.8-10.6,47.3-28.3,55.6-54.1c2.3-7.1,3.2-15,0.9-22.2
	c-1.8-6-5.8-11.1-11.3-14.3c-5.8-3.2-13.5-3.6-17.7,2.3c-3.6,5.1-3.1,12.1-0.5,17.5c2.9,5.6,7.9,9.9,13.8,12.1
	c6.3,2.4,13.6,2,19.9-0.2c12-4.1,21.9-13.6,27.8-24.7c10.8-20.1,10-46.8-3.3-65.5c-1.6-2.3-3.4-4.5-5.3-6.5
	c-1.6-1.7-4.1,0.9-2.6,2.5c14.8,15.5,18.4,39.4,11.7,59.3c-3.4,10.4-10,19.5-18.9,26c-10.2,7.2-24.6,10.6-34.9,1.7
	c-4.2-3.6-7.2-8.8-6.8-14.5c0.1-2.8,1.4-5.5,3.5-7.4c2.6-2.1,6.2-1.6,9.1-0.6c5.4,1.9,9.5,6.7,11.4,12c2.5,6.6,1.9,13.8-0.1,20.4
	c-7.2,24-28.8,40.9-50.5,51.2c-26.3,12.5-55.5,16.8-83.2,24.7c-3.6,1-7.2,2.2-10.8,3.3C664.7,333,665.7,336.5,667.9,335.6
	L667.9,335.6z"></path><path class="st1" d="M636.9,316.4c15.6,0.3,30.9-4.8,43.2-14.5c1.8-1.4-0.7-4-2.5-2.6c-11.6,9.1-25.9,13.9-40.7,13.5
	C634.6,312.8,634.6,316.4,636.9,316.4L636.9,316.4z"></path><path class="st1" d="M863.5,258.4c11.1-10.4,19.1-23.6,23.1-38.3c0.2-1-0.4-1.9-1.4-2.1c-0.9-0.2-1.8,0.3-2.1,1.2
	c-3.8,14.1-11.5,26.8-22.2,36.7C859.3,257.4,861.8,260,863.5,258.4L863.5,258.4z"></path><path class="st0" d="M517.8,399.6c-7.5,3.6-12.5,11.1-12.9,19.4c-0.2,5,1.1,9.8-0.2,14.8c-1.3,3.9-3,7.6-5.2,11.1
	c-2.3,4.1-4.5,8.4-5.3,13.1c-0.4,2.3,3.1,3.2,3.5,1c1.3-8,6.8-14.3,9.6-21.7c1.5-4.2,2-8.6,1.4-13c-0.4-4.4-0.3-8.6,1.7-12.6
	c2-3.9,5.2-7.1,9.2-9C521.7,401.7,519.9,398.6,517.8,399.6L517.8,399.6z"></path><path class="st0" d="M570,399.1c3.8,2.8,4.4,8.1,4.6,12.5c0.2,5.3,0.1,10.9,3,15.6c2.5,4.1,6.6,6.9,11.3,7.9
	c2.6,0.6,5.4,0.7,7.9,1.8c2.1,0.9,3.8,2.5,4.9,4.5c2.7,5-0.6,11,2.5,15.9c1.2,1.9,4.4,0.1,3.1-1.8c-1.4-2.1-1-4.7-0.9-7.1
	c0.3-2.5-0.1-5-1-7.4c-2-4.9-6.3-7.6-11.4-8.5c-2.6-0.3-5.2-0.9-7.6-1.9c-2.1-1-3.9-2.5-5.3-4.4c-3.3-4.7-2.6-10.6-3-16.1
	c-0.4-5.4-1.8-10.7-6.3-14C569.9,394.6,568.2,397.7,570,399.1L570,399.1z"></path><path class="st0" d="M435.3,199c-14.1,7.5-30.7,7.5-45.4,13.7c-6.8,2.7-12.8,7.1-17.4,12.9c-4.5,6-7.1,13.2-9.2,20.4
	c-9.8,33.9-15.3,68.8-16.6,104c-0.1,3.9-0.8,8.4,0.5,12.2c1.1,2.8,3.2,5.1,6,6.3c2.9,1.3,6,2,9.2,2.3c4.3,0.5,8.6,0.9,12.9,1.3
	l54.6,5.6c18.2,1.8,36.4,4.1,54.6,4.9c4.5,0.2,9.1,0.3,13.7,0.2c3.5-0.1,8.6,0.6,10.8-2.9c0.8-1.5,1.3-3.1,1.5-4.8l1.3-7.1
	c0.5-1.8,0.8-3.7,0.7-5.7c-0.3-1.7-1.6-3.1-3.2-3.5c-4-1.3-8.1-2.3-12.3-3.1c-4.2-0.9-8.5-1.8-12.8-2.5c-8.5-1.5-17.1-2.6-25.7-3.7
	c-17.2-2.1-34.5-3.9-51.5-7.2c-4.2-0.8-8.3-1.7-12.5-2.7l1.3,1.7c0.1-22,3.1-43.8,8.9-65c0.2-1-0.4-1.9-1.4-2.1
	c-0.9-0.2-1.8,0.3-2.1,1.2c-5.8,21.5-8.9,43.7-9,65.9c0,0.8,0.5,1.5,1.3,1.7c32.4,7.8,65.9,8.6,98.5,15.2c4.1,0.8,8.1,1.7,12.1,2.8
	l2.7,0.7c0.5,0.1,1.5,0.2,1.9,0.7s0,1.8-0.1,2.4l-0.7,3.8c-0.3,2-0.7,3.9-1.1,5.9c-0.3,1.7-0.4,3.8-2.5,4.2
	c-1.8,0.3-3.7,0.4-5.6,0.3c-2.3,0-4.6,0-6.8,0c-17.4-0.2-34.7-2.3-51.9-4.1l-52.3-5.3c-8.5-0.9-17.1-1.6-25.6-2.6
	c-2.9-0.2-5.8-1-8.4-2.4c-3-1.8-3.7-4.7-3.7-8c0.2-16.7,1.5-33.5,4-50c2.4-16.8,5.8-33.4,10-49.9c1.9-7.3,3.6-14.7,6.8-21.6
	c2.9-6.5,7.6-12,13.6-15.9c12.7-7.9,28.2-8.5,42.1-13c3.6-1.1,7.1-2.6,10.5-4.4C439.1,200.9,437.3,197.8,435.3,199L435.3,199z"></path><path class="st0" d="M544.4,602.9l0.4-21.8c0.1-7.1,0-14.2,0.6-21.2c0.5-6.1,2-12.6,6.7-16.9c4.2-3.9,10.3-5,15.8-5.7
	c6.9-0.9,13.9-1.5,20.8-1.9c7-0.5,14.1-0.6,21.2-0.4c5.9,0.3,13.3,0.5,18,4.6c4,3.4,5.5,8.7,6.4,13.7c1.1,7.3,1.6,14.7,1.6,22
	c0.1,8.1-0.3,16.2-1.2,24.3l1.8-1.8c-24.2,1.1-48.4,1.9-72.7,2.3c-7,0.1-13.9,0.2-20.9,0.3c-1,0-1.8,0.8-1.8,1.8s0.8,1.8,1.8,1.8
	c24.2-0.2,48.5-0.8,72.7-1.7c7-0.3,13.9-0.6,20.8-0.9c1,0,1.8-0.8,1.8-1.8c1.7-14.8,1.7-29.7,0-44.4c-0.7-5.5-2-11.2-5.4-15.7
	c-3.9-5-9.7-6.8-15.8-7.5c-7.6-0.8-15.3-1-22.9-0.5c-7.4,0.3-14.8,0.9-22.2,1.7c-6.2,0.7-12.8,1.3-18.4,4.4
	c-5.4,3-8.7,8.4-10.3,14.2c-2.1,7.9-1.6,16.6-1.7,24.7l-0.6,26.3C540.8,605.2,544.4,605.2,544.4,602.9z"></path><path class="st0" d="M567.4,535.8c-0.2-4.1-0.5-9.3,2.7-12.5c3.2-3.2,9-3.1,13.3-3.2c5.7,0,11.4,0.5,16.9,1.5c1.3,0.1,2.6,0.4,3.8,1
	c0.8,0.7,1.4,1.6,1.8,2.6c1.2,2.4,2.2,4.9,3,7.6c0.3,0.9,1.3,1.5,2.3,1.1c0.9-0.3,1.4-1.2,1.2-2.1c-0.7-2.3-1.5-4.6-2.5-6.7
	c-0.9-2-1.9-4.3-3.8-5.5c-1.9-1.2-4.4-1.4-6.6-1.8c-2.6-0.4-5.1-0.8-7.7-1c-5.1-0.5-10.2-0.5-15.2,0c-4.1,0.5-8.1,2-10.5,5.6
	c-2.6,3.8-2.5,8.9-2.4,13.3C563.8,538.1,567.4,538.2,567.4,535.8L567.4,535.8z"></path><path class="st0" d="M580.4,516c0.2,0.6,0.3,0.7,0.2,0.3l0,0c0.1-0.3,0.1-0.5,0.2-0.8c0.1-0.5,0.3-0.9,0.4-1.4
	c0.3-0.8,0.7-1.5,1.2-2.2c1.1-1.3,2.8-1.9,4.4-1.7c3.8,0.5,5.8,4.3,6.1,7.8c0,1,0.8,1.8,1.8,1.8c1,0,1.8-0.8,1.8-1.8
	c-0.3-4.3-2.4-8.8-6.5-10.6c-2.1-1-4.4-1.1-6.6-0.5c-2.1,0.7-3.8,2.2-4.9,4.2c-1.1,2-2.5,5.2-0.8,7.3c0.7,0.7,1.8,0.7,2.6,0
	C581,517.8,581,516.6,580.4,516L580.4,516z"></path><path class="st0" d="M553.5,538c-2.8-3.6-3.6-8.1-4.1-12.6c-0.5-5-1-10.2-0.2-15.2c0.9-4.7,2.9-9.2,5.8-13.1
	c2.7-3.9,5.8-7.9,10-10.3c4.2-2.4,9-3.2,13.6-4.1c5.2-1,10.6-1.7,15.9-0.4c4.7,1.3,9.1,3.4,13.2,6.1c4,2.5,7.6,5.4,9.9,9.5
	c2.6,4.8,3.6,10.5,4.1,15.8c0.5,6,0.1,12.1-1.1,18c-0.5,2.3,3,3.2,3.5,1c1.2-5.7,1.7-11.6,1.4-17.5c-0.2-5.4-1.3-10.8-3.2-15.9
	c-2-4.7-5.2-8.7-9.3-11.7c-4.2-3.1-8.8-5.7-13.7-7.6c-5.3-1.9-11.1-2.5-16.7-1.6c-5.5,0.5-10.9,1.8-16.1,3.7
	c-4.7,2.1-8.8,5.4-11.8,9.7c-3.3,4-6,8.6-7.8,13.5c-2,6-1.6,12.5-1.1,18.7c0.5,5.5,1.3,11.3,4.7,15.8
	C551.7,541.7,554.8,539.8,553.5,538L553.5,538z"></path><path class="st0" d="M547.7,543c-5.9-3.1-12-6.1-17.7-9.8c-4.2-2.7-8.9-7-14.2-4.2c-4.4,2.4-4.9,7.9-2.2,11.7
	c2.7,3.8,6.9,6.3,10.6,9.1c5.8,4.4,11.3,9.1,17.1,13.4c1.9,1.4,3.6-1.7,1.8-3.1c-4.7-3.5-9.4-7.1-14-10.8c-3.2-2.6-6.7-4.9-9.8-7.6
	c-2.4-2.1-6.2-6.2-2.5-9.1s8.5,2.1,11.5,3.9c5.6,3.5,11.6,6.5,17.5,9.6C547.9,547.2,549.7,544.1,547.7,543L547.7,543z"></path></svg>